M48
;DRILL file {KiCad 5.0.2-bee76a0~70~ubuntu18.04.1} date sex 17 mai 2019 20:17:33 -03
;FORMAT={3:3/ absolute / metric / suppress leading zeros}
FMAT,2
METRIC,TZ
T1C0.400
T2C0.800
T3C0.900
T4C1.000
T5C1.500
T6C5.980
%
G90
G05
T1
X128615Y-114252
X129174Y-111747
X129578Y-85801
X131729Y-116868
X132316Y-111747
X134272Y-118049
X134932Y-108496
X136934Y-112433
X141684Y-99779
X142591Y-99792
X154813Y-116804
X155090Y-111143
X155979Y-81443
X160652Y-84069
T2
X138511Y-106959
X141011Y-106959
X142778Y-84186
X144778Y-84186
X126398Y-107008
X128898Y-107008
X143174Y-94112
X145674Y-94112
X127089Y-96901
X127089Y-104521
X129629Y-96901
X129629Y-104521
X132169Y-96901
X132169Y-104521
X134709Y-96901
X134709Y-104521
X137249Y-96901
X137249Y-104521
X139789Y-96901
X139789Y-104521
X142329Y-96901
X142329Y-104521
X144869Y-96901
X144869Y-104521
X147409Y-96901
X147409Y-104521
X149949Y-96901
X149949Y-104521
X152489Y-96901
X152489Y-104521
X155029Y-96901
X155029Y-104521
X157569Y-96901
X157569Y-104521
X160109Y-96901
X160109Y-104521
X155648Y-106949
X158148Y-106949
T3
X160431Y-110284
X162971Y-110284
T4
X173743Y-128869
X175539Y-130665
X127173Y-110038
X129713Y-110038
X132253Y-110038
X134793Y-110038
X137333Y-110038
X139873Y-110038
X113677Y-130325
X115473Y-128529
X127084Y-93165
X129624Y-93165
X132164Y-93165
X134704Y-93165
X137244Y-93165
X139784Y-93165
X113706Y-68278
X115502Y-70074
X135712Y-114427
X138252Y-114427
X140792Y-114427
X143332Y-114427
X145872Y-114427
X148412Y-114427
X150952Y-114427
X153492Y-114427
X139748Y-89037
X142288Y-89037
X144828Y-89037
X147368Y-89037
X149908Y-89037
X152448Y-89037
X174079Y-70155
X175875Y-68359
T5
X145882Y-108781
X150782Y-108781
T6
X107696Y-62662
X107848Y-136195
X181483Y-136347
X181585Y-62687
T0
M30
