%TF.GenerationSoftware,KiCad,Pcbnew,5.0.2-bee76a0~70~ubuntu18.04.1*%
%TF.CreationDate,2019-05-17T20:17:06-03:00*%
%TF.ProjectId,Quadcoptero-FritzenLab-r00,51756164-636f-4707-9465-726f2d467269,rev?*%
%TF.SameCoordinates,Original*%
%TF.FileFunction,Soldermask,Top*%
%TF.FilePolarity,Negative*%
%FSLAX46Y46*%
G04 Gerber Fmt 4.6, Leading zero omitted, Abs format (unit mm)*
G04 Created by KiCad (PCBNEW 5.0.2-bee76a0~70~ubuntu18.04.1) date sex 17 mai 2019 20:17:06 -03*
%MOMM*%
%LPD*%
G01*
G04 APERTURE LIST*
%ADD10C,0.100000*%
G04 APERTURE END LIST*
D10*
G36*
X175649842Y-129770738D02*
X175716027Y-129777257D01*
X175829253Y-129811604D01*
X175885867Y-129828777D01*
X176024487Y-129902872D01*
X176042391Y-129912442D01*
X176078129Y-129941772D01*
X176179586Y-130025034D01*
X176262848Y-130126491D01*
X176292178Y-130162229D01*
X176292179Y-130162231D01*
X176375843Y-130318753D01*
X176393016Y-130375367D01*
X176427363Y-130488593D01*
X176444759Y-130665220D01*
X176427363Y-130841847D01*
X176393016Y-130955073D01*
X176375843Y-131011687D01*
X176301748Y-131150307D01*
X176292178Y-131168211D01*
X176262848Y-131203949D01*
X176179586Y-131305406D01*
X176078129Y-131388668D01*
X176042391Y-131417998D01*
X176042389Y-131417999D01*
X175885867Y-131501663D01*
X175829253Y-131518836D01*
X175716027Y-131553183D01*
X175649842Y-131559702D01*
X175583660Y-131566220D01*
X175495140Y-131566220D01*
X175428958Y-131559702D01*
X175362773Y-131553183D01*
X175249547Y-131518836D01*
X175192933Y-131501663D01*
X175036411Y-131417999D01*
X175036409Y-131417998D01*
X175000671Y-131388668D01*
X174899214Y-131305406D01*
X174815952Y-131203949D01*
X174786622Y-131168211D01*
X174777052Y-131150307D01*
X174702957Y-131011687D01*
X174685784Y-130955073D01*
X174651437Y-130841847D01*
X174634041Y-130665220D01*
X174651437Y-130488593D01*
X174685784Y-130375367D01*
X174702957Y-130318753D01*
X174786621Y-130162231D01*
X174786622Y-130162229D01*
X174815952Y-130126491D01*
X174899214Y-130025034D01*
X175000671Y-129941772D01*
X175036409Y-129912442D01*
X175054313Y-129902872D01*
X175192933Y-129828777D01*
X175249547Y-129811604D01*
X175362773Y-129777257D01*
X175428958Y-129770738D01*
X175495140Y-129764220D01*
X175583660Y-129764220D01*
X175649842Y-129770738D01*
X175649842Y-129770738D01*
G37*
G36*
X113787872Y-129430650D02*
X113854056Y-129437168D01*
X113967282Y-129471515D01*
X114023896Y-129488688D01*
X114162516Y-129562783D01*
X114180420Y-129572353D01*
X114216158Y-129601683D01*
X114317615Y-129684945D01*
X114382673Y-129764220D01*
X114430207Y-129822140D01*
X114430208Y-129822142D01*
X114513872Y-129978664D01*
X114513872Y-129978665D01*
X114565392Y-130148504D01*
X114582788Y-130325131D01*
X114565392Y-130501758D01*
X114531045Y-130614984D01*
X114513872Y-130671598D01*
X114439777Y-130810218D01*
X114430207Y-130828122D01*
X114418943Y-130841847D01*
X114317615Y-130965317D01*
X114216158Y-131048579D01*
X114180420Y-131077909D01*
X114180418Y-131077910D01*
X114023896Y-131161574D01*
X114002016Y-131168211D01*
X113854056Y-131213094D01*
X113787872Y-131219612D01*
X113721689Y-131226131D01*
X113633169Y-131226131D01*
X113566986Y-131219612D01*
X113500802Y-131213094D01*
X113352842Y-131168211D01*
X113330962Y-131161574D01*
X113174440Y-131077910D01*
X113174438Y-131077909D01*
X113138700Y-131048579D01*
X113037243Y-130965317D01*
X112935915Y-130841847D01*
X112924651Y-130828122D01*
X112915081Y-130810218D01*
X112840986Y-130671598D01*
X112823813Y-130614984D01*
X112789466Y-130501758D01*
X112772070Y-130325131D01*
X112789466Y-130148504D01*
X112840986Y-129978665D01*
X112840986Y-129978664D01*
X112924650Y-129822142D01*
X112924651Y-129822140D01*
X112972185Y-129764220D01*
X113037243Y-129684945D01*
X113138700Y-129601683D01*
X113174438Y-129572353D01*
X113192342Y-129562783D01*
X113330962Y-129488688D01*
X113387576Y-129471515D01*
X113500802Y-129437168D01*
X113566986Y-129430650D01*
X113633169Y-129424131D01*
X113721689Y-129424131D01*
X113787872Y-129430650D01*
X113787872Y-129430650D01*
G37*
G36*
X175017556Y-128869169D02*
X173743349Y-130143376D01*
X172469142Y-128869169D01*
X173743349Y-127594962D01*
X175017556Y-128869169D01*
X175017556Y-128869169D01*
G37*
G36*
X116747687Y-128529080D02*
X115473480Y-129803287D01*
X114199273Y-128529080D01*
X115473480Y-127254873D01*
X116747687Y-128529080D01*
X116747687Y-128529080D01*
G37*
G36*
X131411377Y-117293105D02*
X131449064Y-117304538D01*
X131483803Y-117323106D01*
X131514248Y-117348092D01*
X131539234Y-117378537D01*
X131557802Y-117413276D01*
X131569235Y-117450963D01*
X131573700Y-117496301D01*
X131573700Y-118332979D01*
X131569235Y-118378317D01*
X131557802Y-118416004D01*
X131539234Y-118450743D01*
X131514248Y-118481188D01*
X131483803Y-118506174D01*
X131449064Y-118524742D01*
X131411377Y-118536175D01*
X131366039Y-118540640D01*
X130279361Y-118540640D01*
X130234023Y-118536175D01*
X130196336Y-118524742D01*
X130161597Y-118506174D01*
X130131152Y-118481188D01*
X130106166Y-118450743D01*
X130087598Y-118416004D01*
X130076165Y-118378317D01*
X130071700Y-118332979D01*
X130071700Y-117496301D01*
X130076165Y-117450963D01*
X130087598Y-117413276D01*
X130106166Y-117378537D01*
X130131152Y-117348092D01*
X130161597Y-117323106D01*
X130196336Y-117304538D01*
X130234023Y-117293105D01*
X130279361Y-117288640D01*
X131366039Y-117288640D01*
X131411377Y-117293105D01*
X131411377Y-117293105D01*
G37*
G36*
X133464558Y-117274444D02*
X133502245Y-117285877D01*
X133536984Y-117304445D01*
X133567429Y-117329431D01*
X133592415Y-117359876D01*
X133610983Y-117394615D01*
X133622416Y-117432302D01*
X133626881Y-117477640D01*
X133626881Y-118314318D01*
X133622416Y-118359656D01*
X133610983Y-118397343D01*
X133592415Y-118432082D01*
X133567429Y-118462527D01*
X133536984Y-118487513D01*
X133502245Y-118506081D01*
X133464558Y-118517514D01*
X133419220Y-118521979D01*
X132332542Y-118521979D01*
X132287204Y-118517514D01*
X132249517Y-118506081D01*
X132214778Y-118487513D01*
X132184333Y-118462527D01*
X132159347Y-118432082D01*
X132140779Y-118397343D01*
X132129346Y-118359656D01*
X132124881Y-118314318D01*
X132124881Y-117477640D01*
X132129346Y-117432302D01*
X132140779Y-117394615D01*
X132159347Y-117359876D01*
X132184333Y-117329431D01*
X132214778Y-117304445D01*
X132249517Y-117285877D01*
X132287204Y-117274444D01*
X132332542Y-117269979D01*
X133419220Y-117269979D01*
X133464558Y-117274444D01*
X133464558Y-117274444D01*
G37*
G36*
X129345360Y-117863340D02*
X128243360Y-117863340D01*
X128243360Y-117061340D01*
X129345360Y-117061340D01*
X129345360Y-117863340D01*
X129345360Y-117863340D01*
G37*
G36*
X160529240Y-117083560D02*
X159427240Y-117083560D01*
X159427240Y-116281560D01*
X160529240Y-116281560D01*
X160529240Y-117083560D01*
X160529240Y-117083560D01*
G37*
G36*
X126945360Y-116913340D02*
X125843360Y-116913340D01*
X125843360Y-116111340D01*
X126945360Y-116111340D01*
X126945360Y-116913340D01*
X126945360Y-116913340D01*
G37*
G36*
X158549577Y-115194305D02*
X158587264Y-115205738D01*
X158622003Y-115224306D01*
X158652448Y-115249292D01*
X158677434Y-115279737D01*
X158696002Y-115314476D01*
X158707435Y-115352163D01*
X158711900Y-115397501D01*
X158711900Y-116484179D01*
X158707435Y-116529517D01*
X158696002Y-116567204D01*
X158677434Y-116601943D01*
X158652448Y-116632388D01*
X158622003Y-116657374D01*
X158587264Y-116675942D01*
X158549577Y-116687375D01*
X158504239Y-116691840D01*
X157667561Y-116691840D01*
X157622223Y-116687375D01*
X157584536Y-116675942D01*
X157549797Y-116657374D01*
X157519352Y-116632388D01*
X157494366Y-116601943D01*
X157475798Y-116567204D01*
X157464365Y-116529517D01*
X157459900Y-116484179D01*
X157459900Y-115397501D01*
X157464365Y-115352163D01*
X157475798Y-115314476D01*
X157494366Y-115279737D01*
X157519352Y-115249292D01*
X157549797Y-115224306D01*
X157584536Y-115205738D01*
X157622223Y-115194305D01*
X157667561Y-115189840D01*
X158504239Y-115189840D01*
X158549577Y-115194305D01*
X158549577Y-115194305D01*
G37*
G36*
X156499577Y-115194305D02*
X156537264Y-115205738D01*
X156572003Y-115224306D01*
X156602448Y-115249292D01*
X156627434Y-115279737D01*
X156646002Y-115314476D01*
X156657435Y-115352163D01*
X156661900Y-115397501D01*
X156661900Y-116484179D01*
X156657435Y-116529517D01*
X156646002Y-116567204D01*
X156627434Y-116601943D01*
X156602448Y-116632388D01*
X156572003Y-116657374D01*
X156537264Y-116675942D01*
X156499577Y-116687375D01*
X156454239Y-116691840D01*
X155617561Y-116691840D01*
X155572223Y-116687375D01*
X155534536Y-116675942D01*
X155499797Y-116657374D01*
X155469352Y-116632388D01*
X155444366Y-116601943D01*
X155425798Y-116567204D01*
X155414365Y-116529517D01*
X155409900Y-116484179D01*
X155409900Y-115397501D01*
X155414365Y-115352163D01*
X155425798Y-115314476D01*
X155444366Y-115279737D01*
X155469352Y-115249292D01*
X155499797Y-115224306D01*
X155534536Y-115205738D01*
X155572223Y-115194305D01*
X155617561Y-115189840D01*
X156454239Y-115189840D01*
X156499577Y-115194305D01*
X156499577Y-115194305D01*
G37*
G36*
X131411377Y-115243105D02*
X131449064Y-115254538D01*
X131483803Y-115273106D01*
X131514248Y-115298092D01*
X131539234Y-115328537D01*
X131557802Y-115363276D01*
X131569235Y-115400963D01*
X131573700Y-115446301D01*
X131573700Y-116282979D01*
X131569235Y-116328317D01*
X131557802Y-116366004D01*
X131539234Y-116400743D01*
X131514248Y-116431188D01*
X131483803Y-116456174D01*
X131449064Y-116474742D01*
X131411377Y-116486175D01*
X131366039Y-116490640D01*
X130279361Y-116490640D01*
X130234023Y-116486175D01*
X130196336Y-116474742D01*
X130161597Y-116456174D01*
X130131152Y-116431188D01*
X130106166Y-116400743D01*
X130087598Y-116366004D01*
X130076165Y-116328317D01*
X130071700Y-116282979D01*
X130071700Y-115446301D01*
X130076165Y-115400963D01*
X130087598Y-115363276D01*
X130106166Y-115328537D01*
X130131152Y-115298092D01*
X130161597Y-115273106D01*
X130196336Y-115254538D01*
X130234023Y-115243105D01*
X130279361Y-115238640D01*
X131366039Y-115238640D01*
X131411377Y-115243105D01*
X131411377Y-115243105D01*
G37*
G36*
X133464558Y-115224444D02*
X133502245Y-115235877D01*
X133536984Y-115254445D01*
X133567429Y-115279431D01*
X133592415Y-115309876D01*
X133610983Y-115344615D01*
X133622416Y-115382302D01*
X133626881Y-115427640D01*
X133626881Y-116264318D01*
X133622416Y-116309656D01*
X133610983Y-116347343D01*
X133592415Y-116382082D01*
X133567429Y-116412527D01*
X133536984Y-116437513D01*
X133502245Y-116456081D01*
X133464558Y-116467514D01*
X133419220Y-116471979D01*
X132332542Y-116471979D01*
X132287204Y-116467514D01*
X132249517Y-116456081D01*
X132214778Y-116437513D01*
X132184333Y-116412527D01*
X132159347Y-116382082D01*
X132140779Y-116347343D01*
X132129346Y-116309656D01*
X132124881Y-116264318D01*
X132124881Y-115427640D01*
X132129346Y-115382302D01*
X132140779Y-115344615D01*
X132159347Y-115309876D01*
X132184333Y-115279431D01*
X132214778Y-115254445D01*
X132249517Y-115235877D01*
X132287204Y-115224444D01*
X132332542Y-115219979D01*
X133419220Y-115219979D01*
X133464558Y-115224444D01*
X133464558Y-115224444D01*
G37*
G36*
X162929240Y-116133560D02*
X161827240Y-116133560D01*
X161827240Y-115331560D01*
X162929240Y-115331560D01*
X162929240Y-116133560D01*
X162929240Y-116133560D01*
G37*
G36*
X129345360Y-115963340D02*
X128243360Y-115963340D01*
X128243360Y-115161340D01*
X129345360Y-115161340D01*
X129345360Y-115963340D01*
X129345360Y-115963340D01*
G37*
G36*
X145982643Y-113532519D02*
X146048827Y-113539037D01*
X146162053Y-113573384D01*
X146218667Y-113590557D01*
X146357287Y-113664652D01*
X146375191Y-113674222D01*
X146410929Y-113703552D01*
X146512386Y-113786814D01*
X146595648Y-113888271D01*
X146624978Y-113924009D01*
X146624979Y-113924011D01*
X146708643Y-114080533D01*
X146708643Y-114080534D01*
X146760163Y-114250373D01*
X146777559Y-114427000D01*
X146760163Y-114603627D01*
X146725816Y-114716853D01*
X146708643Y-114773467D01*
X146634548Y-114912087D01*
X146624978Y-114929991D01*
X146595648Y-114965729D01*
X146512386Y-115067186D01*
X146410929Y-115150448D01*
X146375191Y-115179778D01*
X146375189Y-115179779D01*
X146218667Y-115263443D01*
X146165961Y-115279431D01*
X146048827Y-115314963D01*
X145982642Y-115321482D01*
X145916460Y-115328000D01*
X145827940Y-115328000D01*
X145761758Y-115321482D01*
X145695573Y-115314963D01*
X145578439Y-115279431D01*
X145525733Y-115263443D01*
X145369211Y-115179779D01*
X145369209Y-115179778D01*
X145333471Y-115150448D01*
X145232014Y-115067186D01*
X145148752Y-114965729D01*
X145119422Y-114929991D01*
X145109852Y-114912087D01*
X145035757Y-114773467D01*
X145018584Y-114716853D01*
X144984237Y-114603627D01*
X144966841Y-114427000D01*
X144984237Y-114250373D01*
X145035757Y-114080534D01*
X145035757Y-114080533D01*
X145119421Y-113924011D01*
X145119422Y-113924009D01*
X145148752Y-113888271D01*
X145232014Y-113786814D01*
X145333471Y-113703552D01*
X145369209Y-113674222D01*
X145387113Y-113664652D01*
X145525733Y-113590557D01*
X145582347Y-113573384D01*
X145695573Y-113539037D01*
X145761757Y-113532519D01*
X145827940Y-113526000D01*
X145916460Y-113526000D01*
X145982643Y-113532519D01*
X145982643Y-113532519D01*
G37*
G36*
X135822643Y-113532519D02*
X135888827Y-113539037D01*
X136002053Y-113573384D01*
X136058667Y-113590557D01*
X136197287Y-113664652D01*
X136215191Y-113674222D01*
X136250929Y-113703552D01*
X136352386Y-113786814D01*
X136435648Y-113888271D01*
X136464978Y-113924009D01*
X136464979Y-113924011D01*
X136548643Y-114080533D01*
X136548643Y-114080534D01*
X136600163Y-114250373D01*
X136617559Y-114427000D01*
X136600163Y-114603627D01*
X136565816Y-114716853D01*
X136548643Y-114773467D01*
X136474548Y-114912087D01*
X136464978Y-114929991D01*
X136435648Y-114965729D01*
X136352386Y-115067186D01*
X136250929Y-115150448D01*
X136215191Y-115179778D01*
X136215189Y-115179779D01*
X136058667Y-115263443D01*
X136005961Y-115279431D01*
X135888827Y-115314963D01*
X135822642Y-115321482D01*
X135756460Y-115328000D01*
X135667940Y-115328000D01*
X135601758Y-115321482D01*
X135535573Y-115314963D01*
X135418439Y-115279431D01*
X135365733Y-115263443D01*
X135209211Y-115179779D01*
X135209209Y-115179778D01*
X135173471Y-115150448D01*
X135072014Y-115067186D01*
X134988752Y-114965729D01*
X134959422Y-114929991D01*
X134949852Y-114912087D01*
X134875757Y-114773467D01*
X134858584Y-114716853D01*
X134824237Y-114603627D01*
X134806841Y-114427000D01*
X134824237Y-114250373D01*
X134875757Y-114080534D01*
X134875757Y-114080533D01*
X134959421Y-113924011D01*
X134959422Y-113924009D01*
X134988752Y-113888271D01*
X135072014Y-113786814D01*
X135173471Y-113703552D01*
X135209209Y-113674222D01*
X135227113Y-113664652D01*
X135365733Y-113590557D01*
X135422347Y-113573384D01*
X135535573Y-113539037D01*
X135601757Y-113532519D01*
X135667940Y-113526000D01*
X135756460Y-113526000D01*
X135822643Y-113532519D01*
X135822643Y-113532519D01*
G37*
G36*
X154393200Y-115328000D02*
X152591200Y-115328000D01*
X152591200Y-113526000D01*
X154393200Y-113526000D01*
X154393200Y-115328000D01*
X154393200Y-115328000D01*
G37*
G36*
X151062643Y-113532519D02*
X151128827Y-113539037D01*
X151242053Y-113573384D01*
X151298667Y-113590557D01*
X151437287Y-113664652D01*
X151455191Y-113674222D01*
X151490929Y-113703552D01*
X151592386Y-113786814D01*
X151675648Y-113888271D01*
X151704978Y-113924009D01*
X151704979Y-113924011D01*
X151788643Y-114080533D01*
X151788643Y-114080534D01*
X151840163Y-114250373D01*
X151857559Y-114427000D01*
X151840163Y-114603627D01*
X151805816Y-114716853D01*
X151788643Y-114773467D01*
X151714548Y-114912087D01*
X151704978Y-114929991D01*
X151675648Y-114965729D01*
X151592386Y-115067186D01*
X151490929Y-115150448D01*
X151455191Y-115179778D01*
X151455189Y-115179779D01*
X151298667Y-115263443D01*
X151245961Y-115279431D01*
X151128827Y-115314963D01*
X151062642Y-115321482D01*
X150996460Y-115328000D01*
X150907940Y-115328000D01*
X150841758Y-115321482D01*
X150775573Y-115314963D01*
X150658439Y-115279431D01*
X150605733Y-115263443D01*
X150449211Y-115179779D01*
X150449209Y-115179778D01*
X150413471Y-115150448D01*
X150312014Y-115067186D01*
X150228752Y-114965729D01*
X150199422Y-114929991D01*
X150189852Y-114912087D01*
X150115757Y-114773467D01*
X150098584Y-114716853D01*
X150064237Y-114603627D01*
X150046841Y-114427000D01*
X150064237Y-114250373D01*
X150115757Y-114080534D01*
X150115757Y-114080533D01*
X150199421Y-113924011D01*
X150199422Y-113924009D01*
X150228752Y-113888271D01*
X150312014Y-113786814D01*
X150413471Y-113703552D01*
X150449209Y-113674222D01*
X150467113Y-113664652D01*
X150605733Y-113590557D01*
X150662347Y-113573384D01*
X150775573Y-113539037D01*
X150841757Y-113532519D01*
X150907940Y-113526000D01*
X150996460Y-113526000D01*
X151062643Y-113532519D01*
X151062643Y-113532519D01*
G37*
G36*
X148522643Y-113532519D02*
X148588827Y-113539037D01*
X148702053Y-113573384D01*
X148758667Y-113590557D01*
X148897287Y-113664652D01*
X148915191Y-113674222D01*
X148950929Y-113703552D01*
X149052386Y-113786814D01*
X149135648Y-113888271D01*
X149164978Y-113924009D01*
X149164979Y-113924011D01*
X149248643Y-114080533D01*
X149248643Y-114080534D01*
X149300163Y-114250373D01*
X149317559Y-114427000D01*
X149300163Y-114603627D01*
X149265816Y-114716853D01*
X149248643Y-114773467D01*
X149174548Y-114912087D01*
X149164978Y-114929991D01*
X149135648Y-114965729D01*
X149052386Y-115067186D01*
X148950929Y-115150448D01*
X148915191Y-115179778D01*
X148915189Y-115179779D01*
X148758667Y-115263443D01*
X148705961Y-115279431D01*
X148588827Y-115314963D01*
X148522642Y-115321482D01*
X148456460Y-115328000D01*
X148367940Y-115328000D01*
X148301758Y-115321482D01*
X148235573Y-115314963D01*
X148118439Y-115279431D01*
X148065733Y-115263443D01*
X147909211Y-115179779D01*
X147909209Y-115179778D01*
X147873471Y-115150448D01*
X147772014Y-115067186D01*
X147688752Y-114965729D01*
X147659422Y-114929991D01*
X147649852Y-114912087D01*
X147575757Y-114773467D01*
X147558584Y-114716853D01*
X147524237Y-114603627D01*
X147506841Y-114427000D01*
X147524237Y-114250373D01*
X147575757Y-114080534D01*
X147575757Y-114080533D01*
X147659421Y-113924011D01*
X147659422Y-113924009D01*
X147688752Y-113888271D01*
X147772014Y-113786814D01*
X147873471Y-113703552D01*
X147909209Y-113674222D01*
X147927113Y-113664652D01*
X148065733Y-113590557D01*
X148122347Y-113573384D01*
X148235573Y-113539037D01*
X148301757Y-113532519D01*
X148367940Y-113526000D01*
X148456460Y-113526000D01*
X148522643Y-113532519D01*
X148522643Y-113532519D01*
G37*
G36*
X143442643Y-113532519D02*
X143508827Y-113539037D01*
X143622053Y-113573384D01*
X143678667Y-113590557D01*
X143817287Y-113664652D01*
X143835191Y-113674222D01*
X143870929Y-113703552D01*
X143972386Y-113786814D01*
X144055648Y-113888271D01*
X144084978Y-113924009D01*
X144084979Y-113924011D01*
X144168643Y-114080533D01*
X144168643Y-114080534D01*
X144220163Y-114250373D01*
X144237559Y-114427000D01*
X144220163Y-114603627D01*
X144185816Y-114716853D01*
X144168643Y-114773467D01*
X144094548Y-114912087D01*
X144084978Y-114929991D01*
X144055648Y-114965729D01*
X143972386Y-115067186D01*
X143870929Y-115150448D01*
X143835191Y-115179778D01*
X143835189Y-115179779D01*
X143678667Y-115263443D01*
X143625961Y-115279431D01*
X143508827Y-115314963D01*
X143442642Y-115321482D01*
X143376460Y-115328000D01*
X143287940Y-115328000D01*
X143221758Y-115321482D01*
X143155573Y-115314963D01*
X143038439Y-115279431D01*
X142985733Y-115263443D01*
X142829211Y-115179779D01*
X142829209Y-115179778D01*
X142793471Y-115150448D01*
X142692014Y-115067186D01*
X142608752Y-114965729D01*
X142579422Y-114929991D01*
X142569852Y-114912087D01*
X142495757Y-114773467D01*
X142478584Y-114716853D01*
X142444237Y-114603627D01*
X142426841Y-114427000D01*
X142444237Y-114250373D01*
X142495757Y-114080534D01*
X142495757Y-114080533D01*
X142579421Y-113924011D01*
X142579422Y-113924009D01*
X142608752Y-113888271D01*
X142692014Y-113786814D01*
X142793471Y-113703552D01*
X142829209Y-113674222D01*
X142847113Y-113664652D01*
X142985733Y-113590557D01*
X143042347Y-113573384D01*
X143155573Y-113539037D01*
X143221757Y-113532519D01*
X143287940Y-113526000D01*
X143376460Y-113526000D01*
X143442643Y-113532519D01*
X143442643Y-113532519D01*
G37*
G36*
X140902643Y-113532519D02*
X140968827Y-113539037D01*
X141082053Y-113573384D01*
X141138667Y-113590557D01*
X141277287Y-113664652D01*
X141295191Y-113674222D01*
X141330929Y-113703552D01*
X141432386Y-113786814D01*
X141515648Y-113888271D01*
X141544978Y-113924009D01*
X141544979Y-113924011D01*
X141628643Y-114080533D01*
X141628643Y-114080534D01*
X141680163Y-114250373D01*
X141697559Y-114427000D01*
X141680163Y-114603627D01*
X141645816Y-114716853D01*
X141628643Y-114773467D01*
X141554548Y-114912087D01*
X141544978Y-114929991D01*
X141515648Y-114965729D01*
X141432386Y-115067186D01*
X141330929Y-115150448D01*
X141295191Y-115179778D01*
X141295189Y-115179779D01*
X141138667Y-115263443D01*
X141085961Y-115279431D01*
X140968827Y-115314963D01*
X140902642Y-115321482D01*
X140836460Y-115328000D01*
X140747940Y-115328000D01*
X140681758Y-115321482D01*
X140615573Y-115314963D01*
X140498439Y-115279431D01*
X140445733Y-115263443D01*
X140289211Y-115179779D01*
X140289209Y-115179778D01*
X140253471Y-115150448D01*
X140152014Y-115067186D01*
X140068752Y-114965729D01*
X140039422Y-114929991D01*
X140029852Y-114912087D01*
X139955757Y-114773467D01*
X139938584Y-114716853D01*
X139904237Y-114603627D01*
X139886841Y-114427000D01*
X139904237Y-114250373D01*
X139955757Y-114080534D01*
X139955757Y-114080533D01*
X140039421Y-113924011D01*
X140039422Y-113924009D01*
X140068752Y-113888271D01*
X140152014Y-113786814D01*
X140253471Y-113703552D01*
X140289209Y-113674222D01*
X140307113Y-113664652D01*
X140445733Y-113590557D01*
X140502347Y-113573384D01*
X140615573Y-113539037D01*
X140681757Y-113532519D01*
X140747940Y-113526000D01*
X140836460Y-113526000D01*
X140902643Y-113532519D01*
X140902643Y-113532519D01*
G37*
G36*
X138362643Y-113532519D02*
X138428827Y-113539037D01*
X138542053Y-113573384D01*
X138598667Y-113590557D01*
X138737287Y-113664652D01*
X138755191Y-113674222D01*
X138790929Y-113703552D01*
X138892386Y-113786814D01*
X138975648Y-113888271D01*
X139004978Y-113924009D01*
X139004979Y-113924011D01*
X139088643Y-114080533D01*
X139088643Y-114080534D01*
X139140163Y-114250373D01*
X139157559Y-114427000D01*
X139140163Y-114603627D01*
X139105816Y-114716853D01*
X139088643Y-114773467D01*
X139014548Y-114912087D01*
X139004978Y-114929991D01*
X138975648Y-114965729D01*
X138892386Y-115067186D01*
X138790929Y-115150448D01*
X138755191Y-115179778D01*
X138755189Y-115179779D01*
X138598667Y-115263443D01*
X138545961Y-115279431D01*
X138428827Y-115314963D01*
X138362642Y-115321482D01*
X138296460Y-115328000D01*
X138207940Y-115328000D01*
X138141758Y-115321482D01*
X138075573Y-115314963D01*
X137958439Y-115279431D01*
X137905733Y-115263443D01*
X137749211Y-115179779D01*
X137749209Y-115179778D01*
X137713471Y-115150448D01*
X137612014Y-115067186D01*
X137528752Y-114965729D01*
X137499422Y-114929991D01*
X137489852Y-114912087D01*
X137415757Y-114773467D01*
X137398584Y-114716853D01*
X137364237Y-114603627D01*
X137346841Y-114427000D01*
X137364237Y-114250373D01*
X137415757Y-114080534D01*
X137415757Y-114080533D01*
X137499421Y-113924011D01*
X137499422Y-113924009D01*
X137528752Y-113888271D01*
X137612014Y-113786814D01*
X137713471Y-113703552D01*
X137749209Y-113674222D01*
X137767113Y-113664652D01*
X137905733Y-113590557D01*
X137962347Y-113573384D01*
X138075573Y-113539037D01*
X138141757Y-113532519D01*
X138207940Y-113526000D01*
X138296460Y-113526000D01*
X138362643Y-113532519D01*
X138362643Y-113532519D01*
G37*
G36*
X160529240Y-115183560D02*
X159427240Y-115183560D01*
X159427240Y-114381560D01*
X160529240Y-114381560D01*
X160529240Y-115183560D01*
X160529240Y-115183560D01*
G37*
G36*
X156578317Y-113009905D02*
X156616004Y-113021338D01*
X156650743Y-113039906D01*
X156681188Y-113064892D01*
X156706174Y-113095337D01*
X156724742Y-113130076D01*
X156736175Y-113167763D01*
X156740640Y-113213101D01*
X156740640Y-114299779D01*
X156736175Y-114345117D01*
X156724742Y-114382804D01*
X156706174Y-114417543D01*
X156681188Y-114447988D01*
X156650743Y-114472974D01*
X156616004Y-114491542D01*
X156578317Y-114502975D01*
X156532979Y-114507440D01*
X155696301Y-114507440D01*
X155650963Y-114502975D01*
X155613276Y-114491542D01*
X155578537Y-114472974D01*
X155548092Y-114447988D01*
X155523106Y-114417543D01*
X155504538Y-114382804D01*
X155493105Y-114345117D01*
X155488640Y-114299779D01*
X155488640Y-113213101D01*
X155493105Y-113167763D01*
X155504538Y-113130076D01*
X155523106Y-113095337D01*
X155548092Y-113064892D01*
X155578537Y-113039906D01*
X155613276Y-113021338D01*
X155650963Y-113009905D01*
X155696301Y-113005440D01*
X156532979Y-113005440D01*
X156578317Y-113009905D01*
X156578317Y-113009905D01*
G37*
G36*
X158628317Y-113009905D02*
X158666004Y-113021338D01*
X158700743Y-113039906D01*
X158731188Y-113064892D01*
X158756174Y-113095337D01*
X158774742Y-113130076D01*
X158786175Y-113167763D01*
X158790640Y-113213101D01*
X158790640Y-114299779D01*
X158786175Y-114345117D01*
X158774742Y-114382804D01*
X158756174Y-114417543D01*
X158731188Y-114447988D01*
X158700743Y-114472974D01*
X158666004Y-114491542D01*
X158628317Y-114502975D01*
X158582979Y-114507440D01*
X157746301Y-114507440D01*
X157700963Y-114502975D01*
X157663276Y-114491542D01*
X157628537Y-114472974D01*
X157598092Y-114447988D01*
X157573106Y-114417543D01*
X157554538Y-114382804D01*
X157543105Y-114345117D01*
X157538640Y-114299779D01*
X157538640Y-113213101D01*
X157543105Y-113167763D01*
X157554538Y-113130076D01*
X157573106Y-113095337D01*
X157598092Y-113064892D01*
X157628537Y-113039906D01*
X157663276Y-113021338D01*
X157700963Y-113009905D01*
X157746301Y-113005440D01*
X158582979Y-113005440D01*
X158628317Y-113009905D01*
X158628317Y-113009905D01*
G37*
G36*
X158500477Y-110845205D02*
X158538164Y-110856638D01*
X158572903Y-110875206D01*
X158603348Y-110900192D01*
X158628334Y-110930637D01*
X158646902Y-110965376D01*
X158658335Y-111003063D01*
X158662800Y-111048401D01*
X158662800Y-111885079D01*
X158658335Y-111930417D01*
X158646902Y-111968104D01*
X158628334Y-112002843D01*
X158603348Y-112033288D01*
X158572903Y-112058274D01*
X158538164Y-112076842D01*
X158500477Y-112088275D01*
X158455139Y-112092740D01*
X157368461Y-112092740D01*
X157323123Y-112088275D01*
X157285436Y-112076842D01*
X157250697Y-112058274D01*
X157220252Y-112033288D01*
X157195266Y-112002843D01*
X157176698Y-111968104D01*
X157165265Y-111930417D01*
X157160800Y-111885079D01*
X157160800Y-111048401D01*
X157165265Y-111003063D01*
X157176698Y-110965376D01*
X157195266Y-110930637D01*
X157220252Y-110900192D01*
X157250697Y-110875206D01*
X157285436Y-110856638D01*
X157323123Y-110845205D01*
X157368461Y-110840740D01*
X158455139Y-110840740D01*
X158500477Y-110845205D01*
X158500477Y-110845205D01*
G37*
G36*
X163248876Y-109369806D02*
X163421946Y-109441494D01*
X163577710Y-109545572D01*
X163710168Y-109678030D01*
X163814246Y-109833794D01*
X163885934Y-110006864D01*
X163922480Y-110190593D01*
X163922480Y-110377927D01*
X163885934Y-110561656D01*
X163814246Y-110734726D01*
X163710168Y-110890490D01*
X163577710Y-111022948D01*
X163421946Y-111127026D01*
X163248876Y-111198714D01*
X163065147Y-111235260D01*
X162877813Y-111235260D01*
X162694084Y-111198714D01*
X162521014Y-111127026D01*
X162365250Y-111022948D01*
X162232792Y-110890490D01*
X162128714Y-110734726D01*
X162057026Y-110561656D01*
X162020480Y-110377927D01*
X162020480Y-110190593D01*
X162057026Y-110006864D01*
X162128714Y-109833794D01*
X162232792Y-109678030D01*
X162365250Y-109545572D01*
X162521014Y-109441494D01*
X162694084Y-109369806D01*
X162877813Y-109333260D01*
X163065147Y-109333260D01*
X163248876Y-109369806D01*
X163248876Y-109369806D01*
G37*
G36*
X161382480Y-111235260D02*
X159480480Y-111235260D01*
X159480480Y-109333260D01*
X161382480Y-109333260D01*
X161382480Y-111235260D01*
X161382480Y-111235260D01*
G37*
G36*
X139983162Y-109143398D02*
X140049347Y-109149917D01*
X140162573Y-109184264D01*
X140219187Y-109201437D01*
X140357807Y-109275532D01*
X140375711Y-109285102D01*
X140411449Y-109314432D01*
X140512906Y-109397694D01*
X140596168Y-109499151D01*
X140625498Y-109534889D01*
X140625499Y-109534891D01*
X140709163Y-109691413D01*
X140715850Y-109713458D01*
X140760683Y-109861253D01*
X140778079Y-110037880D01*
X140760683Y-110214507D01*
X140726336Y-110327733D01*
X140709163Y-110384347D01*
X140635068Y-110522967D01*
X140625498Y-110540871D01*
X140608440Y-110561656D01*
X140512906Y-110678066D01*
X140443863Y-110734727D01*
X140375711Y-110790658D01*
X140375709Y-110790659D01*
X140219187Y-110874323D01*
X140162573Y-110891496D01*
X140049347Y-110925843D01*
X139983162Y-110932362D01*
X139916980Y-110938880D01*
X139828460Y-110938880D01*
X139762278Y-110932362D01*
X139696093Y-110925843D01*
X139582867Y-110891496D01*
X139526253Y-110874323D01*
X139369731Y-110790659D01*
X139369729Y-110790658D01*
X139301577Y-110734727D01*
X139232534Y-110678066D01*
X139137000Y-110561656D01*
X139119942Y-110540871D01*
X139110372Y-110522967D01*
X139036277Y-110384347D01*
X139019104Y-110327733D01*
X138984757Y-110214507D01*
X138967361Y-110037880D01*
X138984757Y-109861253D01*
X139029590Y-109713458D01*
X139036277Y-109691413D01*
X139119941Y-109534891D01*
X139119942Y-109534889D01*
X139149272Y-109499151D01*
X139232534Y-109397694D01*
X139333991Y-109314432D01*
X139369729Y-109285102D01*
X139387633Y-109275532D01*
X139526253Y-109201437D01*
X139582867Y-109184264D01*
X139696093Y-109149917D01*
X139762278Y-109143398D01*
X139828460Y-109136880D01*
X139916980Y-109136880D01*
X139983162Y-109143398D01*
X139983162Y-109143398D01*
G37*
G36*
X132363162Y-109143398D02*
X132429347Y-109149917D01*
X132542573Y-109184264D01*
X132599187Y-109201437D01*
X132737807Y-109275532D01*
X132755711Y-109285102D01*
X132791449Y-109314432D01*
X132892906Y-109397694D01*
X132976168Y-109499151D01*
X133005498Y-109534889D01*
X133005499Y-109534891D01*
X133089163Y-109691413D01*
X133095850Y-109713458D01*
X133140683Y-109861253D01*
X133158079Y-110037880D01*
X133140683Y-110214507D01*
X133106336Y-110327733D01*
X133089163Y-110384347D01*
X133015068Y-110522967D01*
X133005498Y-110540871D01*
X132988440Y-110561656D01*
X132892906Y-110678066D01*
X132823863Y-110734727D01*
X132755711Y-110790658D01*
X132755709Y-110790659D01*
X132599187Y-110874323D01*
X132542573Y-110891496D01*
X132429347Y-110925843D01*
X132363162Y-110932362D01*
X132296980Y-110938880D01*
X132208460Y-110938880D01*
X132142278Y-110932362D01*
X132076093Y-110925843D01*
X131962867Y-110891496D01*
X131906253Y-110874323D01*
X131749731Y-110790659D01*
X131749729Y-110790658D01*
X131681577Y-110734727D01*
X131612534Y-110678066D01*
X131517000Y-110561656D01*
X131499942Y-110540871D01*
X131490372Y-110522967D01*
X131416277Y-110384347D01*
X131399104Y-110327733D01*
X131364757Y-110214507D01*
X131347361Y-110037880D01*
X131364757Y-109861253D01*
X131409590Y-109713458D01*
X131416277Y-109691413D01*
X131499941Y-109534891D01*
X131499942Y-109534889D01*
X131529272Y-109499151D01*
X131612534Y-109397694D01*
X131713991Y-109314432D01*
X131749729Y-109285102D01*
X131767633Y-109275532D01*
X131906253Y-109201437D01*
X131962867Y-109184264D01*
X132076093Y-109149917D01*
X132142278Y-109143398D01*
X132208460Y-109136880D01*
X132296980Y-109136880D01*
X132363162Y-109143398D01*
X132363162Y-109143398D01*
G37*
G36*
X134903162Y-109143398D02*
X134969347Y-109149917D01*
X135082573Y-109184264D01*
X135139187Y-109201437D01*
X135277807Y-109275532D01*
X135295711Y-109285102D01*
X135331449Y-109314432D01*
X135432906Y-109397694D01*
X135516168Y-109499151D01*
X135545498Y-109534889D01*
X135545499Y-109534891D01*
X135629163Y-109691413D01*
X135635850Y-109713458D01*
X135680683Y-109861253D01*
X135698079Y-110037880D01*
X135680683Y-110214507D01*
X135646336Y-110327733D01*
X135629163Y-110384347D01*
X135555068Y-110522967D01*
X135545498Y-110540871D01*
X135528440Y-110561656D01*
X135432906Y-110678066D01*
X135363863Y-110734727D01*
X135295711Y-110790658D01*
X135295709Y-110790659D01*
X135139187Y-110874323D01*
X135082573Y-110891496D01*
X134969347Y-110925843D01*
X134903162Y-110932362D01*
X134836980Y-110938880D01*
X134748460Y-110938880D01*
X134682278Y-110932362D01*
X134616093Y-110925843D01*
X134502867Y-110891496D01*
X134446253Y-110874323D01*
X134289731Y-110790659D01*
X134289729Y-110790658D01*
X134221577Y-110734727D01*
X134152534Y-110678066D01*
X134057000Y-110561656D01*
X134039942Y-110540871D01*
X134030372Y-110522967D01*
X133956277Y-110384347D01*
X133939104Y-110327733D01*
X133904757Y-110214507D01*
X133887361Y-110037880D01*
X133904757Y-109861253D01*
X133949590Y-109713458D01*
X133956277Y-109691413D01*
X134039941Y-109534891D01*
X134039942Y-109534889D01*
X134069272Y-109499151D01*
X134152534Y-109397694D01*
X134253991Y-109314432D01*
X134289729Y-109285102D01*
X134307633Y-109275532D01*
X134446253Y-109201437D01*
X134502867Y-109184264D01*
X134616093Y-109149917D01*
X134682278Y-109143398D01*
X134748460Y-109136880D01*
X134836980Y-109136880D01*
X134903162Y-109143398D01*
X134903162Y-109143398D01*
G37*
G36*
X137443162Y-109143398D02*
X137509347Y-109149917D01*
X137622573Y-109184264D01*
X137679187Y-109201437D01*
X137817807Y-109275532D01*
X137835711Y-109285102D01*
X137871449Y-109314432D01*
X137972906Y-109397694D01*
X138056168Y-109499151D01*
X138085498Y-109534889D01*
X138085499Y-109534891D01*
X138169163Y-109691413D01*
X138175850Y-109713458D01*
X138220683Y-109861253D01*
X138238079Y-110037880D01*
X138220683Y-110214507D01*
X138186336Y-110327733D01*
X138169163Y-110384347D01*
X138095068Y-110522967D01*
X138085498Y-110540871D01*
X138068440Y-110561656D01*
X137972906Y-110678066D01*
X137903863Y-110734727D01*
X137835711Y-110790658D01*
X137835709Y-110790659D01*
X137679187Y-110874323D01*
X137622573Y-110891496D01*
X137509347Y-110925843D01*
X137443162Y-110932362D01*
X137376980Y-110938880D01*
X137288460Y-110938880D01*
X137222278Y-110932362D01*
X137156093Y-110925843D01*
X137042867Y-110891496D01*
X136986253Y-110874323D01*
X136829731Y-110790659D01*
X136829729Y-110790658D01*
X136761577Y-110734727D01*
X136692534Y-110678066D01*
X136597000Y-110561656D01*
X136579942Y-110540871D01*
X136570372Y-110522967D01*
X136496277Y-110384347D01*
X136479104Y-110327733D01*
X136444757Y-110214507D01*
X136427361Y-110037880D01*
X136444757Y-109861253D01*
X136489590Y-109713458D01*
X136496277Y-109691413D01*
X136579941Y-109534891D01*
X136579942Y-109534889D01*
X136609272Y-109499151D01*
X136692534Y-109397694D01*
X136793991Y-109314432D01*
X136829729Y-109285102D01*
X136847633Y-109275532D01*
X136986253Y-109201437D01*
X137042867Y-109184264D01*
X137156093Y-109149917D01*
X137222278Y-109143398D01*
X137288460Y-109136880D01*
X137376980Y-109136880D01*
X137443162Y-109143398D01*
X137443162Y-109143398D01*
G37*
G36*
X129823162Y-109143398D02*
X129889347Y-109149917D01*
X130002573Y-109184264D01*
X130059187Y-109201437D01*
X130197807Y-109275532D01*
X130215711Y-109285102D01*
X130251449Y-109314432D01*
X130352906Y-109397694D01*
X130436168Y-109499151D01*
X130465498Y-109534889D01*
X130465499Y-109534891D01*
X130549163Y-109691413D01*
X130555850Y-109713458D01*
X130600683Y-109861253D01*
X130618079Y-110037880D01*
X130600683Y-110214507D01*
X130566336Y-110327733D01*
X130549163Y-110384347D01*
X130475068Y-110522967D01*
X130465498Y-110540871D01*
X130448440Y-110561656D01*
X130352906Y-110678066D01*
X130283863Y-110734727D01*
X130215711Y-110790658D01*
X130215709Y-110790659D01*
X130059187Y-110874323D01*
X130002573Y-110891496D01*
X129889347Y-110925843D01*
X129823162Y-110932362D01*
X129756980Y-110938880D01*
X129668460Y-110938880D01*
X129602278Y-110932362D01*
X129536093Y-110925843D01*
X129422867Y-110891496D01*
X129366253Y-110874323D01*
X129209731Y-110790659D01*
X129209729Y-110790658D01*
X129141577Y-110734727D01*
X129072534Y-110678066D01*
X128977000Y-110561656D01*
X128959942Y-110540871D01*
X128950372Y-110522967D01*
X128876277Y-110384347D01*
X128859104Y-110327733D01*
X128824757Y-110214507D01*
X128807361Y-110037880D01*
X128824757Y-109861253D01*
X128869590Y-109713458D01*
X128876277Y-109691413D01*
X128959941Y-109534891D01*
X128959942Y-109534889D01*
X128989272Y-109499151D01*
X129072534Y-109397694D01*
X129173991Y-109314432D01*
X129209729Y-109285102D01*
X129227633Y-109275532D01*
X129366253Y-109201437D01*
X129422867Y-109184264D01*
X129536093Y-109149917D01*
X129602278Y-109143398D01*
X129668460Y-109136880D01*
X129756980Y-109136880D01*
X129823162Y-109143398D01*
X129823162Y-109143398D01*
G37*
G36*
X128073720Y-110938880D02*
X126271720Y-110938880D01*
X126271720Y-109136880D01*
X128073720Y-109136880D01*
X128073720Y-110938880D01*
X128073720Y-110938880D01*
G37*
G36*
X158500477Y-108795205D02*
X158538164Y-108806638D01*
X158572903Y-108825206D01*
X158603348Y-108850192D01*
X158628334Y-108880637D01*
X158646902Y-108915376D01*
X158658335Y-108953063D01*
X158662800Y-108998401D01*
X158662800Y-109835079D01*
X158658335Y-109880417D01*
X158646902Y-109918104D01*
X158628334Y-109952843D01*
X158603348Y-109983288D01*
X158572903Y-110008274D01*
X158538164Y-110026842D01*
X158500477Y-110038275D01*
X158455139Y-110042740D01*
X157368461Y-110042740D01*
X157323123Y-110038275D01*
X157285436Y-110026842D01*
X157250697Y-110008274D01*
X157220252Y-109983288D01*
X157195266Y-109952843D01*
X157176698Y-109918104D01*
X157165265Y-109880417D01*
X157160800Y-109835079D01*
X157160800Y-108998401D01*
X157165265Y-108953063D01*
X157176698Y-108915376D01*
X157195266Y-108880637D01*
X157220252Y-108850192D01*
X157250697Y-108825206D01*
X157285436Y-108806638D01*
X157323123Y-108795205D01*
X157368461Y-108790740D01*
X158455139Y-108790740D01*
X158500477Y-108795205D01*
X158500477Y-108795205D01*
G37*
G36*
X151132336Y-107625733D02*
X151132338Y-107625734D01*
X151132339Y-107625734D01*
X151210279Y-107658018D01*
X151350908Y-107716268D01*
X151438080Y-107774515D01*
X151547613Y-107847702D01*
X151714898Y-108014987D01*
X151780391Y-108113004D01*
X151846332Y-108211692D01*
X151936867Y-108430264D01*
X151983020Y-108662290D01*
X151983020Y-108898870D01*
X151950390Y-109062913D01*
X151936866Y-109130899D01*
X151928988Y-109149917D01*
X151846332Y-109349468D01*
X151784842Y-109441494D01*
X151714898Y-109546173D01*
X151547613Y-109713458D01*
X151462143Y-109770567D01*
X151350908Y-109844892D01*
X151213076Y-109901983D01*
X151132339Y-109935426D01*
X151132338Y-109935426D01*
X151132336Y-109935427D01*
X150900310Y-109981580D01*
X150663730Y-109981580D01*
X150431704Y-109935427D01*
X150431702Y-109935426D01*
X150431701Y-109935426D01*
X150350964Y-109901983D01*
X150213132Y-109844892D01*
X150101897Y-109770567D01*
X150016427Y-109713458D01*
X149849142Y-109546173D01*
X149779198Y-109441494D01*
X149717708Y-109349468D01*
X149635052Y-109149917D01*
X149627174Y-109130899D01*
X149613651Y-109062913D01*
X149581020Y-108898870D01*
X149581020Y-108662290D01*
X149627173Y-108430264D01*
X149717708Y-108211692D01*
X149783649Y-108113004D01*
X149849142Y-108014987D01*
X150016427Y-107847702D01*
X150125960Y-107774515D01*
X150213132Y-107716268D01*
X150353761Y-107658018D01*
X150431701Y-107625734D01*
X150431702Y-107625734D01*
X150431704Y-107625733D01*
X150663730Y-107579580D01*
X150900310Y-107579580D01*
X151132336Y-107625733D01*
X151132336Y-107625733D01*
G37*
G36*
X146232336Y-107625733D02*
X146232338Y-107625734D01*
X146232339Y-107625734D01*
X146310279Y-107658018D01*
X146450908Y-107716268D01*
X146538080Y-107774515D01*
X146647613Y-107847702D01*
X146814898Y-108014987D01*
X146880391Y-108113004D01*
X146946332Y-108211692D01*
X147036867Y-108430264D01*
X147083020Y-108662290D01*
X147083020Y-108898870D01*
X147050390Y-109062913D01*
X147036866Y-109130899D01*
X147028988Y-109149917D01*
X146946332Y-109349468D01*
X146884842Y-109441494D01*
X146814898Y-109546173D01*
X146647613Y-109713458D01*
X146562143Y-109770567D01*
X146450908Y-109844892D01*
X146313076Y-109901983D01*
X146232339Y-109935426D01*
X146232338Y-109935426D01*
X146232336Y-109935427D01*
X146000310Y-109981580D01*
X145763730Y-109981580D01*
X145531704Y-109935427D01*
X145531702Y-109935426D01*
X145531701Y-109935426D01*
X145450964Y-109901983D01*
X145313132Y-109844892D01*
X145201897Y-109770567D01*
X145116427Y-109713458D01*
X144949142Y-109546173D01*
X144879198Y-109441494D01*
X144817708Y-109349468D01*
X144735052Y-109149917D01*
X144727174Y-109130899D01*
X144713651Y-109062913D01*
X144681020Y-108898870D01*
X144681020Y-108662290D01*
X144727173Y-108430264D01*
X144817708Y-108211692D01*
X144883649Y-108113004D01*
X144949142Y-108014987D01*
X145116427Y-107847702D01*
X145225960Y-107774515D01*
X145313132Y-107716268D01*
X145453761Y-107658018D01*
X145531701Y-107625734D01*
X145531702Y-107625734D01*
X145531704Y-107625733D01*
X145763730Y-107579580D01*
X146000310Y-107579580D01*
X146232336Y-107625733D01*
X146232336Y-107625733D01*
G37*
G36*
X126646248Y-106189363D02*
X126801120Y-106253513D01*
X126940501Y-106346645D01*
X127059035Y-106465179D01*
X127152167Y-106604560D01*
X127216317Y-106759432D01*
X127249020Y-106923844D01*
X127249020Y-107091476D01*
X127216317Y-107255888D01*
X127152167Y-107410760D01*
X127059035Y-107550141D01*
X126940501Y-107668675D01*
X126801120Y-107761807D01*
X126646248Y-107825957D01*
X126481836Y-107858660D01*
X126314204Y-107858660D01*
X126149792Y-107825957D01*
X125994920Y-107761807D01*
X125855539Y-107668675D01*
X125737005Y-107550141D01*
X125643873Y-107410760D01*
X125579723Y-107255888D01*
X125547020Y-107091476D01*
X125547020Y-106923844D01*
X125579723Y-106759432D01*
X125643873Y-106604560D01*
X125737005Y-106465179D01*
X125855539Y-106346645D01*
X125994920Y-106253513D01*
X126149792Y-106189363D01*
X126314204Y-106156660D01*
X126481836Y-106156660D01*
X126646248Y-106189363D01*
X126646248Y-106189363D01*
G37*
G36*
X129146248Y-106189363D02*
X129301120Y-106253513D01*
X129440501Y-106346645D01*
X129559035Y-106465179D01*
X129652167Y-106604560D01*
X129716317Y-106759432D01*
X129749020Y-106923844D01*
X129749020Y-107091476D01*
X129716317Y-107255888D01*
X129652167Y-107410760D01*
X129559035Y-107550141D01*
X129440501Y-107668675D01*
X129301120Y-107761807D01*
X129146248Y-107825957D01*
X128981836Y-107858660D01*
X128814204Y-107858660D01*
X128649792Y-107825957D01*
X128494920Y-107761807D01*
X128355539Y-107668675D01*
X128237005Y-107550141D01*
X128143873Y-107410760D01*
X128079723Y-107255888D01*
X128047020Y-107091476D01*
X128047020Y-106923844D01*
X128079723Y-106759432D01*
X128143873Y-106604560D01*
X128237005Y-106465179D01*
X128355539Y-106346645D01*
X128494920Y-106253513D01*
X128649792Y-106189363D01*
X128814204Y-106156660D01*
X128981836Y-106156660D01*
X129146248Y-106189363D01*
X129146248Y-106189363D01*
G37*
G36*
X138759508Y-106141103D02*
X138914380Y-106205253D01*
X139053761Y-106298385D01*
X139172295Y-106416919D01*
X139265427Y-106556300D01*
X139329577Y-106711172D01*
X139362280Y-106875584D01*
X139362280Y-107043216D01*
X139329577Y-107207628D01*
X139265427Y-107362500D01*
X139172295Y-107501881D01*
X139053761Y-107620415D01*
X138914380Y-107713547D01*
X138759508Y-107777697D01*
X138595096Y-107810400D01*
X138427464Y-107810400D01*
X138263052Y-107777697D01*
X138108180Y-107713547D01*
X137968799Y-107620415D01*
X137850265Y-107501881D01*
X137757133Y-107362500D01*
X137692983Y-107207628D01*
X137660280Y-107043216D01*
X137660280Y-106875584D01*
X137692983Y-106711172D01*
X137757133Y-106556300D01*
X137850265Y-106416919D01*
X137968799Y-106298385D01*
X138108180Y-106205253D01*
X138263052Y-106141103D01*
X138427464Y-106108400D01*
X138595096Y-106108400D01*
X138759508Y-106141103D01*
X138759508Y-106141103D01*
G37*
G36*
X141259508Y-106141103D02*
X141414380Y-106205253D01*
X141553761Y-106298385D01*
X141672295Y-106416919D01*
X141765427Y-106556300D01*
X141829577Y-106711172D01*
X141862280Y-106875584D01*
X141862280Y-107043216D01*
X141829577Y-107207628D01*
X141765427Y-107362500D01*
X141672295Y-107501881D01*
X141553761Y-107620415D01*
X141414380Y-107713547D01*
X141259508Y-107777697D01*
X141095096Y-107810400D01*
X140927464Y-107810400D01*
X140763052Y-107777697D01*
X140608180Y-107713547D01*
X140468799Y-107620415D01*
X140350265Y-107501881D01*
X140257133Y-107362500D01*
X140192983Y-107207628D01*
X140160280Y-107043216D01*
X140160280Y-106875584D01*
X140192983Y-106711172D01*
X140257133Y-106556300D01*
X140350265Y-106416919D01*
X140468799Y-106298385D01*
X140608180Y-106205253D01*
X140763052Y-106141103D01*
X140927464Y-106108400D01*
X141095096Y-106108400D01*
X141259508Y-106141103D01*
X141259508Y-106141103D01*
G37*
G36*
X155896248Y-106130943D02*
X156051120Y-106195093D01*
X156190501Y-106288225D01*
X156309035Y-106406759D01*
X156402167Y-106546140D01*
X156466317Y-106701012D01*
X156499020Y-106865424D01*
X156499020Y-107033056D01*
X156466317Y-107197468D01*
X156402167Y-107352340D01*
X156309035Y-107491721D01*
X156190501Y-107610255D01*
X156051120Y-107703387D01*
X155896248Y-107767537D01*
X155731836Y-107800240D01*
X155564204Y-107800240D01*
X155399792Y-107767537D01*
X155244920Y-107703387D01*
X155105539Y-107610255D01*
X154987005Y-107491721D01*
X154893873Y-107352340D01*
X154829723Y-107197468D01*
X154797020Y-107033056D01*
X154797020Y-106865424D01*
X154829723Y-106701012D01*
X154893873Y-106546140D01*
X154987005Y-106406759D01*
X155105539Y-106288225D01*
X155244920Y-106195093D01*
X155399792Y-106130943D01*
X155564204Y-106098240D01*
X155731836Y-106098240D01*
X155896248Y-106130943D01*
X155896248Y-106130943D01*
G37*
G36*
X158396248Y-106130943D02*
X158551120Y-106195093D01*
X158690501Y-106288225D01*
X158809035Y-106406759D01*
X158902167Y-106546140D01*
X158966317Y-106701012D01*
X158999020Y-106865424D01*
X158999020Y-107033056D01*
X158966317Y-107197468D01*
X158902167Y-107352340D01*
X158809035Y-107491721D01*
X158690501Y-107610255D01*
X158551120Y-107703387D01*
X158396248Y-107767537D01*
X158231836Y-107800240D01*
X158064204Y-107800240D01*
X157899792Y-107767537D01*
X157744920Y-107703387D01*
X157605539Y-107610255D01*
X157487005Y-107491721D01*
X157393873Y-107352340D01*
X157329723Y-107197468D01*
X157297020Y-107033056D01*
X157297020Y-106865424D01*
X157329723Y-106701012D01*
X157393873Y-106546140D01*
X157487005Y-106406759D01*
X157605539Y-106288225D01*
X157744920Y-106195093D01*
X157899792Y-106130943D01*
X158064204Y-106098240D01*
X158231836Y-106098240D01*
X158396248Y-106130943D01*
X158396248Y-106130943D01*
G37*
G36*
X133456917Y-106281445D02*
X133494604Y-106292878D01*
X133529343Y-106311446D01*
X133559788Y-106336432D01*
X133584774Y-106366877D01*
X133603342Y-106401616D01*
X133614775Y-106439303D01*
X133619240Y-106484641D01*
X133619240Y-107571319D01*
X133614775Y-107616657D01*
X133603342Y-107654344D01*
X133584774Y-107689083D01*
X133559788Y-107719528D01*
X133529343Y-107744514D01*
X133494604Y-107763082D01*
X133456917Y-107774515D01*
X133411579Y-107778980D01*
X132574901Y-107778980D01*
X132529563Y-107774515D01*
X132491876Y-107763082D01*
X132457137Y-107744514D01*
X132426692Y-107719528D01*
X132401706Y-107689083D01*
X132383138Y-107654344D01*
X132371705Y-107616657D01*
X132367240Y-107571319D01*
X132367240Y-106484641D01*
X132371705Y-106439303D01*
X132383138Y-106401616D01*
X132401706Y-106366877D01*
X132426692Y-106336432D01*
X132457137Y-106311446D01*
X132491876Y-106292878D01*
X132529563Y-106281445D01*
X132574901Y-106276980D01*
X133411579Y-106276980D01*
X133456917Y-106281445D01*
X133456917Y-106281445D01*
G37*
G36*
X131406917Y-106281445D02*
X131444604Y-106292878D01*
X131479343Y-106311446D01*
X131509788Y-106336432D01*
X131534774Y-106366877D01*
X131553342Y-106401616D01*
X131564775Y-106439303D01*
X131569240Y-106484641D01*
X131569240Y-107571319D01*
X131564775Y-107616657D01*
X131553342Y-107654344D01*
X131534774Y-107689083D01*
X131509788Y-107719528D01*
X131479343Y-107744514D01*
X131444604Y-107763082D01*
X131406917Y-107774515D01*
X131361579Y-107778980D01*
X130524901Y-107778980D01*
X130479563Y-107774515D01*
X130441876Y-107763082D01*
X130407137Y-107744514D01*
X130376692Y-107719528D01*
X130351706Y-107689083D01*
X130333138Y-107654344D01*
X130321705Y-107616657D01*
X130317240Y-107571319D01*
X130317240Y-106484641D01*
X130321705Y-106439303D01*
X130333138Y-106401616D01*
X130351706Y-106366877D01*
X130376692Y-106336432D01*
X130407137Y-106311446D01*
X130441876Y-106292878D01*
X130479563Y-106281445D01*
X130524901Y-106276980D01*
X131361579Y-106276980D01*
X131406917Y-106281445D01*
X131406917Y-106281445D01*
G37*
G36*
X160275721Y-103682313D02*
X160275724Y-103682314D01*
X160275725Y-103682314D01*
X160436139Y-103730975D01*
X160436141Y-103730976D01*
X160436144Y-103730977D01*
X160583978Y-103809995D01*
X160713559Y-103916341D01*
X160819905Y-104045922D01*
X160898923Y-104193756D01*
X160947587Y-104354179D01*
X160964017Y-104521000D01*
X160947587Y-104687821D01*
X160898923Y-104848244D01*
X160819905Y-104996078D01*
X160713559Y-105125659D01*
X160583978Y-105232005D01*
X160436144Y-105311023D01*
X160436141Y-105311024D01*
X160436139Y-105311025D01*
X160275725Y-105359686D01*
X160275724Y-105359686D01*
X160275721Y-105359687D01*
X160150704Y-105372000D01*
X160067096Y-105372000D01*
X159942079Y-105359687D01*
X159942076Y-105359686D01*
X159942075Y-105359686D01*
X159781661Y-105311025D01*
X159781659Y-105311024D01*
X159781656Y-105311023D01*
X159633822Y-105232005D01*
X159504241Y-105125659D01*
X159397895Y-104996078D01*
X159318877Y-104848244D01*
X159270213Y-104687821D01*
X159253783Y-104521000D01*
X159270213Y-104354179D01*
X159318877Y-104193756D01*
X159397895Y-104045922D01*
X159504241Y-103916341D01*
X159633822Y-103809995D01*
X159781656Y-103730977D01*
X159781659Y-103730976D01*
X159781661Y-103730975D01*
X159942075Y-103682314D01*
X159942076Y-103682314D01*
X159942079Y-103682313D01*
X160067096Y-103670000D01*
X160150704Y-103670000D01*
X160275721Y-103682313D01*
X160275721Y-103682313D01*
G37*
G36*
X157735721Y-103682313D02*
X157735724Y-103682314D01*
X157735725Y-103682314D01*
X157896139Y-103730975D01*
X157896141Y-103730976D01*
X157896144Y-103730977D01*
X158043978Y-103809995D01*
X158173559Y-103916341D01*
X158279905Y-104045922D01*
X158358923Y-104193756D01*
X158407587Y-104354179D01*
X158424017Y-104521000D01*
X158407587Y-104687821D01*
X158358923Y-104848244D01*
X158279905Y-104996078D01*
X158173559Y-105125659D01*
X158043978Y-105232005D01*
X157896144Y-105311023D01*
X157896141Y-105311024D01*
X157896139Y-105311025D01*
X157735725Y-105359686D01*
X157735724Y-105359686D01*
X157735721Y-105359687D01*
X157610704Y-105372000D01*
X157527096Y-105372000D01*
X157402079Y-105359687D01*
X157402076Y-105359686D01*
X157402075Y-105359686D01*
X157241661Y-105311025D01*
X157241659Y-105311024D01*
X157241656Y-105311023D01*
X157093822Y-105232005D01*
X156964241Y-105125659D01*
X156857895Y-104996078D01*
X156778877Y-104848244D01*
X156730213Y-104687821D01*
X156713783Y-104521000D01*
X156730213Y-104354179D01*
X156778877Y-104193756D01*
X156857895Y-104045922D01*
X156964241Y-103916341D01*
X157093822Y-103809995D01*
X157241656Y-103730977D01*
X157241659Y-103730976D01*
X157241661Y-103730975D01*
X157402075Y-103682314D01*
X157402076Y-103682314D01*
X157402079Y-103682313D01*
X157527096Y-103670000D01*
X157610704Y-103670000D01*
X157735721Y-103682313D01*
X157735721Y-103682313D01*
G37*
G36*
X155195721Y-103682313D02*
X155195724Y-103682314D01*
X155195725Y-103682314D01*
X155356139Y-103730975D01*
X155356141Y-103730976D01*
X155356144Y-103730977D01*
X155503978Y-103809995D01*
X155633559Y-103916341D01*
X155739905Y-104045922D01*
X155818923Y-104193756D01*
X155867587Y-104354179D01*
X155884017Y-104521000D01*
X155867587Y-104687821D01*
X155818923Y-104848244D01*
X155739905Y-104996078D01*
X155633559Y-105125659D01*
X155503978Y-105232005D01*
X155356144Y-105311023D01*
X155356141Y-105311024D01*
X155356139Y-105311025D01*
X155195725Y-105359686D01*
X155195724Y-105359686D01*
X155195721Y-105359687D01*
X155070704Y-105372000D01*
X154987096Y-105372000D01*
X154862079Y-105359687D01*
X154862076Y-105359686D01*
X154862075Y-105359686D01*
X154701661Y-105311025D01*
X154701659Y-105311024D01*
X154701656Y-105311023D01*
X154553822Y-105232005D01*
X154424241Y-105125659D01*
X154317895Y-104996078D01*
X154238877Y-104848244D01*
X154190213Y-104687821D01*
X154173783Y-104521000D01*
X154190213Y-104354179D01*
X154238877Y-104193756D01*
X154317895Y-104045922D01*
X154424241Y-103916341D01*
X154553822Y-103809995D01*
X154701656Y-103730977D01*
X154701659Y-103730976D01*
X154701661Y-103730975D01*
X154862075Y-103682314D01*
X154862076Y-103682314D01*
X154862079Y-103682313D01*
X154987096Y-103670000D01*
X155070704Y-103670000D01*
X155195721Y-103682313D01*
X155195721Y-103682313D01*
G37*
G36*
X152655721Y-103682313D02*
X152655724Y-103682314D01*
X152655725Y-103682314D01*
X152816139Y-103730975D01*
X152816141Y-103730976D01*
X152816144Y-103730977D01*
X152963978Y-103809995D01*
X153093559Y-103916341D01*
X153199905Y-104045922D01*
X153278923Y-104193756D01*
X153327587Y-104354179D01*
X153344017Y-104521000D01*
X153327587Y-104687821D01*
X153278923Y-104848244D01*
X153199905Y-104996078D01*
X153093559Y-105125659D01*
X152963978Y-105232005D01*
X152816144Y-105311023D01*
X152816141Y-105311024D01*
X152816139Y-105311025D01*
X152655725Y-105359686D01*
X152655724Y-105359686D01*
X152655721Y-105359687D01*
X152530704Y-105372000D01*
X152447096Y-105372000D01*
X152322079Y-105359687D01*
X152322076Y-105359686D01*
X152322075Y-105359686D01*
X152161661Y-105311025D01*
X152161659Y-105311024D01*
X152161656Y-105311023D01*
X152013822Y-105232005D01*
X151884241Y-105125659D01*
X151777895Y-104996078D01*
X151698877Y-104848244D01*
X151650213Y-104687821D01*
X151633783Y-104521000D01*
X151650213Y-104354179D01*
X151698877Y-104193756D01*
X151777895Y-104045922D01*
X151884241Y-103916341D01*
X152013822Y-103809995D01*
X152161656Y-103730977D01*
X152161659Y-103730976D01*
X152161661Y-103730975D01*
X152322075Y-103682314D01*
X152322076Y-103682314D01*
X152322079Y-103682313D01*
X152447096Y-103670000D01*
X152530704Y-103670000D01*
X152655721Y-103682313D01*
X152655721Y-103682313D01*
G37*
G36*
X150115721Y-103682313D02*
X150115724Y-103682314D01*
X150115725Y-103682314D01*
X150276139Y-103730975D01*
X150276141Y-103730976D01*
X150276144Y-103730977D01*
X150423978Y-103809995D01*
X150553559Y-103916341D01*
X150659905Y-104045922D01*
X150738923Y-104193756D01*
X150787587Y-104354179D01*
X150804017Y-104521000D01*
X150787587Y-104687821D01*
X150738923Y-104848244D01*
X150659905Y-104996078D01*
X150553559Y-105125659D01*
X150423978Y-105232005D01*
X150276144Y-105311023D01*
X150276141Y-105311024D01*
X150276139Y-105311025D01*
X150115725Y-105359686D01*
X150115724Y-105359686D01*
X150115721Y-105359687D01*
X149990704Y-105372000D01*
X149907096Y-105372000D01*
X149782079Y-105359687D01*
X149782076Y-105359686D01*
X149782075Y-105359686D01*
X149621661Y-105311025D01*
X149621659Y-105311024D01*
X149621656Y-105311023D01*
X149473822Y-105232005D01*
X149344241Y-105125659D01*
X149237895Y-104996078D01*
X149158877Y-104848244D01*
X149110213Y-104687821D01*
X149093783Y-104521000D01*
X149110213Y-104354179D01*
X149158877Y-104193756D01*
X149237895Y-104045922D01*
X149344241Y-103916341D01*
X149473822Y-103809995D01*
X149621656Y-103730977D01*
X149621659Y-103730976D01*
X149621661Y-103730975D01*
X149782075Y-103682314D01*
X149782076Y-103682314D01*
X149782079Y-103682313D01*
X149907096Y-103670000D01*
X149990704Y-103670000D01*
X150115721Y-103682313D01*
X150115721Y-103682313D01*
G37*
G36*
X127939900Y-105372000D02*
X126237900Y-105372000D01*
X126237900Y-103670000D01*
X127939900Y-103670000D01*
X127939900Y-105372000D01*
X127939900Y-105372000D01*
G37*
G36*
X129795721Y-103682313D02*
X129795724Y-103682314D01*
X129795725Y-103682314D01*
X129956139Y-103730975D01*
X129956141Y-103730976D01*
X129956144Y-103730977D01*
X130103978Y-103809995D01*
X130233559Y-103916341D01*
X130339905Y-104045922D01*
X130418923Y-104193756D01*
X130467587Y-104354179D01*
X130484017Y-104521000D01*
X130467587Y-104687821D01*
X130418923Y-104848244D01*
X130339905Y-104996078D01*
X130233559Y-105125659D01*
X130103978Y-105232005D01*
X129956144Y-105311023D01*
X129956141Y-105311024D01*
X129956139Y-105311025D01*
X129795725Y-105359686D01*
X129795724Y-105359686D01*
X129795721Y-105359687D01*
X129670704Y-105372000D01*
X129587096Y-105372000D01*
X129462079Y-105359687D01*
X129462076Y-105359686D01*
X129462075Y-105359686D01*
X129301661Y-105311025D01*
X129301659Y-105311024D01*
X129301656Y-105311023D01*
X129153822Y-105232005D01*
X129024241Y-105125659D01*
X128917895Y-104996078D01*
X128838877Y-104848244D01*
X128790213Y-104687821D01*
X128773783Y-104521000D01*
X128790213Y-104354179D01*
X128838877Y-104193756D01*
X128917895Y-104045922D01*
X129024241Y-103916341D01*
X129153822Y-103809995D01*
X129301656Y-103730977D01*
X129301659Y-103730976D01*
X129301661Y-103730975D01*
X129462075Y-103682314D01*
X129462076Y-103682314D01*
X129462079Y-103682313D01*
X129587096Y-103670000D01*
X129670704Y-103670000D01*
X129795721Y-103682313D01*
X129795721Y-103682313D01*
G37*
G36*
X134875721Y-103682313D02*
X134875724Y-103682314D01*
X134875725Y-103682314D01*
X135036139Y-103730975D01*
X135036141Y-103730976D01*
X135036144Y-103730977D01*
X135183978Y-103809995D01*
X135313559Y-103916341D01*
X135419905Y-104045922D01*
X135498923Y-104193756D01*
X135547587Y-104354179D01*
X135564017Y-104521000D01*
X135547587Y-104687821D01*
X135498923Y-104848244D01*
X135419905Y-104996078D01*
X135313559Y-105125659D01*
X135183978Y-105232005D01*
X135036144Y-105311023D01*
X135036141Y-105311024D01*
X135036139Y-105311025D01*
X134875725Y-105359686D01*
X134875724Y-105359686D01*
X134875721Y-105359687D01*
X134750704Y-105372000D01*
X134667096Y-105372000D01*
X134542079Y-105359687D01*
X134542076Y-105359686D01*
X134542075Y-105359686D01*
X134381661Y-105311025D01*
X134381659Y-105311024D01*
X134381656Y-105311023D01*
X134233822Y-105232005D01*
X134104241Y-105125659D01*
X133997895Y-104996078D01*
X133918877Y-104848244D01*
X133870213Y-104687821D01*
X133853783Y-104521000D01*
X133870213Y-104354179D01*
X133918877Y-104193756D01*
X133997895Y-104045922D01*
X134104241Y-103916341D01*
X134233822Y-103809995D01*
X134381656Y-103730977D01*
X134381659Y-103730976D01*
X134381661Y-103730975D01*
X134542075Y-103682314D01*
X134542076Y-103682314D01*
X134542079Y-103682313D01*
X134667096Y-103670000D01*
X134750704Y-103670000D01*
X134875721Y-103682313D01*
X134875721Y-103682313D01*
G37*
G36*
X145035721Y-103682313D02*
X145035724Y-103682314D01*
X145035725Y-103682314D01*
X145196139Y-103730975D01*
X145196141Y-103730976D01*
X145196144Y-103730977D01*
X145343978Y-103809995D01*
X145473559Y-103916341D01*
X145579905Y-104045922D01*
X145658923Y-104193756D01*
X145707587Y-104354179D01*
X145724017Y-104521000D01*
X145707587Y-104687821D01*
X145658923Y-104848244D01*
X145579905Y-104996078D01*
X145473559Y-105125659D01*
X145343978Y-105232005D01*
X145196144Y-105311023D01*
X145196141Y-105311024D01*
X145196139Y-105311025D01*
X145035725Y-105359686D01*
X145035724Y-105359686D01*
X145035721Y-105359687D01*
X144910704Y-105372000D01*
X144827096Y-105372000D01*
X144702079Y-105359687D01*
X144702076Y-105359686D01*
X144702075Y-105359686D01*
X144541661Y-105311025D01*
X144541659Y-105311024D01*
X144541656Y-105311023D01*
X144393822Y-105232005D01*
X144264241Y-105125659D01*
X144157895Y-104996078D01*
X144078877Y-104848244D01*
X144030213Y-104687821D01*
X144013783Y-104521000D01*
X144030213Y-104354179D01*
X144078877Y-104193756D01*
X144157895Y-104045922D01*
X144264241Y-103916341D01*
X144393822Y-103809995D01*
X144541656Y-103730977D01*
X144541659Y-103730976D01*
X144541661Y-103730975D01*
X144702075Y-103682314D01*
X144702076Y-103682314D01*
X144702079Y-103682313D01*
X144827096Y-103670000D01*
X144910704Y-103670000D01*
X145035721Y-103682313D01*
X145035721Y-103682313D01*
G37*
G36*
X147575721Y-103682313D02*
X147575724Y-103682314D01*
X147575725Y-103682314D01*
X147736139Y-103730975D01*
X147736141Y-103730976D01*
X147736144Y-103730977D01*
X147883978Y-103809995D01*
X148013559Y-103916341D01*
X148119905Y-104045922D01*
X148198923Y-104193756D01*
X148247587Y-104354179D01*
X148264017Y-104521000D01*
X148247587Y-104687821D01*
X148198923Y-104848244D01*
X148119905Y-104996078D01*
X148013559Y-105125659D01*
X147883978Y-105232005D01*
X147736144Y-105311023D01*
X147736141Y-105311024D01*
X147736139Y-105311025D01*
X147575725Y-105359686D01*
X147575724Y-105359686D01*
X147575721Y-105359687D01*
X147450704Y-105372000D01*
X147367096Y-105372000D01*
X147242079Y-105359687D01*
X147242076Y-105359686D01*
X147242075Y-105359686D01*
X147081661Y-105311025D01*
X147081659Y-105311024D01*
X147081656Y-105311023D01*
X146933822Y-105232005D01*
X146804241Y-105125659D01*
X146697895Y-104996078D01*
X146618877Y-104848244D01*
X146570213Y-104687821D01*
X146553783Y-104521000D01*
X146570213Y-104354179D01*
X146618877Y-104193756D01*
X146697895Y-104045922D01*
X146804241Y-103916341D01*
X146933822Y-103809995D01*
X147081656Y-103730977D01*
X147081659Y-103730976D01*
X147081661Y-103730975D01*
X147242075Y-103682314D01*
X147242076Y-103682314D01*
X147242079Y-103682313D01*
X147367096Y-103670000D01*
X147450704Y-103670000D01*
X147575721Y-103682313D01*
X147575721Y-103682313D01*
G37*
G36*
X132335721Y-103682313D02*
X132335724Y-103682314D01*
X132335725Y-103682314D01*
X132496139Y-103730975D01*
X132496141Y-103730976D01*
X132496144Y-103730977D01*
X132643978Y-103809995D01*
X132773559Y-103916341D01*
X132879905Y-104045922D01*
X132958923Y-104193756D01*
X133007587Y-104354179D01*
X133024017Y-104521000D01*
X133007587Y-104687821D01*
X132958923Y-104848244D01*
X132879905Y-104996078D01*
X132773559Y-105125659D01*
X132643978Y-105232005D01*
X132496144Y-105311023D01*
X132496141Y-105311024D01*
X132496139Y-105311025D01*
X132335725Y-105359686D01*
X132335724Y-105359686D01*
X132335721Y-105359687D01*
X132210704Y-105372000D01*
X132127096Y-105372000D01*
X132002079Y-105359687D01*
X132002076Y-105359686D01*
X132002075Y-105359686D01*
X131841661Y-105311025D01*
X131841659Y-105311024D01*
X131841656Y-105311023D01*
X131693822Y-105232005D01*
X131564241Y-105125659D01*
X131457895Y-104996078D01*
X131378877Y-104848244D01*
X131330213Y-104687821D01*
X131313783Y-104521000D01*
X131330213Y-104354179D01*
X131378877Y-104193756D01*
X131457895Y-104045922D01*
X131564241Y-103916341D01*
X131693822Y-103809995D01*
X131841656Y-103730977D01*
X131841659Y-103730976D01*
X131841661Y-103730975D01*
X132002075Y-103682314D01*
X132002076Y-103682314D01*
X132002079Y-103682313D01*
X132127096Y-103670000D01*
X132210704Y-103670000D01*
X132335721Y-103682313D01*
X132335721Y-103682313D01*
G37*
G36*
X139955721Y-103682313D02*
X139955724Y-103682314D01*
X139955725Y-103682314D01*
X140116139Y-103730975D01*
X140116141Y-103730976D01*
X140116144Y-103730977D01*
X140263978Y-103809995D01*
X140393559Y-103916341D01*
X140499905Y-104045922D01*
X140578923Y-104193756D01*
X140627587Y-104354179D01*
X140644017Y-104521000D01*
X140627587Y-104687821D01*
X140578923Y-104848244D01*
X140499905Y-104996078D01*
X140393559Y-105125659D01*
X140263978Y-105232005D01*
X140116144Y-105311023D01*
X140116141Y-105311024D01*
X140116139Y-105311025D01*
X139955725Y-105359686D01*
X139955724Y-105359686D01*
X139955721Y-105359687D01*
X139830704Y-105372000D01*
X139747096Y-105372000D01*
X139622079Y-105359687D01*
X139622076Y-105359686D01*
X139622075Y-105359686D01*
X139461661Y-105311025D01*
X139461659Y-105311024D01*
X139461656Y-105311023D01*
X139313822Y-105232005D01*
X139184241Y-105125659D01*
X139077895Y-104996078D01*
X138998877Y-104848244D01*
X138950213Y-104687821D01*
X138933783Y-104521000D01*
X138950213Y-104354179D01*
X138998877Y-104193756D01*
X139077895Y-104045922D01*
X139184241Y-103916341D01*
X139313822Y-103809995D01*
X139461656Y-103730977D01*
X139461659Y-103730976D01*
X139461661Y-103730975D01*
X139622075Y-103682314D01*
X139622076Y-103682314D01*
X139622079Y-103682313D01*
X139747096Y-103670000D01*
X139830704Y-103670000D01*
X139955721Y-103682313D01*
X139955721Y-103682313D01*
G37*
G36*
X142495721Y-103682313D02*
X142495724Y-103682314D01*
X142495725Y-103682314D01*
X142656139Y-103730975D01*
X142656141Y-103730976D01*
X142656144Y-103730977D01*
X142803978Y-103809995D01*
X142933559Y-103916341D01*
X143039905Y-104045922D01*
X143118923Y-104193756D01*
X143167587Y-104354179D01*
X143184017Y-104521000D01*
X143167587Y-104687821D01*
X143118923Y-104848244D01*
X143039905Y-104996078D01*
X142933559Y-105125659D01*
X142803978Y-105232005D01*
X142656144Y-105311023D01*
X142656141Y-105311024D01*
X142656139Y-105311025D01*
X142495725Y-105359686D01*
X142495724Y-105359686D01*
X142495721Y-105359687D01*
X142370704Y-105372000D01*
X142287096Y-105372000D01*
X142162079Y-105359687D01*
X142162076Y-105359686D01*
X142162075Y-105359686D01*
X142001661Y-105311025D01*
X142001659Y-105311024D01*
X142001656Y-105311023D01*
X141853822Y-105232005D01*
X141724241Y-105125659D01*
X141617895Y-104996078D01*
X141538877Y-104848244D01*
X141490213Y-104687821D01*
X141473783Y-104521000D01*
X141490213Y-104354179D01*
X141538877Y-104193756D01*
X141617895Y-104045922D01*
X141724241Y-103916341D01*
X141853822Y-103809995D01*
X142001656Y-103730977D01*
X142001659Y-103730976D01*
X142001661Y-103730975D01*
X142162075Y-103682314D01*
X142162076Y-103682314D01*
X142162079Y-103682313D01*
X142287096Y-103670000D01*
X142370704Y-103670000D01*
X142495721Y-103682313D01*
X142495721Y-103682313D01*
G37*
G36*
X137415721Y-103682313D02*
X137415724Y-103682314D01*
X137415725Y-103682314D01*
X137576139Y-103730975D01*
X137576141Y-103730976D01*
X137576144Y-103730977D01*
X137723978Y-103809995D01*
X137853559Y-103916341D01*
X137959905Y-104045922D01*
X138038923Y-104193756D01*
X138087587Y-104354179D01*
X138104017Y-104521000D01*
X138087587Y-104687821D01*
X138038923Y-104848244D01*
X137959905Y-104996078D01*
X137853559Y-105125659D01*
X137723978Y-105232005D01*
X137576144Y-105311023D01*
X137576141Y-105311024D01*
X137576139Y-105311025D01*
X137415725Y-105359686D01*
X137415724Y-105359686D01*
X137415721Y-105359687D01*
X137290704Y-105372000D01*
X137207096Y-105372000D01*
X137082079Y-105359687D01*
X137082076Y-105359686D01*
X137082075Y-105359686D01*
X136921661Y-105311025D01*
X136921659Y-105311024D01*
X136921656Y-105311023D01*
X136773822Y-105232005D01*
X136644241Y-105125659D01*
X136537895Y-104996078D01*
X136458877Y-104848244D01*
X136410213Y-104687821D01*
X136393783Y-104521000D01*
X136410213Y-104354179D01*
X136458877Y-104193756D01*
X136537895Y-104045922D01*
X136644241Y-103916341D01*
X136773822Y-103809995D01*
X136921656Y-103730977D01*
X136921659Y-103730976D01*
X136921661Y-103730975D01*
X137082075Y-103682314D01*
X137082076Y-103682314D01*
X137082079Y-103682313D01*
X137207096Y-103670000D01*
X137290704Y-103670000D01*
X137415721Y-103682313D01*
X137415721Y-103682313D01*
G37*
G36*
X155195721Y-96062313D02*
X155195724Y-96062314D01*
X155195725Y-96062314D01*
X155356139Y-96110975D01*
X155356141Y-96110976D01*
X155356144Y-96110977D01*
X155503978Y-96189995D01*
X155633559Y-96296341D01*
X155739905Y-96425922D01*
X155818923Y-96573756D01*
X155867587Y-96734179D01*
X155884017Y-96901000D01*
X155867587Y-97067821D01*
X155818923Y-97228244D01*
X155739905Y-97376078D01*
X155633559Y-97505659D01*
X155503978Y-97612005D01*
X155356144Y-97691023D01*
X155356141Y-97691024D01*
X155356139Y-97691025D01*
X155195725Y-97739686D01*
X155195724Y-97739686D01*
X155195721Y-97739687D01*
X155070704Y-97752000D01*
X154987096Y-97752000D01*
X154862079Y-97739687D01*
X154862076Y-97739686D01*
X154862075Y-97739686D01*
X154701661Y-97691025D01*
X154701659Y-97691024D01*
X154701656Y-97691023D01*
X154553822Y-97612005D01*
X154424241Y-97505659D01*
X154317895Y-97376078D01*
X154238877Y-97228244D01*
X154190213Y-97067821D01*
X154173783Y-96901000D01*
X154190213Y-96734179D01*
X154238877Y-96573756D01*
X154317895Y-96425922D01*
X154424241Y-96296341D01*
X154553822Y-96189995D01*
X154701656Y-96110977D01*
X154701659Y-96110976D01*
X154701661Y-96110975D01*
X154862075Y-96062314D01*
X154862076Y-96062314D01*
X154862079Y-96062313D01*
X154987096Y-96050000D01*
X155070704Y-96050000D01*
X155195721Y-96062313D01*
X155195721Y-96062313D01*
G37*
G36*
X137415721Y-96062313D02*
X137415724Y-96062314D01*
X137415725Y-96062314D01*
X137576139Y-96110975D01*
X137576141Y-96110976D01*
X137576144Y-96110977D01*
X137723978Y-96189995D01*
X137853559Y-96296341D01*
X137959905Y-96425922D01*
X138038923Y-96573756D01*
X138087587Y-96734179D01*
X138104017Y-96901000D01*
X138087587Y-97067821D01*
X138038923Y-97228244D01*
X137959905Y-97376078D01*
X137853559Y-97505659D01*
X137723978Y-97612005D01*
X137576144Y-97691023D01*
X137576141Y-97691024D01*
X137576139Y-97691025D01*
X137415725Y-97739686D01*
X137415724Y-97739686D01*
X137415721Y-97739687D01*
X137290704Y-97752000D01*
X137207096Y-97752000D01*
X137082079Y-97739687D01*
X137082076Y-97739686D01*
X137082075Y-97739686D01*
X136921661Y-97691025D01*
X136921659Y-97691024D01*
X136921656Y-97691023D01*
X136773822Y-97612005D01*
X136644241Y-97505659D01*
X136537895Y-97376078D01*
X136458877Y-97228244D01*
X136410213Y-97067821D01*
X136393783Y-96901000D01*
X136410213Y-96734179D01*
X136458877Y-96573756D01*
X136537895Y-96425922D01*
X136644241Y-96296341D01*
X136773822Y-96189995D01*
X136921656Y-96110977D01*
X136921659Y-96110976D01*
X136921661Y-96110975D01*
X137082075Y-96062314D01*
X137082076Y-96062314D01*
X137082079Y-96062313D01*
X137207096Y-96050000D01*
X137290704Y-96050000D01*
X137415721Y-96062313D01*
X137415721Y-96062313D01*
G37*
G36*
X132335721Y-96062313D02*
X132335724Y-96062314D01*
X132335725Y-96062314D01*
X132496139Y-96110975D01*
X132496141Y-96110976D01*
X132496144Y-96110977D01*
X132643978Y-96189995D01*
X132773559Y-96296341D01*
X132879905Y-96425922D01*
X132958923Y-96573756D01*
X133007587Y-96734179D01*
X133024017Y-96901000D01*
X133007587Y-97067821D01*
X132958923Y-97228244D01*
X132879905Y-97376078D01*
X132773559Y-97505659D01*
X132643978Y-97612005D01*
X132496144Y-97691023D01*
X132496141Y-97691024D01*
X132496139Y-97691025D01*
X132335725Y-97739686D01*
X132335724Y-97739686D01*
X132335721Y-97739687D01*
X132210704Y-97752000D01*
X132127096Y-97752000D01*
X132002079Y-97739687D01*
X132002076Y-97739686D01*
X132002075Y-97739686D01*
X131841661Y-97691025D01*
X131841659Y-97691024D01*
X131841656Y-97691023D01*
X131693822Y-97612005D01*
X131564241Y-97505659D01*
X131457895Y-97376078D01*
X131378877Y-97228244D01*
X131330213Y-97067821D01*
X131313783Y-96901000D01*
X131330213Y-96734179D01*
X131378877Y-96573756D01*
X131457895Y-96425922D01*
X131564241Y-96296341D01*
X131693822Y-96189995D01*
X131841656Y-96110977D01*
X131841659Y-96110976D01*
X131841661Y-96110975D01*
X132002075Y-96062314D01*
X132002076Y-96062314D01*
X132002079Y-96062313D01*
X132127096Y-96050000D01*
X132210704Y-96050000D01*
X132335721Y-96062313D01*
X132335721Y-96062313D01*
G37*
G36*
X145035721Y-96062313D02*
X145035724Y-96062314D01*
X145035725Y-96062314D01*
X145196139Y-96110975D01*
X145196141Y-96110976D01*
X145196144Y-96110977D01*
X145343978Y-96189995D01*
X145473559Y-96296341D01*
X145579905Y-96425922D01*
X145658923Y-96573756D01*
X145707587Y-96734179D01*
X145724017Y-96901000D01*
X145707587Y-97067821D01*
X145658923Y-97228244D01*
X145579905Y-97376078D01*
X145473559Y-97505659D01*
X145343978Y-97612005D01*
X145196144Y-97691023D01*
X145196141Y-97691024D01*
X145196139Y-97691025D01*
X145035725Y-97739686D01*
X145035724Y-97739686D01*
X145035721Y-97739687D01*
X144910704Y-97752000D01*
X144827096Y-97752000D01*
X144702079Y-97739687D01*
X144702076Y-97739686D01*
X144702075Y-97739686D01*
X144541661Y-97691025D01*
X144541659Y-97691024D01*
X144541656Y-97691023D01*
X144393822Y-97612005D01*
X144264241Y-97505659D01*
X144157895Y-97376078D01*
X144078877Y-97228244D01*
X144030213Y-97067821D01*
X144013783Y-96901000D01*
X144030213Y-96734179D01*
X144078877Y-96573756D01*
X144157895Y-96425922D01*
X144264241Y-96296341D01*
X144393822Y-96189995D01*
X144541656Y-96110977D01*
X144541659Y-96110976D01*
X144541661Y-96110975D01*
X144702075Y-96062314D01*
X144702076Y-96062314D01*
X144702079Y-96062313D01*
X144827096Y-96050000D01*
X144910704Y-96050000D01*
X145035721Y-96062313D01*
X145035721Y-96062313D01*
G37*
G36*
X142495721Y-96062313D02*
X142495724Y-96062314D01*
X142495725Y-96062314D01*
X142656139Y-96110975D01*
X142656141Y-96110976D01*
X142656144Y-96110977D01*
X142803978Y-96189995D01*
X142933559Y-96296341D01*
X143039905Y-96425922D01*
X143118923Y-96573756D01*
X143167587Y-96734179D01*
X143184017Y-96901000D01*
X143167587Y-97067821D01*
X143118923Y-97228244D01*
X143039905Y-97376078D01*
X142933559Y-97505659D01*
X142803978Y-97612005D01*
X142656144Y-97691023D01*
X142656141Y-97691024D01*
X142656139Y-97691025D01*
X142495725Y-97739686D01*
X142495724Y-97739686D01*
X142495721Y-97739687D01*
X142370704Y-97752000D01*
X142287096Y-97752000D01*
X142162079Y-97739687D01*
X142162076Y-97739686D01*
X142162075Y-97739686D01*
X142001661Y-97691025D01*
X142001659Y-97691024D01*
X142001656Y-97691023D01*
X141853822Y-97612005D01*
X141724241Y-97505659D01*
X141617895Y-97376078D01*
X141538877Y-97228244D01*
X141490213Y-97067821D01*
X141473783Y-96901000D01*
X141490213Y-96734179D01*
X141538877Y-96573756D01*
X141617895Y-96425922D01*
X141724241Y-96296341D01*
X141853822Y-96189995D01*
X142001656Y-96110977D01*
X142001659Y-96110976D01*
X142001661Y-96110975D01*
X142162075Y-96062314D01*
X142162076Y-96062314D01*
X142162079Y-96062313D01*
X142287096Y-96050000D01*
X142370704Y-96050000D01*
X142495721Y-96062313D01*
X142495721Y-96062313D01*
G37*
G36*
X147575721Y-96062313D02*
X147575724Y-96062314D01*
X147575725Y-96062314D01*
X147736139Y-96110975D01*
X147736141Y-96110976D01*
X147736144Y-96110977D01*
X147883978Y-96189995D01*
X148013559Y-96296341D01*
X148119905Y-96425922D01*
X148198923Y-96573756D01*
X148247587Y-96734179D01*
X148264017Y-96901000D01*
X148247587Y-97067821D01*
X148198923Y-97228244D01*
X148119905Y-97376078D01*
X148013559Y-97505659D01*
X147883978Y-97612005D01*
X147736144Y-97691023D01*
X147736141Y-97691024D01*
X147736139Y-97691025D01*
X147575725Y-97739686D01*
X147575724Y-97739686D01*
X147575721Y-97739687D01*
X147450704Y-97752000D01*
X147367096Y-97752000D01*
X147242079Y-97739687D01*
X147242076Y-97739686D01*
X147242075Y-97739686D01*
X147081661Y-97691025D01*
X147081659Y-97691024D01*
X147081656Y-97691023D01*
X146933822Y-97612005D01*
X146804241Y-97505659D01*
X146697895Y-97376078D01*
X146618877Y-97228244D01*
X146570213Y-97067821D01*
X146553783Y-96901000D01*
X146570213Y-96734179D01*
X146618877Y-96573756D01*
X146697895Y-96425922D01*
X146804241Y-96296341D01*
X146933822Y-96189995D01*
X147081656Y-96110977D01*
X147081659Y-96110976D01*
X147081661Y-96110975D01*
X147242075Y-96062314D01*
X147242076Y-96062314D01*
X147242079Y-96062313D01*
X147367096Y-96050000D01*
X147450704Y-96050000D01*
X147575721Y-96062313D01*
X147575721Y-96062313D01*
G37*
G36*
X150115721Y-96062313D02*
X150115724Y-96062314D01*
X150115725Y-96062314D01*
X150276139Y-96110975D01*
X150276141Y-96110976D01*
X150276144Y-96110977D01*
X150423978Y-96189995D01*
X150553559Y-96296341D01*
X150659905Y-96425922D01*
X150738923Y-96573756D01*
X150787587Y-96734179D01*
X150804017Y-96901000D01*
X150787587Y-97067821D01*
X150738923Y-97228244D01*
X150659905Y-97376078D01*
X150553559Y-97505659D01*
X150423978Y-97612005D01*
X150276144Y-97691023D01*
X150276141Y-97691024D01*
X150276139Y-97691025D01*
X150115725Y-97739686D01*
X150115724Y-97739686D01*
X150115721Y-97739687D01*
X149990704Y-97752000D01*
X149907096Y-97752000D01*
X149782079Y-97739687D01*
X149782076Y-97739686D01*
X149782075Y-97739686D01*
X149621661Y-97691025D01*
X149621659Y-97691024D01*
X149621656Y-97691023D01*
X149473822Y-97612005D01*
X149344241Y-97505659D01*
X149237895Y-97376078D01*
X149158877Y-97228244D01*
X149110213Y-97067821D01*
X149093783Y-96901000D01*
X149110213Y-96734179D01*
X149158877Y-96573756D01*
X149237895Y-96425922D01*
X149344241Y-96296341D01*
X149473822Y-96189995D01*
X149621656Y-96110977D01*
X149621659Y-96110976D01*
X149621661Y-96110975D01*
X149782075Y-96062314D01*
X149782076Y-96062314D01*
X149782079Y-96062313D01*
X149907096Y-96050000D01*
X149990704Y-96050000D01*
X150115721Y-96062313D01*
X150115721Y-96062313D01*
G37*
G36*
X152655721Y-96062313D02*
X152655724Y-96062314D01*
X152655725Y-96062314D01*
X152816139Y-96110975D01*
X152816141Y-96110976D01*
X152816144Y-96110977D01*
X152963978Y-96189995D01*
X153093559Y-96296341D01*
X153199905Y-96425922D01*
X153278923Y-96573756D01*
X153327587Y-96734179D01*
X153344017Y-96901000D01*
X153327587Y-97067821D01*
X153278923Y-97228244D01*
X153199905Y-97376078D01*
X153093559Y-97505659D01*
X152963978Y-97612005D01*
X152816144Y-97691023D01*
X152816141Y-97691024D01*
X152816139Y-97691025D01*
X152655725Y-97739686D01*
X152655724Y-97739686D01*
X152655721Y-97739687D01*
X152530704Y-97752000D01*
X152447096Y-97752000D01*
X152322079Y-97739687D01*
X152322076Y-97739686D01*
X152322075Y-97739686D01*
X152161661Y-97691025D01*
X152161659Y-97691024D01*
X152161656Y-97691023D01*
X152013822Y-97612005D01*
X151884241Y-97505659D01*
X151777895Y-97376078D01*
X151698877Y-97228244D01*
X151650213Y-97067821D01*
X151633783Y-96901000D01*
X151650213Y-96734179D01*
X151698877Y-96573756D01*
X151777895Y-96425922D01*
X151884241Y-96296341D01*
X152013822Y-96189995D01*
X152161656Y-96110977D01*
X152161659Y-96110976D01*
X152161661Y-96110975D01*
X152322075Y-96062314D01*
X152322076Y-96062314D01*
X152322079Y-96062313D01*
X152447096Y-96050000D01*
X152530704Y-96050000D01*
X152655721Y-96062313D01*
X152655721Y-96062313D01*
G37*
G36*
X127255721Y-96062313D02*
X127255724Y-96062314D01*
X127255725Y-96062314D01*
X127416139Y-96110975D01*
X127416141Y-96110976D01*
X127416144Y-96110977D01*
X127563978Y-96189995D01*
X127693559Y-96296341D01*
X127799905Y-96425922D01*
X127878923Y-96573756D01*
X127927587Y-96734179D01*
X127944017Y-96901000D01*
X127927587Y-97067821D01*
X127878923Y-97228244D01*
X127799905Y-97376078D01*
X127693559Y-97505659D01*
X127563978Y-97612005D01*
X127416144Y-97691023D01*
X127416141Y-97691024D01*
X127416139Y-97691025D01*
X127255725Y-97739686D01*
X127255724Y-97739686D01*
X127255721Y-97739687D01*
X127130704Y-97752000D01*
X127047096Y-97752000D01*
X126922079Y-97739687D01*
X126922076Y-97739686D01*
X126922075Y-97739686D01*
X126761661Y-97691025D01*
X126761659Y-97691024D01*
X126761656Y-97691023D01*
X126613822Y-97612005D01*
X126484241Y-97505659D01*
X126377895Y-97376078D01*
X126298877Y-97228244D01*
X126250213Y-97067821D01*
X126233783Y-96901000D01*
X126250213Y-96734179D01*
X126298877Y-96573756D01*
X126377895Y-96425922D01*
X126484241Y-96296341D01*
X126613822Y-96189995D01*
X126761656Y-96110977D01*
X126761659Y-96110976D01*
X126761661Y-96110975D01*
X126922075Y-96062314D01*
X126922076Y-96062314D01*
X126922079Y-96062313D01*
X127047096Y-96050000D01*
X127130704Y-96050000D01*
X127255721Y-96062313D01*
X127255721Y-96062313D01*
G37*
G36*
X129795721Y-96062313D02*
X129795724Y-96062314D01*
X129795725Y-96062314D01*
X129956139Y-96110975D01*
X129956141Y-96110976D01*
X129956144Y-96110977D01*
X130103978Y-96189995D01*
X130233559Y-96296341D01*
X130339905Y-96425922D01*
X130418923Y-96573756D01*
X130467587Y-96734179D01*
X130484017Y-96901000D01*
X130467587Y-97067821D01*
X130418923Y-97228244D01*
X130339905Y-97376078D01*
X130233559Y-97505659D01*
X130103978Y-97612005D01*
X129956144Y-97691023D01*
X129956141Y-97691024D01*
X129956139Y-97691025D01*
X129795725Y-97739686D01*
X129795724Y-97739686D01*
X129795721Y-97739687D01*
X129670704Y-97752000D01*
X129587096Y-97752000D01*
X129462079Y-97739687D01*
X129462076Y-97739686D01*
X129462075Y-97739686D01*
X129301661Y-97691025D01*
X129301659Y-97691024D01*
X129301656Y-97691023D01*
X129153822Y-97612005D01*
X129024241Y-97505659D01*
X128917895Y-97376078D01*
X128838877Y-97228244D01*
X128790213Y-97067821D01*
X128773783Y-96901000D01*
X128790213Y-96734179D01*
X128838877Y-96573756D01*
X128917895Y-96425922D01*
X129024241Y-96296341D01*
X129153822Y-96189995D01*
X129301656Y-96110977D01*
X129301659Y-96110976D01*
X129301661Y-96110975D01*
X129462075Y-96062314D01*
X129462076Y-96062314D01*
X129462079Y-96062313D01*
X129587096Y-96050000D01*
X129670704Y-96050000D01*
X129795721Y-96062313D01*
X129795721Y-96062313D01*
G37*
G36*
X160275721Y-96062313D02*
X160275724Y-96062314D01*
X160275725Y-96062314D01*
X160436139Y-96110975D01*
X160436141Y-96110976D01*
X160436144Y-96110977D01*
X160583978Y-96189995D01*
X160713559Y-96296341D01*
X160819905Y-96425922D01*
X160898923Y-96573756D01*
X160947587Y-96734179D01*
X160964017Y-96901000D01*
X160947587Y-97067821D01*
X160898923Y-97228244D01*
X160819905Y-97376078D01*
X160713559Y-97505659D01*
X160583978Y-97612005D01*
X160436144Y-97691023D01*
X160436141Y-97691024D01*
X160436139Y-97691025D01*
X160275725Y-97739686D01*
X160275724Y-97739686D01*
X160275721Y-97739687D01*
X160150704Y-97752000D01*
X160067096Y-97752000D01*
X159942079Y-97739687D01*
X159942076Y-97739686D01*
X159942075Y-97739686D01*
X159781661Y-97691025D01*
X159781659Y-97691024D01*
X159781656Y-97691023D01*
X159633822Y-97612005D01*
X159504241Y-97505659D01*
X159397895Y-97376078D01*
X159318877Y-97228244D01*
X159270213Y-97067821D01*
X159253783Y-96901000D01*
X159270213Y-96734179D01*
X159318877Y-96573756D01*
X159397895Y-96425922D01*
X159504241Y-96296341D01*
X159633822Y-96189995D01*
X159781656Y-96110977D01*
X159781659Y-96110976D01*
X159781661Y-96110975D01*
X159942075Y-96062314D01*
X159942076Y-96062314D01*
X159942079Y-96062313D01*
X160067096Y-96050000D01*
X160150704Y-96050000D01*
X160275721Y-96062313D01*
X160275721Y-96062313D01*
G37*
G36*
X157735721Y-96062313D02*
X157735724Y-96062314D01*
X157735725Y-96062314D01*
X157896139Y-96110975D01*
X157896141Y-96110976D01*
X157896144Y-96110977D01*
X158043978Y-96189995D01*
X158173559Y-96296341D01*
X158279905Y-96425922D01*
X158358923Y-96573756D01*
X158407587Y-96734179D01*
X158424017Y-96901000D01*
X158407587Y-97067821D01*
X158358923Y-97228244D01*
X158279905Y-97376078D01*
X158173559Y-97505659D01*
X158043978Y-97612005D01*
X157896144Y-97691023D01*
X157896141Y-97691024D01*
X157896139Y-97691025D01*
X157735725Y-97739686D01*
X157735724Y-97739686D01*
X157735721Y-97739687D01*
X157610704Y-97752000D01*
X157527096Y-97752000D01*
X157402079Y-97739687D01*
X157402076Y-97739686D01*
X157402075Y-97739686D01*
X157241661Y-97691025D01*
X157241659Y-97691024D01*
X157241656Y-97691023D01*
X157093822Y-97612005D01*
X156964241Y-97505659D01*
X156857895Y-97376078D01*
X156778877Y-97228244D01*
X156730213Y-97067821D01*
X156713783Y-96901000D01*
X156730213Y-96734179D01*
X156778877Y-96573756D01*
X156857895Y-96425922D01*
X156964241Y-96296341D01*
X157093822Y-96189995D01*
X157241656Y-96110977D01*
X157241659Y-96110976D01*
X157241661Y-96110975D01*
X157402075Y-96062314D01*
X157402076Y-96062314D01*
X157402079Y-96062313D01*
X157527096Y-96050000D01*
X157610704Y-96050000D01*
X157735721Y-96062313D01*
X157735721Y-96062313D01*
G37*
G36*
X139955721Y-96062313D02*
X139955724Y-96062314D01*
X139955725Y-96062314D01*
X140116139Y-96110975D01*
X140116141Y-96110976D01*
X140116144Y-96110977D01*
X140263978Y-96189995D01*
X140393559Y-96296341D01*
X140499905Y-96425922D01*
X140578923Y-96573756D01*
X140627587Y-96734179D01*
X140644017Y-96901000D01*
X140627587Y-97067821D01*
X140578923Y-97228244D01*
X140499905Y-97376078D01*
X140393559Y-97505659D01*
X140263978Y-97612005D01*
X140116144Y-97691023D01*
X140116141Y-97691024D01*
X140116139Y-97691025D01*
X139955725Y-97739686D01*
X139955724Y-97739686D01*
X139955721Y-97739687D01*
X139830704Y-97752000D01*
X139747096Y-97752000D01*
X139622079Y-97739687D01*
X139622076Y-97739686D01*
X139622075Y-97739686D01*
X139461661Y-97691025D01*
X139461659Y-97691024D01*
X139461656Y-97691023D01*
X139313822Y-97612005D01*
X139184241Y-97505659D01*
X139077895Y-97376078D01*
X138998877Y-97228244D01*
X138950213Y-97067821D01*
X138933783Y-96901000D01*
X138950213Y-96734179D01*
X138998877Y-96573756D01*
X139077895Y-96425922D01*
X139184241Y-96296341D01*
X139313822Y-96189995D01*
X139461656Y-96110977D01*
X139461659Y-96110976D01*
X139461661Y-96110975D01*
X139622075Y-96062314D01*
X139622076Y-96062314D01*
X139622079Y-96062313D01*
X139747096Y-96050000D01*
X139830704Y-96050000D01*
X139955721Y-96062313D01*
X139955721Y-96062313D01*
G37*
G36*
X134875721Y-96062313D02*
X134875724Y-96062314D01*
X134875725Y-96062314D01*
X135036139Y-96110975D01*
X135036141Y-96110976D01*
X135036144Y-96110977D01*
X135183978Y-96189995D01*
X135313559Y-96296341D01*
X135419905Y-96425922D01*
X135498923Y-96573756D01*
X135547587Y-96734179D01*
X135564017Y-96901000D01*
X135547587Y-97067821D01*
X135498923Y-97228244D01*
X135419905Y-97376078D01*
X135313559Y-97505659D01*
X135183978Y-97612005D01*
X135036144Y-97691023D01*
X135036141Y-97691024D01*
X135036139Y-97691025D01*
X134875725Y-97739686D01*
X134875724Y-97739686D01*
X134875721Y-97739687D01*
X134750704Y-97752000D01*
X134667096Y-97752000D01*
X134542079Y-97739687D01*
X134542076Y-97739686D01*
X134542075Y-97739686D01*
X134381661Y-97691025D01*
X134381659Y-97691024D01*
X134381656Y-97691023D01*
X134233822Y-97612005D01*
X134104241Y-97505659D01*
X133997895Y-97376078D01*
X133918877Y-97228244D01*
X133870213Y-97067821D01*
X133853783Y-96901000D01*
X133870213Y-96734179D01*
X133918877Y-96573756D01*
X133997895Y-96425922D01*
X134104241Y-96296341D01*
X134233822Y-96189995D01*
X134381656Y-96110977D01*
X134381659Y-96110976D01*
X134381661Y-96110975D01*
X134542075Y-96062314D01*
X134542076Y-96062314D01*
X134542079Y-96062313D01*
X134667096Y-96050000D01*
X134750704Y-96050000D01*
X134875721Y-96062313D01*
X134875721Y-96062313D01*
G37*
G36*
X145922308Y-93293783D02*
X146077180Y-93357933D01*
X146216561Y-93451065D01*
X146335095Y-93569599D01*
X146428227Y-93708980D01*
X146492377Y-93863852D01*
X146525080Y-94028264D01*
X146525080Y-94195896D01*
X146492377Y-94360308D01*
X146428227Y-94515180D01*
X146335095Y-94654561D01*
X146216561Y-94773095D01*
X146077180Y-94866227D01*
X145922308Y-94930377D01*
X145757896Y-94963080D01*
X145590264Y-94963080D01*
X145425852Y-94930377D01*
X145270980Y-94866227D01*
X145131599Y-94773095D01*
X145013065Y-94654561D01*
X144919933Y-94515180D01*
X144855783Y-94360308D01*
X144823080Y-94195896D01*
X144823080Y-94028264D01*
X144855783Y-93863852D01*
X144919933Y-93708980D01*
X145013065Y-93569599D01*
X145131599Y-93451065D01*
X145270980Y-93357933D01*
X145425852Y-93293783D01*
X145590264Y-93261080D01*
X145757896Y-93261080D01*
X145922308Y-93293783D01*
X145922308Y-93293783D01*
G37*
G36*
X143422308Y-93293783D02*
X143577180Y-93357933D01*
X143716561Y-93451065D01*
X143835095Y-93569599D01*
X143928227Y-93708980D01*
X143992377Y-93863852D01*
X144025080Y-94028264D01*
X144025080Y-94195896D01*
X143992377Y-94360308D01*
X143928227Y-94515180D01*
X143835095Y-94654561D01*
X143716561Y-94773095D01*
X143577180Y-94866227D01*
X143422308Y-94930377D01*
X143257896Y-94963080D01*
X143090264Y-94963080D01*
X142925852Y-94930377D01*
X142770980Y-94866227D01*
X142631599Y-94773095D01*
X142513065Y-94654561D01*
X142419933Y-94515180D01*
X142355783Y-94360308D01*
X142323080Y-94195896D01*
X142323080Y-94028264D01*
X142355783Y-93863852D01*
X142419933Y-93708980D01*
X142513065Y-93569599D01*
X142631599Y-93451065D01*
X142770980Y-93357933D01*
X142925852Y-93293783D01*
X143090264Y-93261080D01*
X143257896Y-93261080D01*
X143422308Y-93293783D01*
X143422308Y-93293783D01*
G37*
G36*
X137354262Y-92270178D02*
X137420447Y-92276697D01*
X137533673Y-92311044D01*
X137590287Y-92328217D01*
X137728907Y-92402312D01*
X137746811Y-92411882D01*
X137782549Y-92441212D01*
X137884006Y-92524474D01*
X137967268Y-92625931D01*
X137996598Y-92661669D01*
X137996599Y-92661671D01*
X138080263Y-92818193D01*
X138080263Y-92818194D01*
X138131783Y-92988033D01*
X138149179Y-93164660D01*
X138131783Y-93341287D01*
X138126733Y-93357934D01*
X138080263Y-93511127D01*
X138006168Y-93649747D01*
X137996598Y-93667651D01*
X137967268Y-93703389D01*
X137884006Y-93804846D01*
X137782549Y-93888108D01*
X137746811Y-93917438D01*
X137746809Y-93917439D01*
X137590287Y-94001103D01*
X137533673Y-94018276D01*
X137420447Y-94052623D01*
X137354262Y-94059142D01*
X137288080Y-94065660D01*
X137199560Y-94065660D01*
X137133377Y-94059141D01*
X137067193Y-94052623D01*
X136953967Y-94018276D01*
X136897353Y-94001103D01*
X136740831Y-93917439D01*
X136740829Y-93917438D01*
X136705091Y-93888108D01*
X136603634Y-93804846D01*
X136520372Y-93703389D01*
X136491042Y-93667651D01*
X136481472Y-93649747D01*
X136407377Y-93511127D01*
X136360907Y-93357934D01*
X136355857Y-93341287D01*
X136338461Y-93164660D01*
X136355857Y-92988033D01*
X136407377Y-92818194D01*
X136407377Y-92818193D01*
X136491041Y-92661671D01*
X136491042Y-92661669D01*
X136520372Y-92625931D01*
X136603634Y-92524474D01*
X136705091Y-92441212D01*
X136740829Y-92411882D01*
X136758733Y-92402312D01*
X136897353Y-92328217D01*
X136953967Y-92311044D01*
X137067193Y-92276697D01*
X137133377Y-92270179D01*
X137199560Y-92263660D01*
X137288080Y-92263660D01*
X137354262Y-92270178D01*
X137354262Y-92270178D01*
G37*
G36*
X140684820Y-94065660D02*
X138882820Y-94065660D01*
X138882820Y-92263660D01*
X140684820Y-92263660D01*
X140684820Y-94065660D01*
X140684820Y-94065660D01*
G37*
G36*
X134814262Y-92270178D02*
X134880447Y-92276697D01*
X134993673Y-92311044D01*
X135050287Y-92328217D01*
X135188907Y-92402312D01*
X135206811Y-92411882D01*
X135242549Y-92441212D01*
X135344006Y-92524474D01*
X135427268Y-92625931D01*
X135456598Y-92661669D01*
X135456599Y-92661671D01*
X135540263Y-92818193D01*
X135540263Y-92818194D01*
X135591783Y-92988033D01*
X135609179Y-93164660D01*
X135591783Y-93341287D01*
X135586733Y-93357934D01*
X135540263Y-93511127D01*
X135466168Y-93649747D01*
X135456598Y-93667651D01*
X135427268Y-93703389D01*
X135344006Y-93804846D01*
X135242549Y-93888108D01*
X135206811Y-93917438D01*
X135206809Y-93917439D01*
X135050287Y-94001103D01*
X134993673Y-94018276D01*
X134880447Y-94052623D01*
X134814262Y-94059142D01*
X134748080Y-94065660D01*
X134659560Y-94065660D01*
X134593377Y-94059141D01*
X134527193Y-94052623D01*
X134413967Y-94018276D01*
X134357353Y-94001103D01*
X134200831Y-93917439D01*
X134200829Y-93917438D01*
X134165091Y-93888108D01*
X134063634Y-93804846D01*
X133980372Y-93703389D01*
X133951042Y-93667651D01*
X133941472Y-93649747D01*
X133867377Y-93511127D01*
X133820907Y-93357934D01*
X133815857Y-93341287D01*
X133798461Y-93164660D01*
X133815857Y-92988033D01*
X133867377Y-92818194D01*
X133867377Y-92818193D01*
X133951041Y-92661671D01*
X133951042Y-92661669D01*
X133980372Y-92625931D01*
X134063634Y-92524474D01*
X134165091Y-92441212D01*
X134200829Y-92411882D01*
X134218733Y-92402312D01*
X134357353Y-92328217D01*
X134413967Y-92311044D01*
X134527193Y-92276697D01*
X134593378Y-92270178D01*
X134659560Y-92263660D01*
X134748080Y-92263660D01*
X134814262Y-92270178D01*
X134814262Y-92270178D01*
G37*
G36*
X127194262Y-92270178D02*
X127260447Y-92276697D01*
X127373673Y-92311044D01*
X127430287Y-92328217D01*
X127568907Y-92402312D01*
X127586811Y-92411882D01*
X127622549Y-92441212D01*
X127724006Y-92524474D01*
X127807268Y-92625931D01*
X127836598Y-92661669D01*
X127836599Y-92661671D01*
X127920263Y-92818193D01*
X127920263Y-92818194D01*
X127971783Y-92988033D01*
X127989179Y-93164660D01*
X127971783Y-93341287D01*
X127966733Y-93357934D01*
X127920263Y-93511127D01*
X127846168Y-93649747D01*
X127836598Y-93667651D01*
X127807268Y-93703389D01*
X127724006Y-93804846D01*
X127622549Y-93888108D01*
X127586811Y-93917438D01*
X127586809Y-93917439D01*
X127430287Y-94001103D01*
X127373673Y-94018276D01*
X127260447Y-94052623D01*
X127194262Y-94059142D01*
X127128080Y-94065660D01*
X127039560Y-94065660D01*
X126973377Y-94059141D01*
X126907193Y-94052623D01*
X126793967Y-94018276D01*
X126737353Y-94001103D01*
X126580831Y-93917439D01*
X126580829Y-93917438D01*
X126545091Y-93888108D01*
X126443634Y-93804846D01*
X126360372Y-93703389D01*
X126331042Y-93667651D01*
X126321472Y-93649747D01*
X126247377Y-93511127D01*
X126200907Y-93357934D01*
X126195857Y-93341287D01*
X126178461Y-93164660D01*
X126195857Y-92988033D01*
X126247377Y-92818194D01*
X126247377Y-92818193D01*
X126331041Y-92661671D01*
X126331042Y-92661669D01*
X126360372Y-92625931D01*
X126443634Y-92524474D01*
X126545091Y-92441212D01*
X126580829Y-92411882D01*
X126598733Y-92402312D01*
X126737353Y-92328217D01*
X126793967Y-92311044D01*
X126907193Y-92276697D01*
X126973378Y-92270178D01*
X127039560Y-92263660D01*
X127128080Y-92263660D01*
X127194262Y-92270178D01*
X127194262Y-92270178D01*
G37*
G36*
X129734262Y-92270178D02*
X129800447Y-92276697D01*
X129913673Y-92311044D01*
X129970287Y-92328217D01*
X130108907Y-92402312D01*
X130126811Y-92411882D01*
X130162549Y-92441212D01*
X130264006Y-92524474D01*
X130347268Y-92625931D01*
X130376598Y-92661669D01*
X130376599Y-92661671D01*
X130460263Y-92818193D01*
X130460263Y-92818194D01*
X130511783Y-92988033D01*
X130529179Y-93164660D01*
X130511783Y-93341287D01*
X130506733Y-93357934D01*
X130460263Y-93511127D01*
X130386168Y-93649747D01*
X130376598Y-93667651D01*
X130347268Y-93703389D01*
X130264006Y-93804846D01*
X130162549Y-93888108D01*
X130126811Y-93917438D01*
X130126809Y-93917439D01*
X129970287Y-94001103D01*
X129913673Y-94018276D01*
X129800447Y-94052623D01*
X129734262Y-94059142D01*
X129668080Y-94065660D01*
X129579560Y-94065660D01*
X129513377Y-94059141D01*
X129447193Y-94052623D01*
X129333967Y-94018276D01*
X129277353Y-94001103D01*
X129120831Y-93917439D01*
X129120829Y-93917438D01*
X129085091Y-93888108D01*
X128983634Y-93804846D01*
X128900372Y-93703389D01*
X128871042Y-93667651D01*
X128861472Y-93649747D01*
X128787377Y-93511127D01*
X128740907Y-93357934D01*
X128735857Y-93341287D01*
X128718461Y-93164660D01*
X128735857Y-92988033D01*
X128787377Y-92818194D01*
X128787377Y-92818193D01*
X128871041Y-92661671D01*
X128871042Y-92661669D01*
X128900372Y-92625931D01*
X128983634Y-92524474D01*
X129085091Y-92441212D01*
X129120829Y-92411882D01*
X129138733Y-92402312D01*
X129277353Y-92328217D01*
X129333967Y-92311044D01*
X129447193Y-92276697D01*
X129513378Y-92270178D01*
X129579560Y-92263660D01*
X129668080Y-92263660D01*
X129734262Y-92270178D01*
X129734262Y-92270178D01*
G37*
G36*
X132274262Y-92270178D02*
X132340447Y-92276697D01*
X132453673Y-92311044D01*
X132510287Y-92328217D01*
X132648907Y-92402312D01*
X132666811Y-92411882D01*
X132702549Y-92441212D01*
X132804006Y-92524474D01*
X132887268Y-92625931D01*
X132916598Y-92661669D01*
X132916599Y-92661671D01*
X133000263Y-92818193D01*
X133000263Y-92818194D01*
X133051783Y-92988033D01*
X133069179Y-93164660D01*
X133051783Y-93341287D01*
X133046733Y-93357934D01*
X133000263Y-93511127D01*
X132926168Y-93649747D01*
X132916598Y-93667651D01*
X132887268Y-93703389D01*
X132804006Y-93804846D01*
X132702549Y-93888108D01*
X132666811Y-93917438D01*
X132666809Y-93917439D01*
X132510287Y-94001103D01*
X132453673Y-94018276D01*
X132340447Y-94052623D01*
X132274262Y-94059142D01*
X132208080Y-94065660D01*
X132119560Y-94065660D01*
X132053377Y-94059141D01*
X131987193Y-94052623D01*
X131873967Y-94018276D01*
X131817353Y-94001103D01*
X131660831Y-93917439D01*
X131660829Y-93917438D01*
X131625091Y-93888108D01*
X131523634Y-93804846D01*
X131440372Y-93703389D01*
X131411042Y-93667651D01*
X131401472Y-93649747D01*
X131327377Y-93511127D01*
X131280907Y-93357934D01*
X131275857Y-93341287D01*
X131258461Y-93164660D01*
X131275857Y-92988033D01*
X131327377Y-92818194D01*
X131327377Y-92818193D01*
X131411041Y-92661671D01*
X131411042Y-92661669D01*
X131440372Y-92625931D01*
X131523634Y-92524474D01*
X131625091Y-92441212D01*
X131660829Y-92411882D01*
X131678733Y-92402312D01*
X131817353Y-92328217D01*
X131873967Y-92311044D01*
X131987193Y-92276697D01*
X132053378Y-92270178D01*
X132119560Y-92263660D01*
X132208080Y-92263660D01*
X132274262Y-92270178D01*
X132274262Y-92270178D01*
G37*
G36*
X150018703Y-88142679D02*
X150084887Y-88149197D01*
X150198113Y-88183544D01*
X150254727Y-88200717D01*
X150343719Y-88248285D01*
X150411251Y-88284382D01*
X150429481Y-88299343D01*
X150548446Y-88396974D01*
X150593162Y-88451462D01*
X150661038Y-88534169D01*
X150661039Y-88534171D01*
X150744703Y-88690693D01*
X150744703Y-88690694D01*
X150796223Y-88860533D01*
X150813619Y-89037160D01*
X150796223Y-89213787D01*
X150761876Y-89327013D01*
X150744703Y-89383627D01*
X150670608Y-89522247D01*
X150661038Y-89540151D01*
X150631708Y-89575889D01*
X150548446Y-89677346D01*
X150446989Y-89760608D01*
X150411251Y-89789938D01*
X150411249Y-89789939D01*
X150254727Y-89873603D01*
X150198113Y-89890776D01*
X150084887Y-89925123D01*
X150018702Y-89931642D01*
X149952520Y-89938160D01*
X149864000Y-89938160D01*
X149797818Y-89931642D01*
X149731633Y-89925123D01*
X149618407Y-89890776D01*
X149561793Y-89873603D01*
X149405271Y-89789939D01*
X149405269Y-89789938D01*
X149369531Y-89760608D01*
X149268074Y-89677346D01*
X149184812Y-89575889D01*
X149155482Y-89540151D01*
X149145912Y-89522247D01*
X149071817Y-89383627D01*
X149054644Y-89327013D01*
X149020297Y-89213787D01*
X149002901Y-89037160D01*
X149020297Y-88860533D01*
X149071817Y-88690694D01*
X149071817Y-88690693D01*
X149155481Y-88534171D01*
X149155482Y-88534169D01*
X149223358Y-88451462D01*
X149268074Y-88396974D01*
X149387039Y-88299343D01*
X149405269Y-88284382D01*
X149472801Y-88248285D01*
X149561793Y-88200717D01*
X149618407Y-88183544D01*
X149731633Y-88149197D01*
X149797817Y-88142679D01*
X149864000Y-88136160D01*
X149952520Y-88136160D01*
X150018703Y-88142679D01*
X150018703Y-88142679D01*
G37*
G36*
X147478703Y-88142679D02*
X147544887Y-88149197D01*
X147658113Y-88183544D01*
X147714727Y-88200717D01*
X147803719Y-88248285D01*
X147871251Y-88284382D01*
X147889481Y-88299343D01*
X148008446Y-88396974D01*
X148053162Y-88451462D01*
X148121038Y-88534169D01*
X148121039Y-88534171D01*
X148204703Y-88690693D01*
X148204703Y-88690694D01*
X148256223Y-88860533D01*
X148273619Y-89037160D01*
X148256223Y-89213787D01*
X148221876Y-89327013D01*
X148204703Y-89383627D01*
X148130608Y-89522247D01*
X148121038Y-89540151D01*
X148091708Y-89575889D01*
X148008446Y-89677346D01*
X147906989Y-89760608D01*
X147871251Y-89789938D01*
X147871249Y-89789939D01*
X147714727Y-89873603D01*
X147658113Y-89890776D01*
X147544887Y-89925123D01*
X147478702Y-89931642D01*
X147412520Y-89938160D01*
X147324000Y-89938160D01*
X147257818Y-89931642D01*
X147191633Y-89925123D01*
X147078407Y-89890776D01*
X147021793Y-89873603D01*
X146865271Y-89789939D01*
X146865269Y-89789938D01*
X146829531Y-89760608D01*
X146728074Y-89677346D01*
X146644812Y-89575889D01*
X146615482Y-89540151D01*
X146605912Y-89522247D01*
X146531817Y-89383627D01*
X146514644Y-89327013D01*
X146480297Y-89213787D01*
X146462901Y-89037160D01*
X146480297Y-88860533D01*
X146531817Y-88690694D01*
X146531817Y-88690693D01*
X146615481Y-88534171D01*
X146615482Y-88534169D01*
X146683358Y-88451462D01*
X146728074Y-88396974D01*
X146847039Y-88299343D01*
X146865269Y-88284382D01*
X146932801Y-88248285D01*
X147021793Y-88200717D01*
X147078407Y-88183544D01*
X147191633Y-88149197D01*
X147257817Y-88142679D01*
X147324000Y-88136160D01*
X147412520Y-88136160D01*
X147478703Y-88142679D01*
X147478703Y-88142679D01*
G37*
G36*
X144938703Y-88142679D02*
X145004887Y-88149197D01*
X145118113Y-88183544D01*
X145174727Y-88200717D01*
X145263719Y-88248285D01*
X145331251Y-88284382D01*
X145349481Y-88299343D01*
X145468446Y-88396974D01*
X145513162Y-88451462D01*
X145581038Y-88534169D01*
X145581039Y-88534171D01*
X145664703Y-88690693D01*
X145664703Y-88690694D01*
X145716223Y-88860533D01*
X145733619Y-89037160D01*
X145716223Y-89213787D01*
X145681876Y-89327013D01*
X145664703Y-89383627D01*
X145590608Y-89522247D01*
X145581038Y-89540151D01*
X145551708Y-89575889D01*
X145468446Y-89677346D01*
X145366989Y-89760608D01*
X145331251Y-89789938D01*
X145331249Y-89789939D01*
X145174727Y-89873603D01*
X145118113Y-89890776D01*
X145004887Y-89925123D01*
X144938702Y-89931642D01*
X144872520Y-89938160D01*
X144784000Y-89938160D01*
X144717818Y-89931642D01*
X144651633Y-89925123D01*
X144538407Y-89890776D01*
X144481793Y-89873603D01*
X144325271Y-89789939D01*
X144325269Y-89789938D01*
X144289531Y-89760608D01*
X144188074Y-89677346D01*
X144104812Y-89575889D01*
X144075482Y-89540151D01*
X144065912Y-89522247D01*
X143991817Y-89383627D01*
X143974644Y-89327013D01*
X143940297Y-89213787D01*
X143922901Y-89037160D01*
X143940297Y-88860533D01*
X143991817Y-88690694D01*
X143991817Y-88690693D01*
X144075481Y-88534171D01*
X144075482Y-88534169D01*
X144143358Y-88451462D01*
X144188074Y-88396974D01*
X144307039Y-88299343D01*
X144325269Y-88284382D01*
X144392801Y-88248285D01*
X144481793Y-88200717D01*
X144538407Y-88183544D01*
X144651633Y-88149197D01*
X144717817Y-88142679D01*
X144784000Y-88136160D01*
X144872520Y-88136160D01*
X144938703Y-88142679D01*
X144938703Y-88142679D01*
G37*
G36*
X142398703Y-88142679D02*
X142464887Y-88149197D01*
X142578113Y-88183544D01*
X142634727Y-88200717D01*
X142723719Y-88248285D01*
X142791251Y-88284382D01*
X142809481Y-88299343D01*
X142928446Y-88396974D01*
X142973162Y-88451462D01*
X143041038Y-88534169D01*
X143041039Y-88534171D01*
X143124703Y-88690693D01*
X143124703Y-88690694D01*
X143176223Y-88860533D01*
X143193619Y-89037160D01*
X143176223Y-89213787D01*
X143141876Y-89327013D01*
X143124703Y-89383627D01*
X143050608Y-89522247D01*
X143041038Y-89540151D01*
X143011708Y-89575889D01*
X142928446Y-89677346D01*
X142826989Y-89760608D01*
X142791251Y-89789938D01*
X142791249Y-89789939D01*
X142634727Y-89873603D01*
X142578113Y-89890776D01*
X142464887Y-89925123D01*
X142398702Y-89931642D01*
X142332520Y-89938160D01*
X142244000Y-89938160D01*
X142177818Y-89931642D01*
X142111633Y-89925123D01*
X141998407Y-89890776D01*
X141941793Y-89873603D01*
X141785271Y-89789939D01*
X141785269Y-89789938D01*
X141749531Y-89760608D01*
X141648074Y-89677346D01*
X141564812Y-89575889D01*
X141535482Y-89540151D01*
X141525912Y-89522247D01*
X141451817Y-89383627D01*
X141434644Y-89327013D01*
X141400297Y-89213787D01*
X141382901Y-89037160D01*
X141400297Y-88860533D01*
X141451817Y-88690694D01*
X141451817Y-88690693D01*
X141535481Y-88534171D01*
X141535482Y-88534169D01*
X141603358Y-88451462D01*
X141648074Y-88396974D01*
X141767039Y-88299343D01*
X141785269Y-88284382D01*
X141852801Y-88248285D01*
X141941793Y-88200717D01*
X141998407Y-88183544D01*
X142111633Y-88149197D01*
X142177817Y-88142679D01*
X142244000Y-88136160D01*
X142332520Y-88136160D01*
X142398703Y-88142679D01*
X142398703Y-88142679D01*
G37*
G36*
X139858703Y-88142679D02*
X139924887Y-88149197D01*
X140038113Y-88183544D01*
X140094727Y-88200717D01*
X140183719Y-88248285D01*
X140251251Y-88284382D01*
X140269481Y-88299343D01*
X140388446Y-88396974D01*
X140433162Y-88451462D01*
X140501038Y-88534169D01*
X140501039Y-88534171D01*
X140584703Y-88690693D01*
X140584703Y-88690694D01*
X140636223Y-88860533D01*
X140653619Y-89037160D01*
X140636223Y-89213787D01*
X140601876Y-89327013D01*
X140584703Y-89383627D01*
X140510608Y-89522247D01*
X140501038Y-89540151D01*
X140471708Y-89575889D01*
X140388446Y-89677346D01*
X140286989Y-89760608D01*
X140251251Y-89789938D01*
X140251249Y-89789939D01*
X140094727Y-89873603D01*
X140038113Y-89890776D01*
X139924887Y-89925123D01*
X139858702Y-89931642D01*
X139792520Y-89938160D01*
X139704000Y-89938160D01*
X139637818Y-89931642D01*
X139571633Y-89925123D01*
X139458407Y-89890776D01*
X139401793Y-89873603D01*
X139245271Y-89789939D01*
X139245269Y-89789938D01*
X139209531Y-89760608D01*
X139108074Y-89677346D01*
X139024812Y-89575889D01*
X138995482Y-89540151D01*
X138985912Y-89522247D01*
X138911817Y-89383627D01*
X138894644Y-89327013D01*
X138860297Y-89213787D01*
X138842901Y-89037160D01*
X138860297Y-88860533D01*
X138911817Y-88690694D01*
X138911817Y-88690693D01*
X138995481Y-88534171D01*
X138995482Y-88534169D01*
X139063358Y-88451462D01*
X139108074Y-88396974D01*
X139227039Y-88299343D01*
X139245269Y-88284382D01*
X139312801Y-88248285D01*
X139401793Y-88200717D01*
X139458407Y-88183544D01*
X139571633Y-88149197D01*
X139637817Y-88142679D01*
X139704000Y-88136160D01*
X139792520Y-88136160D01*
X139858703Y-88142679D01*
X139858703Y-88142679D01*
G37*
G36*
X153349260Y-89938160D02*
X151547260Y-89938160D01*
X151547260Y-88136160D01*
X153349260Y-88136160D01*
X153349260Y-89938160D01*
X153349260Y-89938160D01*
G37*
G36*
X128900157Y-86969825D02*
X128937844Y-86981258D01*
X128972583Y-86999826D01*
X129003028Y-87024812D01*
X129028014Y-87055257D01*
X129046582Y-87089996D01*
X129058015Y-87127683D01*
X129062480Y-87173021D01*
X129062480Y-88259699D01*
X129058015Y-88305037D01*
X129046582Y-88342724D01*
X129028014Y-88377463D01*
X129003028Y-88407908D01*
X128972583Y-88432894D01*
X128937844Y-88451462D01*
X128900157Y-88462895D01*
X128854819Y-88467360D01*
X128018141Y-88467360D01*
X127972803Y-88462895D01*
X127935116Y-88451462D01*
X127900377Y-88432894D01*
X127869932Y-88407908D01*
X127844946Y-88377463D01*
X127826378Y-88342724D01*
X127814945Y-88305037D01*
X127810480Y-88259699D01*
X127810480Y-87173021D01*
X127814945Y-87127683D01*
X127826378Y-87089996D01*
X127844946Y-87055257D01*
X127869932Y-87024812D01*
X127900377Y-86999826D01*
X127935116Y-86981258D01*
X127972803Y-86969825D01*
X128018141Y-86965360D01*
X128854819Y-86965360D01*
X128900157Y-86969825D01*
X128900157Y-86969825D01*
G37*
G36*
X126850157Y-86969825D02*
X126887844Y-86981258D01*
X126922583Y-86999826D01*
X126953028Y-87024812D01*
X126978014Y-87055257D01*
X126996582Y-87089996D01*
X127008015Y-87127683D01*
X127012480Y-87173021D01*
X127012480Y-88259699D01*
X127008015Y-88305037D01*
X126996582Y-88342724D01*
X126978014Y-88377463D01*
X126953028Y-88407908D01*
X126922583Y-88432894D01*
X126887844Y-88451462D01*
X126850157Y-88462895D01*
X126804819Y-88467360D01*
X125968141Y-88467360D01*
X125922803Y-88462895D01*
X125885116Y-88451462D01*
X125850377Y-88432894D01*
X125819932Y-88407908D01*
X125794946Y-88377463D01*
X125776378Y-88342724D01*
X125764945Y-88305037D01*
X125760480Y-88259699D01*
X125760480Y-87173021D01*
X125764945Y-87127683D01*
X125776378Y-87089996D01*
X125794946Y-87055257D01*
X125819932Y-87024812D01*
X125850377Y-86999826D01*
X125885116Y-86981258D01*
X125922803Y-86969825D01*
X125968141Y-86965360D01*
X126804819Y-86965360D01*
X126850157Y-86969825D01*
X126850157Y-86969825D01*
G37*
G36*
X126814597Y-84899725D02*
X126852284Y-84911158D01*
X126887023Y-84929726D01*
X126917468Y-84954712D01*
X126942454Y-84985157D01*
X126961022Y-85019896D01*
X126972455Y-85057583D01*
X126976920Y-85102921D01*
X126976920Y-86189599D01*
X126972455Y-86234937D01*
X126961022Y-86272624D01*
X126942454Y-86307363D01*
X126917468Y-86337808D01*
X126887023Y-86362794D01*
X126852284Y-86381362D01*
X126814597Y-86392795D01*
X126769259Y-86397260D01*
X125932581Y-86397260D01*
X125887243Y-86392795D01*
X125849556Y-86381362D01*
X125814817Y-86362794D01*
X125784372Y-86337808D01*
X125759386Y-86307363D01*
X125740818Y-86272624D01*
X125729385Y-86234937D01*
X125724920Y-86189599D01*
X125724920Y-85102921D01*
X125729385Y-85057583D01*
X125740818Y-85019896D01*
X125759386Y-84985157D01*
X125784372Y-84954712D01*
X125814817Y-84929726D01*
X125849556Y-84911158D01*
X125887243Y-84899725D01*
X125932581Y-84895260D01*
X126769259Y-84895260D01*
X126814597Y-84899725D01*
X126814597Y-84899725D01*
G37*
G36*
X128864597Y-84899725D02*
X128902284Y-84911158D01*
X128937023Y-84929726D01*
X128967468Y-84954712D01*
X128992454Y-84985157D01*
X129011022Y-85019896D01*
X129022455Y-85057583D01*
X129026920Y-85102921D01*
X129026920Y-86189599D01*
X129022455Y-86234937D01*
X129011022Y-86272624D01*
X128992454Y-86307363D01*
X128967468Y-86337808D01*
X128937023Y-86362794D01*
X128902284Y-86381362D01*
X128864597Y-86392795D01*
X128819259Y-86397260D01*
X127982581Y-86397260D01*
X127937243Y-86392795D01*
X127899556Y-86381362D01*
X127864817Y-86362794D01*
X127834372Y-86337808D01*
X127809386Y-86307363D01*
X127790818Y-86272624D01*
X127779385Y-86234937D01*
X127774920Y-86189599D01*
X127774920Y-85102921D01*
X127779385Y-85057583D01*
X127790818Y-85019896D01*
X127809386Y-84985157D01*
X127834372Y-84954712D01*
X127864817Y-84929726D01*
X127899556Y-84911158D01*
X127937243Y-84899725D01*
X127982581Y-84895260D01*
X128819259Y-84895260D01*
X128864597Y-84899725D01*
X128864597Y-84899725D01*
G37*
G36*
X143504480Y-84911760D02*
X142052480Y-84911760D01*
X142052480Y-83459760D01*
X143504480Y-83459760D01*
X143504480Y-84911760D01*
X143504480Y-84911760D01*
G37*
G36*
X144835471Y-83461861D02*
X144920801Y-83470265D01*
X145057652Y-83511779D01*
X145057654Y-83511780D01*
X145057657Y-83511781D01*
X145183776Y-83579192D01*
X145294323Y-83669917D01*
X145385048Y-83780464D01*
X145452459Y-83906583D01*
X145452460Y-83906586D01*
X145452461Y-83906588D01*
X145493975Y-84043439D01*
X145507992Y-84185760D01*
X145493975Y-84328081D01*
X145452461Y-84464932D01*
X145452459Y-84464937D01*
X145385048Y-84591056D01*
X145294323Y-84701603D01*
X145183776Y-84792328D01*
X145057657Y-84859739D01*
X145057654Y-84859740D01*
X145057652Y-84859741D01*
X144920801Y-84901255D01*
X144835471Y-84909659D01*
X144814140Y-84911760D01*
X144742820Y-84911760D01*
X144721489Y-84909659D01*
X144636159Y-84901255D01*
X144499308Y-84859741D01*
X144499306Y-84859740D01*
X144499303Y-84859739D01*
X144373184Y-84792328D01*
X144262637Y-84701603D01*
X144171912Y-84591056D01*
X144104501Y-84464937D01*
X144104499Y-84464932D01*
X144062985Y-84328081D01*
X144048968Y-84185760D01*
X144062985Y-84043439D01*
X144104499Y-83906588D01*
X144104500Y-83906586D01*
X144104501Y-83906583D01*
X144171912Y-83780464D01*
X144262637Y-83669917D01*
X144373184Y-83579192D01*
X144499303Y-83511781D01*
X144499306Y-83511780D01*
X144499308Y-83511779D01*
X144636159Y-83470265D01*
X144721489Y-83461861D01*
X144742820Y-83459760D01*
X144814140Y-83459760D01*
X144835471Y-83461861D01*
X144835471Y-83461861D01*
G37*
G36*
X163848720Y-84226120D02*
X162746720Y-84226120D01*
X162746720Y-83424120D01*
X163848720Y-83424120D01*
X163848720Y-84226120D01*
X163848720Y-84226120D01*
G37*
G36*
X157604477Y-82684845D02*
X157642164Y-82696278D01*
X157676903Y-82714846D01*
X157707348Y-82739832D01*
X157732334Y-82770277D01*
X157750902Y-82805016D01*
X157762335Y-82842703D01*
X157766800Y-82888041D01*
X157766800Y-83974719D01*
X157762335Y-84020057D01*
X157750902Y-84057744D01*
X157732334Y-84092483D01*
X157707348Y-84122928D01*
X157676903Y-84147914D01*
X157642164Y-84166482D01*
X157604477Y-84177915D01*
X157559139Y-84182380D01*
X156722461Y-84182380D01*
X156677123Y-84177915D01*
X156639436Y-84166482D01*
X156604697Y-84147914D01*
X156574252Y-84122928D01*
X156549266Y-84092483D01*
X156530698Y-84057744D01*
X156519265Y-84020057D01*
X156514800Y-83974719D01*
X156514800Y-82888041D01*
X156519265Y-82842703D01*
X156530698Y-82805016D01*
X156549266Y-82770277D01*
X156574252Y-82739832D01*
X156604697Y-82714846D01*
X156639436Y-82696278D01*
X156677123Y-82684845D01*
X156722461Y-82680380D01*
X157559139Y-82680380D01*
X157604477Y-82684845D01*
X157604477Y-82684845D01*
G37*
G36*
X159654477Y-82684845D02*
X159692164Y-82696278D01*
X159726903Y-82714846D01*
X159757348Y-82739832D01*
X159782334Y-82770277D01*
X159800902Y-82805016D01*
X159812335Y-82842703D01*
X159816800Y-82888041D01*
X159816800Y-83974719D01*
X159812335Y-84020057D01*
X159800902Y-84057744D01*
X159782334Y-84092483D01*
X159757348Y-84122928D01*
X159726903Y-84147914D01*
X159692164Y-84166482D01*
X159654477Y-84177915D01*
X159609139Y-84182380D01*
X158772461Y-84182380D01*
X158727123Y-84177915D01*
X158689436Y-84166482D01*
X158654697Y-84147914D01*
X158624252Y-84122928D01*
X158599266Y-84092483D01*
X158580698Y-84057744D01*
X158569265Y-84020057D01*
X158564800Y-83974719D01*
X158564800Y-82888041D01*
X158569265Y-82842703D01*
X158580698Y-82805016D01*
X158599266Y-82770277D01*
X158624252Y-82739832D01*
X158654697Y-82714846D01*
X158689436Y-82696278D01*
X158727123Y-82684845D01*
X158772461Y-82680380D01*
X159609139Y-82680380D01*
X159654477Y-82684845D01*
X159654477Y-82684845D01*
G37*
G36*
X126686280Y-83644460D02*
X125584280Y-83644460D01*
X125584280Y-82842460D01*
X126686280Y-82842460D01*
X126686280Y-83644460D01*
X126686280Y-83644460D01*
G37*
G36*
X161448720Y-83276120D02*
X160346720Y-83276120D01*
X160346720Y-82474120D01*
X161448720Y-82474120D01*
X161448720Y-83276120D01*
X161448720Y-83276120D01*
G37*
G36*
X129086280Y-82694460D02*
X127984280Y-82694460D01*
X127984280Y-81892460D01*
X129086280Y-81892460D01*
X129086280Y-82694460D01*
X129086280Y-82694460D01*
G37*
G36*
X163848720Y-82326120D02*
X162746720Y-82326120D01*
X162746720Y-81524120D01*
X163848720Y-81524120D01*
X163848720Y-82326120D01*
X163848720Y-82326120D01*
G37*
G36*
X157604477Y-80647765D02*
X157642164Y-80659198D01*
X157676903Y-80677766D01*
X157707348Y-80702752D01*
X157732334Y-80733197D01*
X157750902Y-80767936D01*
X157762335Y-80805623D01*
X157766800Y-80850961D01*
X157766800Y-81937639D01*
X157762335Y-81982977D01*
X157750902Y-82020664D01*
X157732334Y-82055403D01*
X157707348Y-82085848D01*
X157676903Y-82110834D01*
X157642164Y-82129402D01*
X157604477Y-82140835D01*
X157559139Y-82145300D01*
X156722461Y-82145300D01*
X156677123Y-82140835D01*
X156639436Y-82129402D01*
X156604697Y-82110834D01*
X156574252Y-82085848D01*
X156549266Y-82055403D01*
X156530698Y-82020664D01*
X156519265Y-81982977D01*
X156514800Y-81937639D01*
X156514800Y-80850961D01*
X156519265Y-80805623D01*
X156530698Y-80767936D01*
X156549266Y-80733197D01*
X156574252Y-80702752D01*
X156604697Y-80677766D01*
X156639436Y-80659198D01*
X156677123Y-80647765D01*
X156722461Y-80643300D01*
X157559139Y-80643300D01*
X157604477Y-80647765D01*
X157604477Y-80647765D01*
G37*
G36*
X159654477Y-80647765D02*
X159692164Y-80659198D01*
X159726903Y-80677766D01*
X159757348Y-80702752D01*
X159782334Y-80733197D01*
X159800902Y-80767936D01*
X159812335Y-80805623D01*
X159816800Y-80850961D01*
X159816800Y-81937639D01*
X159812335Y-81982977D01*
X159800902Y-82020664D01*
X159782334Y-82055403D01*
X159757348Y-82085848D01*
X159726903Y-82110834D01*
X159692164Y-82129402D01*
X159654477Y-82140835D01*
X159609139Y-82145300D01*
X158772461Y-82145300D01*
X158727123Y-82140835D01*
X158689436Y-82129402D01*
X158654697Y-82110834D01*
X158624252Y-82085848D01*
X158599266Y-82055403D01*
X158580698Y-82020664D01*
X158569265Y-81982977D01*
X158564800Y-81937639D01*
X158564800Y-80850961D01*
X158569265Y-80805623D01*
X158580698Y-80767936D01*
X158599266Y-80733197D01*
X158624252Y-80702752D01*
X158654697Y-80677766D01*
X158689436Y-80659198D01*
X158727123Y-80647765D01*
X158772461Y-80643300D01*
X159609139Y-80643300D01*
X159654477Y-80647765D01*
X159654477Y-80647765D01*
G37*
G36*
X126686280Y-81744460D02*
X125584280Y-81744460D01*
X125584280Y-80942460D01*
X126686280Y-80942460D01*
X126686280Y-81744460D01*
X126686280Y-81744460D01*
G37*
G36*
X175353107Y-70154800D02*
X174078900Y-71429007D01*
X172804693Y-70154800D01*
X174078900Y-68880593D01*
X175353107Y-70154800D01*
X175353107Y-70154800D01*
G37*
G36*
X115612134Y-69179310D02*
X115678318Y-69185828D01*
X115791544Y-69220175D01*
X115848158Y-69237348D01*
X115986778Y-69311443D01*
X116004682Y-69321013D01*
X116040420Y-69350343D01*
X116141877Y-69433605D01*
X116225139Y-69535062D01*
X116254469Y-69570800D01*
X116254470Y-69570802D01*
X116338134Y-69727324D01*
X116338134Y-69727325D01*
X116389654Y-69897164D01*
X116407050Y-70073791D01*
X116389654Y-70250418D01*
X116355307Y-70363644D01*
X116338134Y-70420258D01*
X116264039Y-70558878D01*
X116254469Y-70576782D01*
X116225139Y-70612520D01*
X116141877Y-70713977D01*
X116040420Y-70797239D01*
X116004682Y-70826569D01*
X116004680Y-70826570D01*
X115848158Y-70910234D01*
X115791544Y-70927407D01*
X115678318Y-70961754D01*
X115612133Y-70968273D01*
X115545951Y-70974791D01*
X115457431Y-70974791D01*
X115391249Y-70968273D01*
X115325064Y-70961754D01*
X115211838Y-70927407D01*
X115155224Y-70910234D01*
X114998702Y-70826570D01*
X114998700Y-70826569D01*
X114962962Y-70797239D01*
X114861505Y-70713977D01*
X114778243Y-70612520D01*
X114748913Y-70576782D01*
X114739343Y-70558878D01*
X114665248Y-70420258D01*
X114648075Y-70363644D01*
X114613728Y-70250418D01*
X114596332Y-70073791D01*
X114613728Y-69897164D01*
X114665248Y-69727325D01*
X114665248Y-69727324D01*
X114748912Y-69570802D01*
X114748913Y-69570800D01*
X114778243Y-69535062D01*
X114861505Y-69433605D01*
X114962962Y-69350343D01*
X114998700Y-69321013D01*
X115016604Y-69311443D01*
X115155224Y-69237348D01*
X115211838Y-69220175D01*
X115325064Y-69185828D01*
X115391248Y-69179310D01*
X115457431Y-69172791D01*
X115545951Y-69172791D01*
X115612134Y-69179310D01*
X115612134Y-69179310D01*
G37*
G36*
X114979847Y-68277740D02*
X113705640Y-69551947D01*
X112431433Y-68277740D01*
X113705640Y-67003533D01*
X114979847Y-68277740D01*
X114979847Y-68277740D01*
G37*
G36*
X175985393Y-67464267D02*
X176051578Y-67470786D01*
X176164804Y-67505133D01*
X176221418Y-67522306D01*
X176360038Y-67596401D01*
X176377942Y-67605971D01*
X176413680Y-67635301D01*
X176515137Y-67718563D01*
X176598399Y-67820020D01*
X176627729Y-67855758D01*
X176627730Y-67855760D01*
X176711394Y-68012282D01*
X176711394Y-68012283D01*
X176762914Y-68182122D01*
X176780310Y-68358749D01*
X176762914Y-68535376D01*
X176728567Y-68648602D01*
X176711394Y-68705216D01*
X176637299Y-68843836D01*
X176627729Y-68861740D01*
X176612256Y-68880594D01*
X176515137Y-68998935D01*
X176413680Y-69082197D01*
X176377942Y-69111527D01*
X176377940Y-69111528D01*
X176221418Y-69195192D01*
X176164804Y-69212365D01*
X176051578Y-69246712D01*
X175985394Y-69253230D01*
X175919211Y-69259749D01*
X175830691Y-69259749D01*
X175764508Y-69253230D01*
X175698324Y-69246712D01*
X175585098Y-69212365D01*
X175528484Y-69195192D01*
X175371962Y-69111528D01*
X175371960Y-69111527D01*
X175336222Y-69082197D01*
X175234765Y-68998935D01*
X175137646Y-68880594D01*
X175122173Y-68861740D01*
X175112603Y-68843836D01*
X175038508Y-68705216D01*
X175021335Y-68648602D01*
X174986988Y-68535376D01*
X174969592Y-68358749D01*
X174986988Y-68182122D01*
X175038508Y-68012283D01*
X175038508Y-68012282D01*
X175122172Y-67855760D01*
X175122173Y-67855758D01*
X175151503Y-67820020D01*
X175234765Y-67718563D01*
X175336222Y-67635301D01*
X175371960Y-67605971D01*
X175389864Y-67596401D01*
X175528484Y-67522306D01*
X175585098Y-67505133D01*
X175698324Y-67470786D01*
X175764509Y-67464267D01*
X175830691Y-67457749D01*
X175919211Y-67457749D01*
X175985393Y-67464267D01*
X175985393Y-67464267D01*
G37*
M02*
