%TF.GenerationSoftware,KiCad,Pcbnew,5.0.2-bee76a0~70~ubuntu18.04.1*%
%TF.CreationDate,2019-05-17T20:17:06-03:00*%
%TF.ProjectId,Quadcoptero-FritzenLab-r00,51756164-636f-4707-9465-726f2d467269,rev?*%
%TF.SameCoordinates,Original*%
%TF.FileFunction,Copper,L2,Bot*%
%TF.FilePolarity,Positive*%
%FSLAX46Y46*%
G04 Gerber Fmt 4.6, Leading zero omitted, Abs format (unit mm)*
G04 Created by KiCad (PCBNEW 5.0.2-bee76a0~70~ubuntu18.04.1) date sex 17 mai 2019 20:17:06 -03*
%MOMM*%
%LPD*%
G01*
G04 APERTURE LIST*
%ADD10R,1.350000X1.350000*%
%ADD11O,1.350000X1.350000*%
%ADD12C,1.600000*%
%ADD13R,1.800000X1.800000*%
%ADD14C,1.800000*%
%ADD15R,1.700000X1.700000*%
%ADD16O,1.700000X1.700000*%
%ADD17C,2.300000*%
%ADD18R,1.600000X1.600000*%
%ADD19O,1.600000X1.600000*%
%ADD20C,1.700000*%
%ADD21C,0.100000*%
%ADD22C,1.700000*%
%ADD23C,6.000000*%
%ADD24C,0.800000*%
%ADD25C,0.500000*%
%ADD26C,0.250000*%
G04 APERTURE END LIST*
D10*
X142778480Y-84185760D03*
D11*
X144778480Y-84185760D03*
D12*
X128898020Y-107007660D03*
X126398020Y-107007660D03*
D13*
X160431480Y-110284260D03*
D14*
X162971480Y-110284260D03*
D12*
X158148020Y-106949240D03*
X155648020Y-106949240D03*
X141011280Y-106959400D03*
X138511280Y-106959400D03*
X145674080Y-94112080D03*
X143174080Y-94112080D03*
D15*
X127172720Y-110037880D03*
D16*
X129712720Y-110037880D03*
X132252720Y-110037880D03*
X134792720Y-110037880D03*
X137332720Y-110037880D03*
X139872720Y-110037880D03*
X139748260Y-89037160D03*
X142288260Y-89037160D03*
X144828260Y-89037160D03*
X147368260Y-89037160D03*
X149908260Y-89037160D03*
D15*
X152448260Y-89037160D03*
X139783820Y-93164660D03*
D16*
X137243820Y-93164660D03*
X134703820Y-93164660D03*
X132163820Y-93164660D03*
X129623820Y-93164660D03*
X127083820Y-93164660D03*
D17*
X150782020Y-108780580D03*
X145882020Y-108780580D03*
D18*
X127088900Y-104521000D03*
D19*
X160108900Y-96901000D03*
X129628900Y-104521000D03*
X157568900Y-96901000D03*
X132168900Y-104521000D03*
X155028900Y-96901000D03*
X134708900Y-104521000D03*
X152488900Y-96901000D03*
X137248900Y-104521000D03*
X149948900Y-96901000D03*
X139788900Y-104521000D03*
X147408900Y-96901000D03*
X142328900Y-104521000D03*
X144868900Y-96901000D03*
X144868900Y-104521000D03*
X142328900Y-96901000D03*
X147408900Y-104521000D03*
X139788900Y-96901000D03*
X149948900Y-104521000D03*
X137248900Y-96901000D03*
X152488900Y-104521000D03*
X134708900Y-96901000D03*
X155028900Y-104521000D03*
X132168900Y-96901000D03*
X157568900Y-104521000D03*
X129628900Y-96901000D03*
X160108900Y-104521000D03*
X127088900Y-96901000D03*
D15*
X153492200Y-114427000D03*
D16*
X150952200Y-114427000D03*
X148412200Y-114427000D03*
X145872200Y-114427000D03*
X143332200Y-114427000D03*
X140792200Y-114427000D03*
X138252200Y-114427000D03*
X135712200Y-114427000D03*
D20*
X173743349Y-128869169D03*
D21*
G36*
X173743349Y-130071251D02*
X172541267Y-128869169D01*
X173743349Y-127667087D01*
X174945431Y-128869169D01*
X173743349Y-130071251D01*
X173743349Y-130071251D01*
G37*
D20*
X175539400Y-130665220D03*
D22*
X175539400Y-130665220D02*
X175539400Y-130665220D01*
D20*
X175874951Y-68358749D03*
D22*
X175874951Y-68358749D02*
X175874951Y-68358749D01*
D20*
X174078900Y-70154800D03*
D21*
G36*
X175280982Y-70154800D02*
X174078900Y-71356882D01*
X172876818Y-70154800D01*
X174078900Y-68952718D01*
X175280982Y-70154800D01*
X175280982Y-70154800D01*
G37*
D20*
X113705640Y-68277740D03*
D21*
G36*
X113705640Y-69479822D02*
X112503558Y-68277740D01*
X113705640Y-67075658D01*
X114907722Y-68277740D01*
X113705640Y-69479822D01*
X113705640Y-69479822D01*
G37*
D20*
X115501691Y-70073791D03*
D22*
X115501691Y-70073791D02*
X115501691Y-70073791D01*
D20*
X115473480Y-128529080D03*
D21*
G36*
X114271398Y-128529080D02*
X115473480Y-127326998D01*
X116675562Y-128529080D01*
X115473480Y-129731162D01*
X114271398Y-128529080D01*
X114271398Y-128529080D01*
G37*
D20*
X113677429Y-130325131D03*
D22*
X113677429Y-130325131D02*
X113677429Y-130325131D01*
D23*
X107696000Y-62661800D03*
X181584600Y-62687200D03*
X181483000Y-136347200D03*
X107848400Y-136194800D03*
D24*
X134272020Y-118049040D03*
X131729480Y-116867940D03*
X155978860Y-81442560D03*
X160652460Y-84068920D03*
X142590520Y-99791520D03*
X141683740Y-99778820D03*
X134932420Y-108496100D03*
X155089860Y-111143470D03*
X154813000Y-116804440D03*
X129578100Y-85801200D03*
X129174240Y-111747300D03*
X132316220Y-111747300D03*
X128615440Y-114251740D03*
X136933940Y-112433100D03*
D25*
X138252200Y-114427000D02*
X140441680Y-112237520D01*
X161018220Y-112237520D02*
X162971480Y-110284260D01*
X140441680Y-112237520D02*
X161018220Y-112237520D01*
X159636460Y-106949240D02*
X159641540Y-106954320D01*
X158148020Y-106949240D02*
X159636460Y-106949240D01*
X159641540Y-106954320D02*
X161363660Y-106954320D01*
X162971480Y-108562140D02*
X162971480Y-110284260D01*
X138252200Y-115629081D02*
X136634881Y-117246400D01*
X138252200Y-114427000D02*
X138252200Y-115629081D01*
X127172720Y-111387880D02*
X127172720Y-110037880D01*
X136634881Y-117246400D02*
X133031240Y-117246400D01*
X127232420Y-108628180D02*
X127172720Y-108687880D01*
X127172720Y-108687880D02*
X127172720Y-110037880D01*
X129198418Y-108628180D02*
X127232420Y-108628180D01*
X130067199Y-107759399D02*
X129198418Y-108628180D01*
X137711281Y-107759399D02*
X130067199Y-107759399D01*
X138511280Y-106959400D02*
X137711281Y-107759399D01*
X161698940Y-103403400D02*
X161698940Y-107289600D01*
X147157440Y-102232460D02*
X160528000Y-102232460D01*
X144868900Y-104521000D02*
X147157440Y-102232460D01*
X160528000Y-102232460D02*
X161698940Y-103403400D01*
X161363660Y-106954320D02*
X161698940Y-107289600D01*
X161698940Y-107289600D02*
X162971480Y-108562140D01*
X143174080Y-92462980D02*
X143174080Y-94112080D01*
X139748260Y-89037160D02*
X143174080Y-92462980D01*
X143174080Y-96055820D02*
X142328900Y-96901000D01*
X143174080Y-94112080D02*
X143174080Y-96055820D01*
X142328900Y-99529900D02*
X142590520Y-99791520D01*
X142328900Y-96901000D02*
X142328900Y-99529900D01*
X142577820Y-99778820D02*
X142590520Y-99791520D01*
X141683740Y-99778820D02*
X142577820Y-99778820D01*
D26*
X158605220Y-84068920D02*
X155978860Y-81442560D01*
X160652460Y-84068920D02*
X158605220Y-84068920D01*
D25*
X132133340Y-116464080D02*
X131729480Y-116867940D01*
X132248920Y-116464080D02*
X132133340Y-116464080D01*
X132248920Y-116464080D02*
X127172720Y-111387880D01*
X133031240Y-117246400D02*
X132248920Y-116464080D01*
X152448260Y-91861640D02*
X147408900Y-96901000D01*
X152448260Y-89037160D02*
X152448260Y-91861640D01*
X142328900Y-101981000D02*
X142328900Y-104521000D01*
X147408900Y-96901000D02*
X142328900Y-101981000D01*
X132252720Y-108835799D02*
X132592419Y-108496100D01*
X132252720Y-110037880D02*
X132252720Y-108835799D01*
X132592419Y-108496100D02*
X134932420Y-108496100D01*
X142328900Y-108176060D02*
X142328900Y-104521000D01*
X142008860Y-108496100D02*
X142328900Y-108176060D01*
X135712200Y-113497360D02*
X135712200Y-114427000D01*
X132252720Y-110037880D02*
X135712200Y-113497360D01*
X115501691Y-70073791D02*
X131899660Y-86471760D01*
X152448260Y-87687160D02*
X152448260Y-89037160D01*
X151232860Y-86471760D02*
X152448260Y-87687160D01*
X175874951Y-68358749D02*
X175874951Y-71132429D01*
X157970220Y-89037160D02*
X152448260Y-89037160D01*
X175874951Y-71132429D02*
X157970220Y-89037160D01*
X134932420Y-108496100D02*
X142008860Y-108496100D01*
X144778480Y-86427060D02*
X144823180Y-86471760D01*
X144778480Y-84185760D02*
X144778480Y-86427060D01*
X131899660Y-86471760D02*
X144823180Y-86471760D01*
X144823180Y-86471760D02*
X151232860Y-86471760D01*
D26*
X152488900Y-108542510D02*
X152488900Y-104521000D01*
X155089860Y-111143470D02*
X152488900Y-108542510D01*
X153796030Y-117821410D02*
X137402870Y-117821410D01*
X154813000Y-116804440D02*
X153796030Y-117821410D01*
X137175240Y-118049040D02*
X134272020Y-118049040D01*
X137402870Y-117821410D02*
X137175240Y-118049040D01*
X133528819Y-100800919D02*
X137248900Y-104521000D01*
X129578100Y-85801200D02*
X133528819Y-89751919D01*
X133528819Y-89751919D02*
X133528819Y-100800919D01*
X129174240Y-111747300D02*
X132316220Y-111747300D01*
X132316220Y-111747300D02*
X132400040Y-111747300D01*
X137477500Y-112433100D02*
X136933940Y-112433100D01*
X139872720Y-110037880D02*
X137477500Y-112433100D01*
X125272800Y-110909100D02*
X128615440Y-114251740D01*
X125272800Y-105994200D02*
X125272800Y-110909100D01*
X125620999Y-105646001D02*
X125272800Y-105994200D01*
X128898020Y-107007660D02*
X127536361Y-105646001D01*
X127536361Y-105646001D02*
X125620999Y-105646001D01*
M02*
