%TF.GenerationSoftware,KiCad,Pcbnew,5.0.2-bee76a0~70~ubuntu18.04.1*%
%TF.CreationDate,2019-05-17T20:17:06-03:00*%
%TF.ProjectId,Quadcoptero-FritzenLab-r00,51756164-636f-4707-9465-726f2d467269,rev?*%
%TF.SameCoordinates,Original*%
%TF.FileFunction,Copper,L1,Top*%
%TF.FilePolarity,Positive*%
%FSLAX46Y46*%
G04 Gerber Fmt 4.6, Leading zero omitted, Abs format (unit mm)*
G04 Created by KiCad (PCBNEW 5.0.2-bee76a0~70~ubuntu18.04.1) date sex 17 mai 2019 20:17:06 -03*
%MOMM*%
%LPD*%
G01*
G04 APERTURE LIST*
%ADD10R,1.350000X1.350000*%
%ADD11O,1.350000X1.350000*%
%ADD12C,1.600000*%
%ADD13C,0.100000*%
%ADD14C,1.150000*%
%ADD15R,1.800000X1.800000*%
%ADD16C,1.800000*%
%ADD17R,1.700000X1.700000*%
%ADD18O,1.700000X1.700000*%
%ADD19C,2.300000*%
%ADD20R,1.600000X1.600000*%
%ADD21O,1.600000X1.600000*%
%ADD22C,1.700000*%
%ADD23C,1.700000*%
%ADD24R,1.000000X0.700000*%
%ADD25C,6.000000*%
%ADD26C,0.800000*%
%ADD27C,0.500000*%
%ADD28C,0.250000*%
G04 APERTURE END LIST*
D10*
X142778480Y-84185760D03*
D11*
X144778480Y-84185760D03*
D12*
X128898020Y-107007660D03*
X126398020Y-107007660D03*
D13*
G36*
X128785985Y-87017564D02*
X128810253Y-87021164D01*
X128834052Y-87027125D01*
X128857151Y-87035390D01*
X128879330Y-87045880D01*
X128900373Y-87058492D01*
X128920079Y-87073107D01*
X128938257Y-87089583D01*
X128954733Y-87107761D01*
X128969348Y-87127467D01*
X128981960Y-87148510D01*
X128992450Y-87170689D01*
X129000715Y-87193788D01*
X129006676Y-87217587D01*
X129010276Y-87241855D01*
X129011480Y-87266359D01*
X129011480Y-88166361D01*
X129010276Y-88190865D01*
X129006676Y-88215133D01*
X129000715Y-88238932D01*
X128992450Y-88262031D01*
X128981960Y-88284210D01*
X128969348Y-88305253D01*
X128954733Y-88324959D01*
X128938257Y-88343137D01*
X128920079Y-88359613D01*
X128900373Y-88374228D01*
X128879330Y-88386840D01*
X128857151Y-88397330D01*
X128834052Y-88405595D01*
X128810253Y-88411556D01*
X128785985Y-88415156D01*
X128761481Y-88416360D01*
X128111479Y-88416360D01*
X128086975Y-88415156D01*
X128062707Y-88411556D01*
X128038908Y-88405595D01*
X128015809Y-88397330D01*
X127993630Y-88386840D01*
X127972587Y-88374228D01*
X127952881Y-88359613D01*
X127934703Y-88343137D01*
X127918227Y-88324959D01*
X127903612Y-88305253D01*
X127891000Y-88284210D01*
X127880510Y-88262031D01*
X127872245Y-88238932D01*
X127866284Y-88215133D01*
X127862684Y-88190865D01*
X127861480Y-88166361D01*
X127861480Y-87266359D01*
X127862684Y-87241855D01*
X127866284Y-87217587D01*
X127872245Y-87193788D01*
X127880510Y-87170689D01*
X127891000Y-87148510D01*
X127903612Y-87127467D01*
X127918227Y-87107761D01*
X127934703Y-87089583D01*
X127952881Y-87073107D01*
X127972587Y-87058492D01*
X127993630Y-87045880D01*
X128015809Y-87035390D01*
X128038908Y-87027125D01*
X128062707Y-87021164D01*
X128086975Y-87017564D01*
X128111479Y-87016360D01*
X128761481Y-87016360D01*
X128785985Y-87017564D01*
X128785985Y-87017564D01*
G37*
D14*
X128436480Y-87716360D03*
D13*
G36*
X126735985Y-87017564D02*
X126760253Y-87021164D01*
X126784052Y-87027125D01*
X126807151Y-87035390D01*
X126829330Y-87045880D01*
X126850373Y-87058492D01*
X126870079Y-87073107D01*
X126888257Y-87089583D01*
X126904733Y-87107761D01*
X126919348Y-87127467D01*
X126931960Y-87148510D01*
X126942450Y-87170689D01*
X126950715Y-87193788D01*
X126956676Y-87217587D01*
X126960276Y-87241855D01*
X126961480Y-87266359D01*
X126961480Y-88166361D01*
X126960276Y-88190865D01*
X126956676Y-88215133D01*
X126950715Y-88238932D01*
X126942450Y-88262031D01*
X126931960Y-88284210D01*
X126919348Y-88305253D01*
X126904733Y-88324959D01*
X126888257Y-88343137D01*
X126870079Y-88359613D01*
X126850373Y-88374228D01*
X126829330Y-88386840D01*
X126807151Y-88397330D01*
X126784052Y-88405595D01*
X126760253Y-88411556D01*
X126735985Y-88415156D01*
X126711481Y-88416360D01*
X126061479Y-88416360D01*
X126036975Y-88415156D01*
X126012707Y-88411556D01*
X125988908Y-88405595D01*
X125965809Y-88397330D01*
X125943630Y-88386840D01*
X125922587Y-88374228D01*
X125902881Y-88359613D01*
X125884703Y-88343137D01*
X125868227Y-88324959D01*
X125853612Y-88305253D01*
X125841000Y-88284210D01*
X125830510Y-88262031D01*
X125822245Y-88238932D01*
X125816284Y-88215133D01*
X125812684Y-88190865D01*
X125811480Y-88166361D01*
X125811480Y-87266359D01*
X125812684Y-87241855D01*
X125816284Y-87217587D01*
X125822245Y-87193788D01*
X125830510Y-87170689D01*
X125841000Y-87148510D01*
X125853612Y-87127467D01*
X125868227Y-87107761D01*
X125884703Y-87089583D01*
X125902881Y-87073107D01*
X125922587Y-87058492D01*
X125943630Y-87045880D01*
X125965809Y-87035390D01*
X125988908Y-87027125D01*
X126012707Y-87021164D01*
X126036975Y-87017564D01*
X126061479Y-87016360D01*
X126711481Y-87016360D01*
X126735985Y-87017564D01*
X126735985Y-87017564D01*
G37*
D14*
X126386480Y-87716360D03*
D13*
G36*
X133342745Y-106329184D02*
X133367013Y-106332784D01*
X133390812Y-106338745D01*
X133413911Y-106347010D01*
X133436090Y-106357500D01*
X133457133Y-106370112D01*
X133476839Y-106384727D01*
X133495017Y-106401203D01*
X133511493Y-106419381D01*
X133526108Y-106439087D01*
X133538720Y-106460130D01*
X133549210Y-106482309D01*
X133557475Y-106505408D01*
X133563436Y-106529207D01*
X133567036Y-106553475D01*
X133568240Y-106577979D01*
X133568240Y-107477981D01*
X133567036Y-107502485D01*
X133563436Y-107526753D01*
X133557475Y-107550552D01*
X133549210Y-107573651D01*
X133538720Y-107595830D01*
X133526108Y-107616873D01*
X133511493Y-107636579D01*
X133495017Y-107654757D01*
X133476839Y-107671233D01*
X133457133Y-107685848D01*
X133436090Y-107698460D01*
X133413911Y-107708950D01*
X133390812Y-107717215D01*
X133367013Y-107723176D01*
X133342745Y-107726776D01*
X133318241Y-107727980D01*
X132668239Y-107727980D01*
X132643735Y-107726776D01*
X132619467Y-107723176D01*
X132595668Y-107717215D01*
X132572569Y-107708950D01*
X132550390Y-107698460D01*
X132529347Y-107685848D01*
X132509641Y-107671233D01*
X132491463Y-107654757D01*
X132474987Y-107636579D01*
X132460372Y-107616873D01*
X132447760Y-107595830D01*
X132437270Y-107573651D01*
X132429005Y-107550552D01*
X132423044Y-107526753D01*
X132419444Y-107502485D01*
X132418240Y-107477981D01*
X132418240Y-106577979D01*
X132419444Y-106553475D01*
X132423044Y-106529207D01*
X132429005Y-106505408D01*
X132437270Y-106482309D01*
X132447760Y-106460130D01*
X132460372Y-106439087D01*
X132474987Y-106419381D01*
X132491463Y-106401203D01*
X132509641Y-106384727D01*
X132529347Y-106370112D01*
X132550390Y-106357500D01*
X132572569Y-106347010D01*
X132595668Y-106338745D01*
X132619467Y-106332784D01*
X132643735Y-106329184D01*
X132668239Y-106327980D01*
X133318241Y-106327980D01*
X133342745Y-106329184D01*
X133342745Y-106329184D01*
G37*
D14*
X132993240Y-107027980D03*
D13*
G36*
X131292745Y-106329184D02*
X131317013Y-106332784D01*
X131340812Y-106338745D01*
X131363911Y-106347010D01*
X131386090Y-106357500D01*
X131407133Y-106370112D01*
X131426839Y-106384727D01*
X131445017Y-106401203D01*
X131461493Y-106419381D01*
X131476108Y-106439087D01*
X131488720Y-106460130D01*
X131499210Y-106482309D01*
X131507475Y-106505408D01*
X131513436Y-106529207D01*
X131517036Y-106553475D01*
X131518240Y-106577979D01*
X131518240Y-107477981D01*
X131517036Y-107502485D01*
X131513436Y-107526753D01*
X131507475Y-107550552D01*
X131499210Y-107573651D01*
X131488720Y-107595830D01*
X131476108Y-107616873D01*
X131461493Y-107636579D01*
X131445017Y-107654757D01*
X131426839Y-107671233D01*
X131407133Y-107685848D01*
X131386090Y-107698460D01*
X131363911Y-107708950D01*
X131340812Y-107717215D01*
X131317013Y-107723176D01*
X131292745Y-107726776D01*
X131268241Y-107727980D01*
X130618239Y-107727980D01*
X130593735Y-107726776D01*
X130569467Y-107723176D01*
X130545668Y-107717215D01*
X130522569Y-107708950D01*
X130500390Y-107698460D01*
X130479347Y-107685848D01*
X130459641Y-107671233D01*
X130441463Y-107654757D01*
X130424987Y-107636579D01*
X130410372Y-107616873D01*
X130397760Y-107595830D01*
X130387270Y-107573651D01*
X130379005Y-107550552D01*
X130373044Y-107526753D01*
X130369444Y-107502485D01*
X130368240Y-107477981D01*
X130368240Y-106577979D01*
X130369444Y-106553475D01*
X130373044Y-106529207D01*
X130379005Y-106505408D01*
X130387270Y-106482309D01*
X130397760Y-106460130D01*
X130410372Y-106439087D01*
X130424987Y-106419381D01*
X130441463Y-106401203D01*
X130459641Y-106384727D01*
X130479347Y-106370112D01*
X130500390Y-106357500D01*
X130522569Y-106347010D01*
X130545668Y-106338745D01*
X130569467Y-106332784D01*
X130593735Y-106329184D01*
X130618239Y-106327980D01*
X131268241Y-106327980D01*
X131292745Y-106329184D01*
X131292745Y-106329184D01*
G37*
D14*
X130943240Y-107027980D03*
D13*
G36*
X158386305Y-108842944D02*
X158410573Y-108846544D01*
X158434372Y-108852505D01*
X158457471Y-108860770D01*
X158479650Y-108871260D01*
X158500693Y-108883872D01*
X158520399Y-108898487D01*
X158538577Y-108914963D01*
X158555053Y-108933141D01*
X158569668Y-108952847D01*
X158582280Y-108973890D01*
X158592770Y-108996069D01*
X158601035Y-109019168D01*
X158606996Y-109042967D01*
X158610596Y-109067235D01*
X158611800Y-109091739D01*
X158611800Y-109741741D01*
X158610596Y-109766245D01*
X158606996Y-109790513D01*
X158601035Y-109814312D01*
X158592770Y-109837411D01*
X158582280Y-109859590D01*
X158569668Y-109880633D01*
X158555053Y-109900339D01*
X158538577Y-109918517D01*
X158520399Y-109934993D01*
X158500693Y-109949608D01*
X158479650Y-109962220D01*
X158457471Y-109972710D01*
X158434372Y-109980975D01*
X158410573Y-109986936D01*
X158386305Y-109990536D01*
X158361801Y-109991740D01*
X157461799Y-109991740D01*
X157437295Y-109990536D01*
X157413027Y-109986936D01*
X157389228Y-109980975D01*
X157366129Y-109972710D01*
X157343950Y-109962220D01*
X157322907Y-109949608D01*
X157303201Y-109934993D01*
X157285023Y-109918517D01*
X157268547Y-109900339D01*
X157253932Y-109880633D01*
X157241320Y-109859590D01*
X157230830Y-109837411D01*
X157222565Y-109814312D01*
X157216604Y-109790513D01*
X157213004Y-109766245D01*
X157211800Y-109741741D01*
X157211800Y-109091739D01*
X157213004Y-109067235D01*
X157216604Y-109042967D01*
X157222565Y-109019168D01*
X157230830Y-108996069D01*
X157241320Y-108973890D01*
X157253932Y-108952847D01*
X157268547Y-108933141D01*
X157285023Y-108914963D01*
X157303201Y-108898487D01*
X157322907Y-108883872D01*
X157343950Y-108871260D01*
X157366129Y-108860770D01*
X157389228Y-108852505D01*
X157413027Y-108846544D01*
X157437295Y-108842944D01*
X157461799Y-108841740D01*
X158361801Y-108841740D01*
X158386305Y-108842944D01*
X158386305Y-108842944D01*
G37*
D14*
X157911800Y-109416740D03*
D13*
G36*
X158386305Y-110892944D02*
X158410573Y-110896544D01*
X158434372Y-110902505D01*
X158457471Y-110910770D01*
X158479650Y-110921260D01*
X158500693Y-110933872D01*
X158520399Y-110948487D01*
X158538577Y-110964963D01*
X158555053Y-110983141D01*
X158569668Y-111002847D01*
X158582280Y-111023890D01*
X158592770Y-111046069D01*
X158601035Y-111069168D01*
X158606996Y-111092967D01*
X158610596Y-111117235D01*
X158611800Y-111141739D01*
X158611800Y-111791741D01*
X158610596Y-111816245D01*
X158606996Y-111840513D01*
X158601035Y-111864312D01*
X158592770Y-111887411D01*
X158582280Y-111909590D01*
X158569668Y-111930633D01*
X158555053Y-111950339D01*
X158538577Y-111968517D01*
X158520399Y-111984993D01*
X158500693Y-111999608D01*
X158479650Y-112012220D01*
X158457471Y-112022710D01*
X158434372Y-112030975D01*
X158410573Y-112036936D01*
X158386305Y-112040536D01*
X158361801Y-112041740D01*
X157461799Y-112041740D01*
X157437295Y-112040536D01*
X157413027Y-112036936D01*
X157389228Y-112030975D01*
X157366129Y-112022710D01*
X157343950Y-112012220D01*
X157322907Y-111999608D01*
X157303201Y-111984993D01*
X157285023Y-111968517D01*
X157268547Y-111950339D01*
X157253932Y-111930633D01*
X157241320Y-111909590D01*
X157230830Y-111887411D01*
X157222565Y-111864312D01*
X157216604Y-111840513D01*
X157213004Y-111816245D01*
X157211800Y-111791741D01*
X157211800Y-111141739D01*
X157213004Y-111117235D01*
X157216604Y-111092967D01*
X157222565Y-111069168D01*
X157230830Y-111046069D01*
X157241320Y-111023890D01*
X157253932Y-111002847D01*
X157268547Y-110983141D01*
X157285023Y-110964963D01*
X157303201Y-110948487D01*
X157322907Y-110933872D01*
X157343950Y-110921260D01*
X157366129Y-110910770D01*
X157389228Y-110902505D01*
X157413027Y-110896544D01*
X157437295Y-110892944D01*
X157461799Y-110891740D01*
X158361801Y-110891740D01*
X158386305Y-110892944D01*
X158386305Y-110892944D01*
G37*
D14*
X157911800Y-111466740D03*
D13*
G36*
X157490305Y-82732584D02*
X157514573Y-82736184D01*
X157538372Y-82742145D01*
X157561471Y-82750410D01*
X157583650Y-82760900D01*
X157604693Y-82773512D01*
X157624399Y-82788127D01*
X157642577Y-82804603D01*
X157659053Y-82822781D01*
X157673668Y-82842487D01*
X157686280Y-82863530D01*
X157696770Y-82885709D01*
X157705035Y-82908808D01*
X157710996Y-82932607D01*
X157714596Y-82956875D01*
X157715800Y-82981379D01*
X157715800Y-83881381D01*
X157714596Y-83905885D01*
X157710996Y-83930153D01*
X157705035Y-83953952D01*
X157696770Y-83977051D01*
X157686280Y-83999230D01*
X157673668Y-84020273D01*
X157659053Y-84039979D01*
X157642577Y-84058157D01*
X157624399Y-84074633D01*
X157604693Y-84089248D01*
X157583650Y-84101860D01*
X157561471Y-84112350D01*
X157538372Y-84120615D01*
X157514573Y-84126576D01*
X157490305Y-84130176D01*
X157465801Y-84131380D01*
X156815799Y-84131380D01*
X156791295Y-84130176D01*
X156767027Y-84126576D01*
X156743228Y-84120615D01*
X156720129Y-84112350D01*
X156697950Y-84101860D01*
X156676907Y-84089248D01*
X156657201Y-84074633D01*
X156639023Y-84058157D01*
X156622547Y-84039979D01*
X156607932Y-84020273D01*
X156595320Y-83999230D01*
X156584830Y-83977051D01*
X156576565Y-83953952D01*
X156570604Y-83930153D01*
X156567004Y-83905885D01*
X156565800Y-83881381D01*
X156565800Y-82981379D01*
X156567004Y-82956875D01*
X156570604Y-82932607D01*
X156576565Y-82908808D01*
X156584830Y-82885709D01*
X156595320Y-82863530D01*
X156607932Y-82842487D01*
X156622547Y-82822781D01*
X156639023Y-82804603D01*
X156657201Y-82788127D01*
X156676907Y-82773512D01*
X156697950Y-82760900D01*
X156720129Y-82750410D01*
X156743228Y-82742145D01*
X156767027Y-82736184D01*
X156791295Y-82732584D01*
X156815799Y-82731380D01*
X157465801Y-82731380D01*
X157490305Y-82732584D01*
X157490305Y-82732584D01*
G37*
D14*
X157140800Y-83431380D03*
D13*
G36*
X159540305Y-82732584D02*
X159564573Y-82736184D01*
X159588372Y-82742145D01*
X159611471Y-82750410D01*
X159633650Y-82760900D01*
X159654693Y-82773512D01*
X159674399Y-82788127D01*
X159692577Y-82804603D01*
X159709053Y-82822781D01*
X159723668Y-82842487D01*
X159736280Y-82863530D01*
X159746770Y-82885709D01*
X159755035Y-82908808D01*
X159760996Y-82932607D01*
X159764596Y-82956875D01*
X159765800Y-82981379D01*
X159765800Y-83881381D01*
X159764596Y-83905885D01*
X159760996Y-83930153D01*
X159755035Y-83953952D01*
X159746770Y-83977051D01*
X159736280Y-83999230D01*
X159723668Y-84020273D01*
X159709053Y-84039979D01*
X159692577Y-84058157D01*
X159674399Y-84074633D01*
X159654693Y-84089248D01*
X159633650Y-84101860D01*
X159611471Y-84112350D01*
X159588372Y-84120615D01*
X159564573Y-84126576D01*
X159540305Y-84130176D01*
X159515801Y-84131380D01*
X158865799Y-84131380D01*
X158841295Y-84130176D01*
X158817027Y-84126576D01*
X158793228Y-84120615D01*
X158770129Y-84112350D01*
X158747950Y-84101860D01*
X158726907Y-84089248D01*
X158707201Y-84074633D01*
X158689023Y-84058157D01*
X158672547Y-84039979D01*
X158657932Y-84020273D01*
X158645320Y-83999230D01*
X158634830Y-83977051D01*
X158626565Y-83953952D01*
X158620604Y-83930153D01*
X158617004Y-83905885D01*
X158615800Y-83881381D01*
X158615800Y-82981379D01*
X158617004Y-82956875D01*
X158620604Y-82932607D01*
X158626565Y-82908808D01*
X158634830Y-82885709D01*
X158645320Y-82863530D01*
X158657932Y-82842487D01*
X158672547Y-82822781D01*
X158689023Y-82804603D01*
X158707201Y-82788127D01*
X158726907Y-82773512D01*
X158747950Y-82760900D01*
X158770129Y-82750410D01*
X158793228Y-82742145D01*
X158817027Y-82736184D01*
X158841295Y-82732584D01*
X158865799Y-82731380D01*
X159515801Y-82731380D01*
X159540305Y-82732584D01*
X159540305Y-82732584D01*
G37*
D14*
X159190800Y-83431380D03*
D13*
G36*
X157490305Y-80695504D02*
X157514573Y-80699104D01*
X157538372Y-80705065D01*
X157561471Y-80713330D01*
X157583650Y-80723820D01*
X157604693Y-80736432D01*
X157624399Y-80751047D01*
X157642577Y-80767523D01*
X157659053Y-80785701D01*
X157673668Y-80805407D01*
X157686280Y-80826450D01*
X157696770Y-80848629D01*
X157705035Y-80871728D01*
X157710996Y-80895527D01*
X157714596Y-80919795D01*
X157715800Y-80944299D01*
X157715800Y-81844301D01*
X157714596Y-81868805D01*
X157710996Y-81893073D01*
X157705035Y-81916872D01*
X157696770Y-81939971D01*
X157686280Y-81962150D01*
X157673668Y-81983193D01*
X157659053Y-82002899D01*
X157642577Y-82021077D01*
X157624399Y-82037553D01*
X157604693Y-82052168D01*
X157583650Y-82064780D01*
X157561471Y-82075270D01*
X157538372Y-82083535D01*
X157514573Y-82089496D01*
X157490305Y-82093096D01*
X157465801Y-82094300D01*
X156815799Y-82094300D01*
X156791295Y-82093096D01*
X156767027Y-82089496D01*
X156743228Y-82083535D01*
X156720129Y-82075270D01*
X156697950Y-82064780D01*
X156676907Y-82052168D01*
X156657201Y-82037553D01*
X156639023Y-82021077D01*
X156622547Y-82002899D01*
X156607932Y-81983193D01*
X156595320Y-81962150D01*
X156584830Y-81939971D01*
X156576565Y-81916872D01*
X156570604Y-81893073D01*
X156567004Y-81868805D01*
X156565800Y-81844301D01*
X156565800Y-80944299D01*
X156567004Y-80919795D01*
X156570604Y-80895527D01*
X156576565Y-80871728D01*
X156584830Y-80848629D01*
X156595320Y-80826450D01*
X156607932Y-80805407D01*
X156622547Y-80785701D01*
X156639023Y-80767523D01*
X156657201Y-80751047D01*
X156676907Y-80736432D01*
X156697950Y-80723820D01*
X156720129Y-80713330D01*
X156743228Y-80705065D01*
X156767027Y-80699104D01*
X156791295Y-80695504D01*
X156815799Y-80694300D01*
X157465801Y-80694300D01*
X157490305Y-80695504D01*
X157490305Y-80695504D01*
G37*
D14*
X157140800Y-81394300D03*
D13*
G36*
X159540305Y-80695504D02*
X159564573Y-80699104D01*
X159588372Y-80705065D01*
X159611471Y-80713330D01*
X159633650Y-80723820D01*
X159654693Y-80736432D01*
X159674399Y-80751047D01*
X159692577Y-80767523D01*
X159709053Y-80785701D01*
X159723668Y-80805407D01*
X159736280Y-80826450D01*
X159746770Y-80848629D01*
X159755035Y-80871728D01*
X159760996Y-80895527D01*
X159764596Y-80919795D01*
X159765800Y-80944299D01*
X159765800Y-81844301D01*
X159764596Y-81868805D01*
X159760996Y-81893073D01*
X159755035Y-81916872D01*
X159746770Y-81939971D01*
X159736280Y-81962150D01*
X159723668Y-81983193D01*
X159709053Y-82002899D01*
X159692577Y-82021077D01*
X159674399Y-82037553D01*
X159654693Y-82052168D01*
X159633650Y-82064780D01*
X159611471Y-82075270D01*
X159588372Y-82083535D01*
X159564573Y-82089496D01*
X159540305Y-82093096D01*
X159515801Y-82094300D01*
X158865799Y-82094300D01*
X158841295Y-82093096D01*
X158817027Y-82089496D01*
X158793228Y-82083535D01*
X158770129Y-82075270D01*
X158747950Y-82064780D01*
X158726907Y-82052168D01*
X158707201Y-82037553D01*
X158689023Y-82021077D01*
X158672547Y-82002899D01*
X158657932Y-81983193D01*
X158645320Y-81962150D01*
X158634830Y-81939971D01*
X158626565Y-81916872D01*
X158620604Y-81893073D01*
X158617004Y-81868805D01*
X158615800Y-81844301D01*
X158615800Y-80944299D01*
X158617004Y-80919795D01*
X158620604Y-80895527D01*
X158626565Y-80871728D01*
X158634830Y-80848629D01*
X158645320Y-80826450D01*
X158657932Y-80805407D01*
X158672547Y-80785701D01*
X158689023Y-80767523D01*
X158707201Y-80751047D01*
X158726907Y-80736432D01*
X158747950Y-80723820D01*
X158770129Y-80713330D01*
X158793228Y-80705065D01*
X158817027Y-80699104D01*
X158841295Y-80695504D01*
X158865799Y-80694300D01*
X159515801Y-80694300D01*
X159540305Y-80695504D01*
X159540305Y-80695504D01*
G37*
D14*
X159190800Y-81394300D03*
D13*
G36*
X133350386Y-117322183D02*
X133374654Y-117325783D01*
X133398453Y-117331744D01*
X133421552Y-117340009D01*
X133443731Y-117350499D01*
X133464774Y-117363111D01*
X133484480Y-117377726D01*
X133502658Y-117394202D01*
X133519134Y-117412380D01*
X133533749Y-117432086D01*
X133546361Y-117453129D01*
X133556851Y-117475308D01*
X133565116Y-117498407D01*
X133571077Y-117522206D01*
X133574677Y-117546474D01*
X133575881Y-117570978D01*
X133575881Y-118220980D01*
X133574677Y-118245484D01*
X133571077Y-118269752D01*
X133565116Y-118293551D01*
X133556851Y-118316650D01*
X133546361Y-118338829D01*
X133533749Y-118359872D01*
X133519134Y-118379578D01*
X133502658Y-118397756D01*
X133484480Y-118414232D01*
X133464774Y-118428847D01*
X133443731Y-118441459D01*
X133421552Y-118451949D01*
X133398453Y-118460214D01*
X133374654Y-118466175D01*
X133350386Y-118469775D01*
X133325882Y-118470979D01*
X132425880Y-118470979D01*
X132401376Y-118469775D01*
X132377108Y-118466175D01*
X132353309Y-118460214D01*
X132330210Y-118451949D01*
X132308031Y-118441459D01*
X132286988Y-118428847D01*
X132267282Y-118414232D01*
X132249104Y-118397756D01*
X132232628Y-118379578D01*
X132218013Y-118359872D01*
X132205401Y-118338829D01*
X132194911Y-118316650D01*
X132186646Y-118293551D01*
X132180685Y-118269752D01*
X132177085Y-118245484D01*
X132175881Y-118220980D01*
X132175881Y-117570978D01*
X132177085Y-117546474D01*
X132180685Y-117522206D01*
X132186646Y-117498407D01*
X132194911Y-117475308D01*
X132205401Y-117453129D01*
X132218013Y-117432086D01*
X132232628Y-117412380D01*
X132249104Y-117394202D01*
X132267282Y-117377726D01*
X132286988Y-117363111D01*
X132308031Y-117350499D01*
X132330210Y-117340009D01*
X132353309Y-117331744D01*
X132377108Y-117325783D01*
X132401376Y-117322183D01*
X132425880Y-117320979D01*
X133325882Y-117320979D01*
X133350386Y-117322183D01*
X133350386Y-117322183D01*
G37*
D14*
X132875881Y-117895979D03*
D13*
G36*
X133350386Y-115272183D02*
X133374654Y-115275783D01*
X133398453Y-115281744D01*
X133421552Y-115290009D01*
X133443731Y-115300499D01*
X133464774Y-115313111D01*
X133484480Y-115327726D01*
X133502658Y-115344202D01*
X133519134Y-115362380D01*
X133533749Y-115382086D01*
X133546361Y-115403129D01*
X133556851Y-115425308D01*
X133565116Y-115448407D01*
X133571077Y-115472206D01*
X133574677Y-115496474D01*
X133575881Y-115520978D01*
X133575881Y-116170980D01*
X133574677Y-116195484D01*
X133571077Y-116219752D01*
X133565116Y-116243551D01*
X133556851Y-116266650D01*
X133546361Y-116288829D01*
X133533749Y-116309872D01*
X133519134Y-116329578D01*
X133502658Y-116347756D01*
X133484480Y-116364232D01*
X133464774Y-116378847D01*
X133443731Y-116391459D01*
X133421552Y-116401949D01*
X133398453Y-116410214D01*
X133374654Y-116416175D01*
X133350386Y-116419775D01*
X133325882Y-116420979D01*
X132425880Y-116420979D01*
X132401376Y-116419775D01*
X132377108Y-116416175D01*
X132353309Y-116410214D01*
X132330210Y-116401949D01*
X132308031Y-116391459D01*
X132286988Y-116378847D01*
X132267282Y-116364232D01*
X132249104Y-116347756D01*
X132232628Y-116329578D01*
X132218013Y-116309872D01*
X132205401Y-116288829D01*
X132194911Y-116266650D01*
X132186646Y-116243551D01*
X132180685Y-116219752D01*
X132177085Y-116195484D01*
X132175881Y-116170980D01*
X132175881Y-115520978D01*
X132177085Y-115496474D01*
X132180685Y-115472206D01*
X132186646Y-115448407D01*
X132194911Y-115425308D01*
X132205401Y-115403129D01*
X132218013Y-115382086D01*
X132232628Y-115362380D01*
X132249104Y-115344202D01*
X132267282Y-115327726D01*
X132286988Y-115313111D01*
X132308031Y-115300499D01*
X132330210Y-115290009D01*
X132353309Y-115281744D01*
X132377108Y-115275783D01*
X132401376Y-115272183D01*
X132425880Y-115270979D01*
X133325882Y-115270979D01*
X133350386Y-115272183D01*
X133350386Y-115272183D01*
G37*
D14*
X132875881Y-115845979D03*
D13*
G36*
X131297205Y-117340844D02*
X131321473Y-117344444D01*
X131345272Y-117350405D01*
X131368371Y-117358670D01*
X131390550Y-117369160D01*
X131411593Y-117381772D01*
X131431299Y-117396387D01*
X131449477Y-117412863D01*
X131465953Y-117431041D01*
X131480568Y-117450747D01*
X131493180Y-117471790D01*
X131503670Y-117493969D01*
X131511935Y-117517068D01*
X131517896Y-117540867D01*
X131521496Y-117565135D01*
X131522700Y-117589639D01*
X131522700Y-118239641D01*
X131521496Y-118264145D01*
X131517896Y-118288413D01*
X131511935Y-118312212D01*
X131503670Y-118335311D01*
X131493180Y-118357490D01*
X131480568Y-118378533D01*
X131465953Y-118398239D01*
X131449477Y-118416417D01*
X131431299Y-118432893D01*
X131411593Y-118447508D01*
X131390550Y-118460120D01*
X131368371Y-118470610D01*
X131345272Y-118478875D01*
X131321473Y-118484836D01*
X131297205Y-118488436D01*
X131272701Y-118489640D01*
X130372699Y-118489640D01*
X130348195Y-118488436D01*
X130323927Y-118484836D01*
X130300128Y-118478875D01*
X130277029Y-118470610D01*
X130254850Y-118460120D01*
X130233807Y-118447508D01*
X130214101Y-118432893D01*
X130195923Y-118416417D01*
X130179447Y-118398239D01*
X130164832Y-118378533D01*
X130152220Y-118357490D01*
X130141730Y-118335311D01*
X130133465Y-118312212D01*
X130127504Y-118288413D01*
X130123904Y-118264145D01*
X130122700Y-118239641D01*
X130122700Y-117589639D01*
X130123904Y-117565135D01*
X130127504Y-117540867D01*
X130133465Y-117517068D01*
X130141730Y-117493969D01*
X130152220Y-117471790D01*
X130164832Y-117450747D01*
X130179447Y-117431041D01*
X130195923Y-117412863D01*
X130214101Y-117396387D01*
X130233807Y-117381772D01*
X130254850Y-117369160D01*
X130277029Y-117358670D01*
X130300128Y-117350405D01*
X130323927Y-117344444D01*
X130348195Y-117340844D01*
X130372699Y-117339640D01*
X131272701Y-117339640D01*
X131297205Y-117340844D01*
X131297205Y-117340844D01*
G37*
D14*
X130822700Y-117914640D03*
D13*
G36*
X131297205Y-115290844D02*
X131321473Y-115294444D01*
X131345272Y-115300405D01*
X131368371Y-115308670D01*
X131390550Y-115319160D01*
X131411593Y-115331772D01*
X131431299Y-115346387D01*
X131449477Y-115362863D01*
X131465953Y-115381041D01*
X131480568Y-115400747D01*
X131493180Y-115421790D01*
X131503670Y-115443969D01*
X131511935Y-115467068D01*
X131517896Y-115490867D01*
X131521496Y-115515135D01*
X131522700Y-115539639D01*
X131522700Y-116189641D01*
X131521496Y-116214145D01*
X131517896Y-116238413D01*
X131511935Y-116262212D01*
X131503670Y-116285311D01*
X131493180Y-116307490D01*
X131480568Y-116328533D01*
X131465953Y-116348239D01*
X131449477Y-116366417D01*
X131431299Y-116382893D01*
X131411593Y-116397508D01*
X131390550Y-116410120D01*
X131368371Y-116420610D01*
X131345272Y-116428875D01*
X131321473Y-116434836D01*
X131297205Y-116438436D01*
X131272701Y-116439640D01*
X130372699Y-116439640D01*
X130348195Y-116438436D01*
X130323927Y-116434836D01*
X130300128Y-116428875D01*
X130277029Y-116420610D01*
X130254850Y-116410120D01*
X130233807Y-116397508D01*
X130214101Y-116382893D01*
X130195923Y-116366417D01*
X130179447Y-116348239D01*
X130164832Y-116328533D01*
X130152220Y-116307490D01*
X130141730Y-116285311D01*
X130133465Y-116262212D01*
X130127504Y-116238413D01*
X130123904Y-116214145D01*
X130122700Y-116189641D01*
X130122700Y-115539639D01*
X130123904Y-115515135D01*
X130127504Y-115490867D01*
X130133465Y-115467068D01*
X130141730Y-115443969D01*
X130152220Y-115421790D01*
X130164832Y-115400747D01*
X130179447Y-115381041D01*
X130195923Y-115362863D01*
X130214101Y-115346387D01*
X130233807Y-115331772D01*
X130254850Y-115319160D01*
X130277029Y-115308670D01*
X130300128Y-115300405D01*
X130323927Y-115294444D01*
X130348195Y-115290844D01*
X130372699Y-115289640D01*
X131272701Y-115289640D01*
X131297205Y-115290844D01*
X131297205Y-115290844D01*
G37*
D14*
X130822700Y-115864640D03*
D13*
G36*
X158435405Y-115242044D02*
X158459673Y-115245644D01*
X158483472Y-115251605D01*
X158506571Y-115259870D01*
X158528750Y-115270360D01*
X158549793Y-115282972D01*
X158569499Y-115297587D01*
X158587677Y-115314063D01*
X158604153Y-115332241D01*
X158618768Y-115351947D01*
X158631380Y-115372990D01*
X158641870Y-115395169D01*
X158650135Y-115418268D01*
X158656096Y-115442067D01*
X158659696Y-115466335D01*
X158660900Y-115490839D01*
X158660900Y-116390841D01*
X158659696Y-116415345D01*
X158656096Y-116439613D01*
X158650135Y-116463412D01*
X158641870Y-116486511D01*
X158631380Y-116508690D01*
X158618768Y-116529733D01*
X158604153Y-116549439D01*
X158587677Y-116567617D01*
X158569499Y-116584093D01*
X158549793Y-116598708D01*
X158528750Y-116611320D01*
X158506571Y-116621810D01*
X158483472Y-116630075D01*
X158459673Y-116636036D01*
X158435405Y-116639636D01*
X158410901Y-116640840D01*
X157760899Y-116640840D01*
X157736395Y-116639636D01*
X157712127Y-116636036D01*
X157688328Y-116630075D01*
X157665229Y-116621810D01*
X157643050Y-116611320D01*
X157622007Y-116598708D01*
X157602301Y-116584093D01*
X157584123Y-116567617D01*
X157567647Y-116549439D01*
X157553032Y-116529733D01*
X157540420Y-116508690D01*
X157529930Y-116486511D01*
X157521665Y-116463412D01*
X157515704Y-116439613D01*
X157512104Y-116415345D01*
X157510900Y-116390841D01*
X157510900Y-115490839D01*
X157512104Y-115466335D01*
X157515704Y-115442067D01*
X157521665Y-115418268D01*
X157529930Y-115395169D01*
X157540420Y-115372990D01*
X157553032Y-115351947D01*
X157567647Y-115332241D01*
X157584123Y-115314063D01*
X157602301Y-115297587D01*
X157622007Y-115282972D01*
X157643050Y-115270360D01*
X157665229Y-115259870D01*
X157688328Y-115251605D01*
X157712127Y-115245644D01*
X157736395Y-115242044D01*
X157760899Y-115240840D01*
X158410901Y-115240840D01*
X158435405Y-115242044D01*
X158435405Y-115242044D01*
G37*
D14*
X158085900Y-115940840D03*
D13*
G36*
X156385405Y-115242044D02*
X156409673Y-115245644D01*
X156433472Y-115251605D01*
X156456571Y-115259870D01*
X156478750Y-115270360D01*
X156499793Y-115282972D01*
X156519499Y-115297587D01*
X156537677Y-115314063D01*
X156554153Y-115332241D01*
X156568768Y-115351947D01*
X156581380Y-115372990D01*
X156591870Y-115395169D01*
X156600135Y-115418268D01*
X156606096Y-115442067D01*
X156609696Y-115466335D01*
X156610900Y-115490839D01*
X156610900Y-116390841D01*
X156609696Y-116415345D01*
X156606096Y-116439613D01*
X156600135Y-116463412D01*
X156591870Y-116486511D01*
X156581380Y-116508690D01*
X156568768Y-116529733D01*
X156554153Y-116549439D01*
X156537677Y-116567617D01*
X156519499Y-116584093D01*
X156499793Y-116598708D01*
X156478750Y-116611320D01*
X156456571Y-116621810D01*
X156433472Y-116630075D01*
X156409673Y-116636036D01*
X156385405Y-116639636D01*
X156360901Y-116640840D01*
X155710899Y-116640840D01*
X155686395Y-116639636D01*
X155662127Y-116636036D01*
X155638328Y-116630075D01*
X155615229Y-116621810D01*
X155593050Y-116611320D01*
X155572007Y-116598708D01*
X155552301Y-116584093D01*
X155534123Y-116567617D01*
X155517647Y-116549439D01*
X155503032Y-116529733D01*
X155490420Y-116508690D01*
X155479930Y-116486511D01*
X155471665Y-116463412D01*
X155465704Y-116439613D01*
X155462104Y-116415345D01*
X155460900Y-116390841D01*
X155460900Y-115490839D01*
X155462104Y-115466335D01*
X155465704Y-115442067D01*
X155471665Y-115418268D01*
X155479930Y-115395169D01*
X155490420Y-115372990D01*
X155503032Y-115351947D01*
X155517647Y-115332241D01*
X155534123Y-115314063D01*
X155552301Y-115297587D01*
X155572007Y-115282972D01*
X155593050Y-115270360D01*
X155615229Y-115259870D01*
X155638328Y-115251605D01*
X155662127Y-115245644D01*
X155686395Y-115242044D01*
X155710899Y-115240840D01*
X156360901Y-115240840D01*
X156385405Y-115242044D01*
X156385405Y-115242044D01*
G37*
D14*
X156035900Y-115940840D03*
D13*
G36*
X126700425Y-84947464D02*
X126724693Y-84951064D01*
X126748492Y-84957025D01*
X126771591Y-84965290D01*
X126793770Y-84975780D01*
X126814813Y-84988392D01*
X126834519Y-85003007D01*
X126852697Y-85019483D01*
X126869173Y-85037661D01*
X126883788Y-85057367D01*
X126896400Y-85078410D01*
X126906890Y-85100589D01*
X126915155Y-85123688D01*
X126921116Y-85147487D01*
X126924716Y-85171755D01*
X126925920Y-85196259D01*
X126925920Y-86096261D01*
X126924716Y-86120765D01*
X126921116Y-86145033D01*
X126915155Y-86168832D01*
X126906890Y-86191931D01*
X126896400Y-86214110D01*
X126883788Y-86235153D01*
X126869173Y-86254859D01*
X126852697Y-86273037D01*
X126834519Y-86289513D01*
X126814813Y-86304128D01*
X126793770Y-86316740D01*
X126771591Y-86327230D01*
X126748492Y-86335495D01*
X126724693Y-86341456D01*
X126700425Y-86345056D01*
X126675921Y-86346260D01*
X126025919Y-86346260D01*
X126001415Y-86345056D01*
X125977147Y-86341456D01*
X125953348Y-86335495D01*
X125930249Y-86327230D01*
X125908070Y-86316740D01*
X125887027Y-86304128D01*
X125867321Y-86289513D01*
X125849143Y-86273037D01*
X125832667Y-86254859D01*
X125818052Y-86235153D01*
X125805440Y-86214110D01*
X125794950Y-86191931D01*
X125786685Y-86168832D01*
X125780724Y-86145033D01*
X125777124Y-86120765D01*
X125775920Y-86096261D01*
X125775920Y-85196259D01*
X125777124Y-85171755D01*
X125780724Y-85147487D01*
X125786685Y-85123688D01*
X125794950Y-85100589D01*
X125805440Y-85078410D01*
X125818052Y-85057367D01*
X125832667Y-85037661D01*
X125849143Y-85019483D01*
X125867321Y-85003007D01*
X125887027Y-84988392D01*
X125908070Y-84975780D01*
X125930249Y-84965290D01*
X125953348Y-84957025D01*
X125977147Y-84951064D01*
X126001415Y-84947464D01*
X126025919Y-84946260D01*
X126675921Y-84946260D01*
X126700425Y-84947464D01*
X126700425Y-84947464D01*
G37*
D14*
X126350920Y-85646260D03*
D13*
G36*
X128750425Y-84947464D02*
X128774693Y-84951064D01*
X128798492Y-84957025D01*
X128821591Y-84965290D01*
X128843770Y-84975780D01*
X128864813Y-84988392D01*
X128884519Y-85003007D01*
X128902697Y-85019483D01*
X128919173Y-85037661D01*
X128933788Y-85057367D01*
X128946400Y-85078410D01*
X128956890Y-85100589D01*
X128965155Y-85123688D01*
X128971116Y-85147487D01*
X128974716Y-85171755D01*
X128975920Y-85196259D01*
X128975920Y-86096261D01*
X128974716Y-86120765D01*
X128971116Y-86145033D01*
X128965155Y-86168832D01*
X128956890Y-86191931D01*
X128946400Y-86214110D01*
X128933788Y-86235153D01*
X128919173Y-86254859D01*
X128902697Y-86273037D01*
X128884519Y-86289513D01*
X128864813Y-86304128D01*
X128843770Y-86316740D01*
X128821591Y-86327230D01*
X128798492Y-86335495D01*
X128774693Y-86341456D01*
X128750425Y-86345056D01*
X128725921Y-86346260D01*
X128075919Y-86346260D01*
X128051415Y-86345056D01*
X128027147Y-86341456D01*
X128003348Y-86335495D01*
X127980249Y-86327230D01*
X127958070Y-86316740D01*
X127937027Y-86304128D01*
X127917321Y-86289513D01*
X127899143Y-86273037D01*
X127882667Y-86254859D01*
X127868052Y-86235153D01*
X127855440Y-86214110D01*
X127844950Y-86191931D01*
X127836685Y-86168832D01*
X127830724Y-86145033D01*
X127827124Y-86120765D01*
X127825920Y-86096261D01*
X127825920Y-85196259D01*
X127827124Y-85171755D01*
X127830724Y-85147487D01*
X127836685Y-85123688D01*
X127844950Y-85100589D01*
X127855440Y-85078410D01*
X127868052Y-85057367D01*
X127882667Y-85037661D01*
X127899143Y-85019483D01*
X127917321Y-85003007D01*
X127937027Y-84988392D01*
X127958070Y-84975780D01*
X127980249Y-84965290D01*
X128003348Y-84957025D01*
X128027147Y-84951064D01*
X128051415Y-84947464D01*
X128075919Y-84946260D01*
X128725921Y-84946260D01*
X128750425Y-84947464D01*
X128750425Y-84947464D01*
G37*
D14*
X128400920Y-85646260D03*
D13*
G36*
X156464145Y-113057644D02*
X156488413Y-113061244D01*
X156512212Y-113067205D01*
X156535311Y-113075470D01*
X156557490Y-113085960D01*
X156578533Y-113098572D01*
X156598239Y-113113187D01*
X156616417Y-113129663D01*
X156632893Y-113147841D01*
X156647508Y-113167547D01*
X156660120Y-113188590D01*
X156670610Y-113210769D01*
X156678875Y-113233868D01*
X156684836Y-113257667D01*
X156688436Y-113281935D01*
X156689640Y-113306439D01*
X156689640Y-114206441D01*
X156688436Y-114230945D01*
X156684836Y-114255213D01*
X156678875Y-114279012D01*
X156670610Y-114302111D01*
X156660120Y-114324290D01*
X156647508Y-114345333D01*
X156632893Y-114365039D01*
X156616417Y-114383217D01*
X156598239Y-114399693D01*
X156578533Y-114414308D01*
X156557490Y-114426920D01*
X156535311Y-114437410D01*
X156512212Y-114445675D01*
X156488413Y-114451636D01*
X156464145Y-114455236D01*
X156439641Y-114456440D01*
X155789639Y-114456440D01*
X155765135Y-114455236D01*
X155740867Y-114451636D01*
X155717068Y-114445675D01*
X155693969Y-114437410D01*
X155671790Y-114426920D01*
X155650747Y-114414308D01*
X155631041Y-114399693D01*
X155612863Y-114383217D01*
X155596387Y-114365039D01*
X155581772Y-114345333D01*
X155569160Y-114324290D01*
X155558670Y-114302111D01*
X155550405Y-114279012D01*
X155544444Y-114255213D01*
X155540844Y-114230945D01*
X155539640Y-114206441D01*
X155539640Y-113306439D01*
X155540844Y-113281935D01*
X155544444Y-113257667D01*
X155550405Y-113233868D01*
X155558670Y-113210769D01*
X155569160Y-113188590D01*
X155581772Y-113167547D01*
X155596387Y-113147841D01*
X155612863Y-113129663D01*
X155631041Y-113113187D01*
X155650747Y-113098572D01*
X155671790Y-113085960D01*
X155693969Y-113075470D01*
X155717068Y-113067205D01*
X155740867Y-113061244D01*
X155765135Y-113057644D01*
X155789639Y-113056440D01*
X156439641Y-113056440D01*
X156464145Y-113057644D01*
X156464145Y-113057644D01*
G37*
D14*
X156114640Y-113756440D03*
D13*
G36*
X158514145Y-113057644D02*
X158538413Y-113061244D01*
X158562212Y-113067205D01*
X158585311Y-113075470D01*
X158607490Y-113085960D01*
X158628533Y-113098572D01*
X158648239Y-113113187D01*
X158666417Y-113129663D01*
X158682893Y-113147841D01*
X158697508Y-113167547D01*
X158710120Y-113188590D01*
X158720610Y-113210769D01*
X158728875Y-113233868D01*
X158734836Y-113257667D01*
X158738436Y-113281935D01*
X158739640Y-113306439D01*
X158739640Y-114206441D01*
X158738436Y-114230945D01*
X158734836Y-114255213D01*
X158728875Y-114279012D01*
X158720610Y-114302111D01*
X158710120Y-114324290D01*
X158697508Y-114345333D01*
X158682893Y-114365039D01*
X158666417Y-114383217D01*
X158648239Y-114399693D01*
X158628533Y-114414308D01*
X158607490Y-114426920D01*
X158585311Y-114437410D01*
X158562212Y-114445675D01*
X158538413Y-114451636D01*
X158514145Y-114455236D01*
X158489641Y-114456440D01*
X157839639Y-114456440D01*
X157815135Y-114455236D01*
X157790867Y-114451636D01*
X157767068Y-114445675D01*
X157743969Y-114437410D01*
X157721790Y-114426920D01*
X157700747Y-114414308D01*
X157681041Y-114399693D01*
X157662863Y-114383217D01*
X157646387Y-114365039D01*
X157631772Y-114345333D01*
X157619160Y-114324290D01*
X157608670Y-114302111D01*
X157600405Y-114279012D01*
X157594444Y-114255213D01*
X157590844Y-114230945D01*
X157589640Y-114206441D01*
X157589640Y-113306439D01*
X157590844Y-113281935D01*
X157594444Y-113257667D01*
X157600405Y-113233868D01*
X157608670Y-113210769D01*
X157619160Y-113188590D01*
X157631772Y-113167547D01*
X157646387Y-113147841D01*
X157662863Y-113129663D01*
X157681041Y-113113187D01*
X157700747Y-113098572D01*
X157721790Y-113085960D01*
X157743969Y-113075470D01*
X157767068Y-113067205D01*
X157790867Y-113061244D01*
X157815135Y-113057644D01*
X157839639Y-113056440D01*
X158489641Y-113056440D01*
X158514145Y-113057644D01*
X158514145Y-113057644D01*
G37*
D14*
X158164640Y-113756440D03*
D15*
X160431480Y-110284260D03*
D16*
X162971480Y-110284260D03*
D12*
X158148020Y-106949240D03*
X155648020Y-106949240D03*
X141011280Y-106959400D03*
X138511280Y-106959400D03*
X145674080Y-94112080D03*
X143174080Y-94112080D03*
D17*
X127172720Y-110037880D03*
D18*
X129712720Y-110037880D03*
X132252720Y-110037880D03*
X134792720Y-110037880D03*
X137332720Y-110037880D03*
X139872720Y-110037880D03*
X139748260Y-89037160D03*
X142288260Y-89037160D03*
X144828260Y-89037160D03*
X147368260Y-89037160D03*
X149908260Y-89037160D03*
D17*
X152448260Y-89037160D03*
X139783820Y-93164660D03*
D18*
X137243820Y-93164660D03*
X134703820Y-93164660D03*
X132163820Y-93164660D03*
X129623820Y-93164660D03*
X127083820Y-93164660D03*
D19*
X150782020Y-108780580D03*
X145882020Y-108780580D03*
D20*
X127088900Y-104521000D03*
D21*
X160108900Y-96901000D03*
X129628900Y-104521000D03*
X157568900Y-96901000D03*
X132168900Y-104521000D03*
X155028900Y-96901000D03*
X134708900Y-104521000D03*
X152488900Y-96901000D03*
X137248900Y-104521000D03*
X149948900Y-96901000D03*
X139788900Y-104521000D03*
X147408900Y-96901000D03*
X142328900Y-104521000D03*
X144868900Y-96901000D03*
X144868900Y-104521000D03*
X142328900Y-96901000D03*
X147408900Y-104521000D03*
X139788900Y-96901000D03*
X149948900Y-104521000D03*
X137248900Y-96901000D03*
X152488900Y-104521000D03*
X134708900Y-96901000D03*
X155028900Y-104521000D03*
X132168900Y-96901000D03*
X157568900Y-104521000D03*
X129628900Y-96901000D03*
X160108900Y-104521000D03*
X127088900Y-96901000D03*
D17*
X153492200Y-114427000D03*
D18*
X150952200Y-114427000D03*
X148412200Y-114427000D03*
X145872200Y-114427000D03*
X143332200Y-114427000D03*
X140792200Y-114427000D03*
X138252200Y-114427000D03*
X135712200Y-114427000D03*
D22*
X173743349Y-128869169D03*
D13*
G36*
X173743349Y-130071251D02*
X172541267Y-128869169D01*
X173743349Y-127667087D01*
X174945431Y-128869169D01*
X173743349Y-130071251D01*
X173743349Y-130071251D01*
G37*
D22*
X175539400Y-130665220D03*
D23*
X175539400Y-130665220D02*
X175539400Y-130665220D01*
D22*
X175874951Y-68358749D03*
D23*
X175874951Y-68358749D02*
X175874951Y-68358749D01*
D22*
X174078900Y-70154800D03*
D13*
G36*
X175280982Y-70154800D02*
X174078900Y-71356882D01*
X172876818Y-70154800D01*
X174078900Y-68952718D01*
X175280982Y-70154800D01*
X175280982Y-70154800D01*
G37*
D22*
X113705640Y-68277740D03*
D13*
G36*
X113705640Y-69479822D02*
X112503558Y-68277740D01*
X113705640Y-67075658D01*
X114907722Y-68277740D01*
X113705640Y-69479822D01*
X113705640Y-69479822D01*
G37*
D22*
X115501691Y-70073791D03*
D23*
X115501691Y-70073791D02*
X115501691Y-70073791D01*
D24*
X128794360Y-117462340D03*
X128794360Y-115562340D03*
X126394360Y-116512340D03*
X162378240Y-115732560D03*
X159978240Y-116682560D03*
X159978240Y-114782560D03*
X126135280Y-81343460D03*
X126135280Y-83243460D03*
X128535280Y-82293460D03*
X163297720Y-83825120D03*
X163297720Y-81925120D03*
X160897720Y-82875120D03*
D22*
X115473480Y-128529080D03*
D13*
G36*
X114271398Y-128529080D02*
X115473480Y-127326998D01*
X116675562Y-128529080D01*
X115473480Y-129731162D01*
X114271398Y-128529080D01*
X114271398Y-128529080D01*
G37*
D22*
X113677429Y-130325131D03*
D23*
X113677429Y-130325131D02*
X113677429Y-130325131D01*
D25*
X107696000Y-62661800D03*
X181584600Y-62687200D03*
X181483000Y-136347200D03*
X107848400Y-136194800D03*
D26*
X134272020Y-118049040D03*
X131729480Y-116867940D03*
X155978860Y-81442560D03*
X160652460Y-84068920D03*
X142590520Y-99791520D03*
X141683740Y-99778820D03*
X134932420Y-108496100D03*
X155089860Y-111143470D03*
X154813000Y-116804440D03*
X129578100Y-85801200D03*
X129174240Y-111747300D03*
X132316220Y-111747300D03*
X128615440Y-114251740D03*
X136933940Y-112433100D03*
D27*
X130515360Y-87368380D02*
X130167380Y-87716360D01*
X130515360Y-83273540D02*
X130515360Y-87368380D01*
X130167380Y-87716360D02*
X128436480Y-87716360D01*
X128535280Y-82293460D02*
X129535280Y-82293460D01*
X129535280Y-82293460D02*
X130515360Y-83273540D01*
X132184140Y-89037160D02*
X130515360Y-87368380D01*
X139748260Y-89037160D02*
X132184140Y-89037160D01*
X162378240Y-110877500D02*
X162971480Y-110284260D01*
X158788012Y-113133068D02*
X162318352Y-113133068D01*
X158164640Y-113756440D02*
X158788012Y-113133068D01*
X162318352Y-113133068D02*
X162378240Y-113073180D01*
X162378240Y-115732560D02*
X162378240Y-113073180D01*
X162378240Y-113073180D02*
X162378240Y-110877500D01*
X129420400Y-116512340D02*
X130822700Y-117914640D01*
X126394360Y-116512340D02*
X129420400Y-116512340D01*
X142590520Y-102242620D02*
X144868900Y-104521000D01*
X142590520Y-99791520D02*
X142590520Y-102242620D01*
D28*
X162971480Y-109011468D02*
X162971480Y-110284260D01*
X162971480Y-85548880D02*
X162971480Y-109011468D01*
X160897720Y-82875120D02*
X160897720Y-83475120D01*
X156027120Y-81394300D02*
X155978860Y-81442560D01*
X157140800Y-81394300D02*
X156027120Y-81394300D01*
X161091521Y-83668921D02*
X161242600Y-83820000D01*
X161052459Y-83668921D02*
X161091521Y-83668921D01*
X160652460Y-84068920D02*
X161052459Y-83668921D01*
X160897720Y-83475120D02*
X161242600Y-83820000D01*
X161242600Y-83820000D02*
X162971480Y-85548880D01*
X130822700Y-117774720D02*
X131729480Y-116867940D01*
X130822700Y-117914640D02*
X130822700Y-117774720D01*
D27*
X142778480Y-86006940D02*
X139748260Y-89037160D01*
X142778480Y-84185760D02*
X142778480Y-86006940D01*
X112827430Y-129475132D02*
X112827430Y-128764670D01*
X113677429Y-130325131D02*
X112827430Y-129475132D01*
X125290210Y-115956488D02*
X128643418Y-112603280D01*
X112827430Y-128764670D02*
X125290210Y-116301890D01*
X125290210Y-116301890D02*
X125290210Y-115956488D01*
X129687320Y-112603280D02*
X132252720Y-110037880D01*
X128643418Y-112603280D02*
X129687320Y-112603280D01*
X175539400Y-130665220D02*
X173167040Y-130665220D01*
X173167040Y-130665220D02*
X160888680Y-118386860D01*
X139672060Y-118386860D02*
X135712200Y-114427000D01*
X160888680Y-118386860D02*
X139672060Y-118386860D01*
X133464300Y-107027980D02*
X134932420Y-108496100D01*
X132993240Y-107027980D02*
X133464300Y-107027980D01*
D28*
X130841361Y-115845979D02*
X130822700Y-115864640D01*
X132875881Y-115845979D02*
X130841361Y-115845979D01*
X130520400Y-115562340D02*
X130822700Y-115864640D01*
X128794360Y-115562340D02*
X130520400Y-115562340D01*
D27*
X126540220Y-117462340D02*
X128794360Y-117462340D01*
X115473480Y-128529080D02*
X126540220Y-117462340D01*
D28*
X159978240Y-117282560D02*
X159877240Y-117383560D01*
X159978240Y-116682560D02*
X159978240Y-117282560D01*
X157478620Y-117383560D02*
X156035900Y-115940840D01*
X159877240Y-117383560D02*
X157478620Y-117383560D01*
X156114640Y-115862100D02*
X156035900Y-115940840D01*
X156114640Y-113756440D02*
X156114640Y-115862100D01*
X126135280Y-87465160D02*
X126386480Y-87716360D01*
X126386480Y-83494660D02*
X126135280Y-83243460D01*
X126386480Y-87716360D02*
X126386480Y-83494660D01*
X162766900Y-81394300D02*
X163297720Y-81925120D01*
X159190800Y-81394300D02*
X162766900Y-81394300D01*
X159190800Y-83431380D02*
X159190800Y-81394300D01*
D27*
X113705640Y-70201742D02*
X113705640Y-69579822D01*
X113705640Y-69579822D02*
X113705640Y-68277740D01*
X124847358Y-81343460D02*
X113705640Y-70201742D01*
X126135280Y-81343460D02*
X124847358Y-81343460D01*
X159978240Y-115104060D02*
X159978240Y-114782560D01*
X173743349Y-128869169D02*
X159978240Y-115104060D01*
X174078900Y-73043940D02*
X174078900Y-70154800D01*
X163297720Y-83825120D02*
X174078900Y-73043940D01*
D28*
X158085900Y-115940840D02*
X157144720Y-114999660D01*
X157144720Y-113198330D02*
X155089860Y-111143470D01*
X157144720Y-114999660D02*
X157144720Y-113198330D01*
X155089860Y-111143470D02*
X155089860Y-111143470D01*
X162521470Y-99313570D02*
X162521470Y-106441670D01*
X160108900Y-96901000D02*
X162521470Y-99313570D01*
X162521470Y-106441670D02*
X162521470Y-106489930D01*
X162521470Y-106489930D02*
X160093660Y-108917740D01*
X159412998Y-108917740D02*
X159044640Y-109286098D01*
X160093660Y-108917740D02*
X159412998Y-108917740D01*
X159044640Y-109872090D02*
X158515630Y-110401100D01*
X159044640Y-109286098D02*
X159044640Y-109872090D01*
X158515630Y-110401100D02*
X154652980Y-110401100D01*
X154364859Y-113014657D02*
X154813000Y-113462798D01*
X154652980Y-110401100D02*
X154364859Y-110689221D01*
X154364859Y-110689221D02*
X154364859Y-113014657D01*
X154813000Y-113462798D02*
X154813000Y-116804440D01*
X154813000Y-116804440D02*
X154813000Y-116804440D01*
X134118959Y-117895979D02*
X134272020Y-118049040D01*
X132875881Y-117895979D02*
X134118959Y-117895979D01*
X155828899Y-105320999D02*
X155028900Y-104521000D01*
X156153901Y-105646001D02*
X155828899Y-105320999D01*
X158108901Y-105646001D02*
X156153901Y-105646001D01*
X158693901Y-105061001D02*
X158108901Y-105646001D01*
X158693901Y-84984481D02*
X158693901Y-105061001D01*
X157140800Y-83431380D02*
X158693901Y-84984481D01*
D27*
X126398020Y-105211880D02*
X127088900Y-104521000D01*
X126398020Y-107007660D02*
X126398020Y-105211880D01*
X126682500Y-107007660D02*
X126398020Y-107007660D01*
X129712720Y-110037880D02*
X126682500Y-107007660D01*
X130943240Y-108807360D02*
X129712720Y-110037880D01*
X130943240Y-107027980D02*
X130943240Y-108807360D01*
D28*
X129423160Y-85646260D02*
X129578100Y-85801200D01*
X128400920Y-85646260D02*
X129423160Y-85646260D01*
X131853940Y-106350490D02*
X131853940Y-107716320D01*
X130824449Y-105320999D02*
X131853940Y-106350490D01*
X129628900Y-104521000D02*
X130428899Y-105320999D01*
X130428899Y-105320999D02*
X130824449Y-105320999D01*
X133942721Y-109187881D02*
X134792720Y-110037880D01*
X133325501Y-109187881D02*
X133942721Y-109187881D01*
X131853940Y-107716320D02*
X133325501Y-109187881D01*
X137332720Y-109684820D02*
X137332720Y-110037880D01*
X132168900Y-104521000D02*
X137332720Y-109684820D01*
X152951360Y-116067840D02*
X153492200Y-115527000D01*
X141967201Y-114837461D02*
X143197580Y-116067840D01*
X141967201Y-110393359D02*
X141967201Y-114837461D01*
X140153762Y-108579920D02*
X141967201Y-110393359D01*
X143197580Y-116067840D02*
X152951360Y-116067840D01*
X153492200Y-115527000D02*
X153492200Y-114427000D01*
X134833080Y-105582612D02*
X137830388Y-108579920D01*
X137830388Y-108579920D02*
X140153762Y-108579920D01*
X134833080Y-104645180D02*
X134708900Y-104521000D01*
X134833080Y-105582612D02*
X134833080Y-104645180D01*
X144868900Y-94917260D02*
X145674080Y-94112080D01*
X144868900Y-96901000D02*
X144868900Y-94917260D01*
D27*
X145882020Y-106047880D02*
X147408900Y-104521000D01*
X145882020Y-108780580D02*
X145882020Y-106047880D01*
X144060840Y-106959400D02*
X145882020Y-108780580D01*
X141011280Y-106959400D02*
X144060840Y-106959400D01*
X150782020Y-105354120D02*
X149948900Y-104521000D01*
X150782020Y-108780580D02*
X150782020Y-105354120D01*
X152613360Y-106949240D02*
X150782020Y-108780580D01*
X155648020Y-106949240D02*
X152613360Y-106949240D01*
D28*
X143332200Y-113224919D02*
X143332200Y-114427000D01*
X129628900Y-96901000D02*
X135833901Y-103106001D01*
X135833901Y-103106001D02*
X135833901Y-105947023D01*
X135833901Y-105947023D02*
X137971279Y-108084401D01*
X143332200Y-111121948D02*
X143332200Y-113224919D01*
X137971279Y-108084401D02*
X140294653Y-108084401D01*
X140294653Y-108084401D02*
X143332200Y-111121948D01*
X125273019Y-110423181D02*
X126597138Y-111747300D01*
X127088900Y-96901000D02*
X125273019Y-98716881D01*
X125273019Y-98716881D02*
X125273019Y-110423181D01*
X126597138Y-111747300D02*
X129174240Y-111747300D01*
X129174240Y-111747300D02*
X129174240Y-111747300D01*
X139942201Y-113577001D02*
X140792200Y-114427000D01*
X137712501Y-111347301D02*
X139942201Y-113577001D01*
X132716219Y-111347301D02*
X137712501Y-111347301D01*
X132316220Y-111747300D02*
X132716219Y-111347301D01*
D27*
X160108900Y-107219640D02*
X160108900Y-104521000D01*
X157911800Y-109416740D02*
X160108900Y-107219640D01*
X160431480Y-110284260D02*
X160431480Y-110368080D01*
X159332820Y-111466740D02*
X157911800Y-111466740D01*
X160431480Y-110368080D02*
X159332820Y-111466740D01*
X153518670Y-91719400D02*
X150431500Y-91719400D01*
X157568900Y-96901000D02*
X157568900Y-95769630D01*
X149908260Y-91196160D02*
X149908260Y-89037160D01*
X150431500Y-91719400D02*
X149908260Y-91196160D01*
X157568900Y-95769630D02*
X153518670Y-91719400D01*
X155028900Y-95769630D02*
X152139450Y-92880180D01*
X155028900Y-96901000D02*
X155028900Y-95769630D01*
X147368260Y-90239241D02*
X147368260Y-89037160D01*
X150009199Y-92880180D02*
X147368260Y-90239241D01*
X152139450Y-92880180D02*
X150009199Y-92880180D01*
X152488900Y-96697800D02*
X152488900Y-96901000D01*
X144828260Y-89037160D02*
X152488900Y-96697800D01*
X142288260Y-89037160D02*
X144647920Y-91396820D01*
X144647920Y-91396820D02*
X145783300Y-91396820D01*
X149948900Y-95562420D02*
X149948900Y-96901000D01*
X145783300Y-91396820D02*
X149948900Y-95562420D01*
D28*
X138988901Y-103721001D02*
X139788900Y-104521000D01*
X138663899Y-103395999D02*
X138988901Y-103721001D01*
X136998897Y-103395999D02*
X138663899Y-103395999D01*
X131043899Y-97441001D02*
X136998897Y-103395999D01*
X131043899Y-95786820D02*
X131043899Y-97441001D01*
X129623820Y-94366741D02*
X131043899Y-95786820D01*
X129623820Y-93164660D02*
X129623820Y-94366741D01*
X139783820Y-96895920D02*
X139788900Y-96901000D01*
X139783820Y-93164660D02*
X139783820Y-96895920D01*
X137248900Y-93169740D02*
X137243820Y-93164660D01*
X137248900Y-96901000D02*
X137248900Y-93169740D01*
X134703820Y-96895920D02*
X134708900Y-96901000D01*
X134703820Y-93164660D02*
X134703820Y-96895920D01*
X132163820Y-96895920D02*
X132168900Y-96901000D01*
X132163820Y-93164660D02*
X132163820Y-96895920D01*
X133338821Y-97195923D02*
X134750778Y-98607880D01*
X133338821Y-92600659D02*
X133338821Y-97195923D01*
X132727821Y-91989659D02*
X133338821Y-92600659D01*
X127083820Y-93164660D02*
X128258821Y-91989659D01*
X128258821Y-91989659D02*
X132727821Y-91989659D01*
X151655780Y-98607880D02*
X157568900Y-104521000D01*
X134750778Y-98607880D02*
X151655780Y-98607880D01*
X129181125Y-114251740D02*
X128615440Y-114251740D01*
X134148458Y-114251740D02*
X129181125Y-114251740D01*
X135967098Y-112433100D02*
X134148458Y-114251740D01*
X136933940Y-112433100D02*
X135967098Y-112433100D01*
M02*
